<svg width="60" height="60" viewBox="0 0 60 60" fill="none" xmlns="http://www.w3.org/2000/svg">
<rect width="60" height="60" rx="30" fill="#353535"/>
<path d="M29.8153 39.2386C28.5881 39.2386 27.4972 39.0284 26.5426 38.608C25.5938 38.1875 24.8438 37.6023 24.2926 36.8523C23.7415 36.1023 23.4489 35.2358 23.4148 34.2528H26.6193C26.6477 34.7244 26.804 35.1364 27.0881 35.4886C27.3722 35.8352 27.75 36.1051 28.2216 36.2983C28.6932 36.4915 29.2216 36.5881 29.8068 36.5881C30.4318 36.5881 30.9858 36.4801 31.4688 36.2642C31.9517 36.0426 32.3295 35.7358 32.6023 35.3438C32.875 34.9517 33.0085 34.5 33.0028 33.9886C33.0085 33.4602 32.8722 32.9943 32.5938 32.5909C32.3153 32.1875 31.9119 31.8722 31.3835 31.6449C30.8608 31.4176 30.2301 31.304 29.4915 31.304H27.9489V28.8665H29.4915C30.0994 28.8665 30.6307 28.7614 31.0852 28.5511C31.5455 28.3409 31.9063 28.0455 32.1676 27.6648C32.429 27.2784 32.5568 26.8324 32.5511 26.3267C32.5568 25.8324 32.446 25.4034 32.2188 25.0398C31.9972 24.6705 31.6818 24.3835 31.2727 24.179C30.8693 23.9744 30.3949 23.8722 29.8494 23.8722C29.3153 23.8722 28.821 23.9687 28.3665 24.1619C27.9119 24.3551 27.5455 24.6307 27.267 24.9886C26.9886 25.3409 26.8409 25.7614 26.8239 26.25H23.7812C23.804 25.2727 24.0852 24.4148 24.625 23.6761C25.1705 22.9318 25.8977 22.3523 26.8068 21.9375C27.7159 21.517 28.7358 21.3068 29.8665 21.3068C31.0313 21.3068 32.0426 21.5256 32.9006 21.9631C33.7642 22.3949 34.4318 22.9773 34.9034 23.7102C35.375 24.4432 35.6108 25.2528 35.6108 26.1392C35.6165 27.1222 35.3267 27.946 34.7415 28.6108C34.1619 29.2756 33.4006 29.7102 32.4574 29.9148V30.0511C33.6847 30.2216 34.625 30.6761 35.2784 31.4148C35.9375 32.1477 36.2642 33.0597 36.2585 34.1506C36.2585 35.1278 35.9801 36.0028 35.4233 36.7756C34.8722 37.5426 34.1108 38.1449 33.1392 38.5824C32.1733 39.0199 31.0653 39.2386 29.8153 39.2386Z" fill="white"/>
</svg>
