<svg width="60" height="60" viewBox="0 0 60 60" fill="none" xmlns="http://www.w3.org/2000/svg">
<rect width="60" height="60" rx="30" fill="#353535"/>
<path d="M24.5511 39V36.7159L30.6108 30.7756C31.1903 30.1903 31.6733 29.6705 32.0597 29.2159C32.446 28.7614 32.7358 28.321 32.929 27.8949C33.1222 27.4687 33.2188 27.0142 33.2188 26.5312C33.2188 25.9801 33.0938 25.5085 32.8438 25.1165C32.5938 24.7188 32.25 24.4119 31.8125 24.196C31.375 23.9801 30.8778 23.8722 30.321 23.8722C29.7472 23.8722 29.2443 23.9915 28.8125 24.2301C28.3807 24.4631 28.0455 24.7955 27.8068 25.2273C27.5739 25.6591 27.4574 26.1733 27.4574 26.7699H24.4489C24.4489 25.6619 24.7017 24.6989 25.2074 23.8807C25.7131 23.0625 26.4091 22.429 27.2955 21.9801C28.1875 21.5312 29.2102 21.3068 30.3636 21.3068C31.5341 21.3068 32.5625 21.5256 33.4489 21.9631C34.3352 22.4006 35.0227 23 35.5114 23.7614C36.0057 24.5227 36.2528 25.392 36.2528 26.3693C36.2528 27.0227 36.1278 27.6648 35.8778 28.2955C35.6278 28.9261 35.1875 29.625 34.5568 30.392C33.9318 31.1591 33.054 32.0881 31.9233 33.179L28.9148 36.2386V36.358H36.517V39H24.5511Z" fill="white"/>
</svg>
