<svg xmlns="http://www.w3.org/2000/svg" width="175.841" height="52.963" viewBox="0 0 175.841 52.963"><defs><style>.a{fill:#fff;}.b{fill:#4fc143;}.c{fill:#8cc05f;}</style></defs><g transform="translate(0)"><path class="a" d="M531.482,867a26.482,26.482,0,1,0,26.481,26.481A26.512,26.512,0,0,0,531.482,867" transform="translate(-505 -867.001)"/><path class="b" d="M532.291,869.161a25.129,25.129,0,1,0,25.13,25.129,25.158,25.158,0,0,0-25.13-25.129" transform="translate(-505.809 -867.809)"/><path class="a" d="M525.19,892.65a2.921,2.921,0,0,0-2.054-.971c-2.072,0-2.072,2.112-2.072,2.477v5.2c0,1.128.247,2.454,2.125,2.454a2.442,2.442,0,0,0,2-.963v1.521c0,.6-.121,1.167-.923,1.167a.813.813,0,0,1-.793-.42,1.65,1.65,0,0,1-.094-.615H521.12c.017.908.031,2.686,3.038,2.686,3.312,0,3.312-2.149,3.312-3.145V891.871H525.19Zm-1.862,1.93c0-.316,0-1.171.923-1.171s.912.785.912,1.2v4.344c0,.5-.111,1.108-.939,1.108-.9,0-.9-.779-.9-1.093Z" transform="translate(-511.01 -876.233)"/><path class="a" d="M533.263,891.881h2.283l-.019,1.242a2.27,2.27,0,0,1,2.25-1.416v2.258a2.464,2.464,0,0,0-.776-.15c-1.474,0-1.474,1.348-1.474,2.114V901.7h-2.264v-9.824" transform="translate(-515.574 -876.243)"/><path class="a" d="M543.527,897.267h3.916v-2.8a2.819,2.819,0,0,0-.672-1.958,3.45,3.45,0,0,0-2.377-.868,3.766,3.766,0,0,0-2.075.578,2.6,2.6,0,0,0-1.052,2.359v4.15c0,1.983.9,3.15,3.143,3.15,1.422,0,3-.517,3-2.649v-.787h-2.232c0,1.013-.014,1.133-.192,1.359a.739.739,0,0,1-.61.285c-.847,0-.847-.782-.847-1.21Zm.024-2.824c0-.606.246-.979.843-.979.781,0,.781.717.781.979v1.212h-1.624Z" transform="translate(-518.568 -876.219)"/><path class="a" d="M554.9,897.267h3.916v-2.8a2.815,2.815,0,0,0-.675-1.958,3.441,3.441,0,0,0-2.38-.868,3.759,3.759,0,0,0-2.066.578,2.6,2.6,0,0,0-1.056,2.359v4.15c0,1.983.9,3.15,3.146,3.15,1.416,0,2.994-.517,2.994-2.649v-.787h-2.229c0,1.013-.019,1.133-.193,1.359a.735.735,0,0,1-.617.285c-.84,0-.84-.782-.84-1.21Zm.021-2.824c0-.606.249-.979.84-.979.788,0,.788.717.788.979v1.212h-1.628Z" transform="translate(-522.823 -876.219)"/><path class="a" d="M564.2,891.871h2.321l-.034.727a2.576,2.576,0,0,1,1.975-.919,2.051,2.051,0,0,1,1.576.65,2.313,2.313,0,0,1,.456,1.692V901.7h-2.248v-7.214c0-.538-.034-1.2-.8-1.2-.962,0-.962.891-.962,1.329V901.7H564.2v-9.824" transform="translate(-527.146 -876.233)"/><path class="a" d="M548.093,913.542a3.007,3.007,0,0,0-1.99-1,2.128,2.128,0,0,0-1.865,1.154,2.965,2.965,0,0,0-.27,1.455v4.493a4.587,4.587,0,0,0,.292,2.089,2.149,2.149,0,0,0,1.918,1.04,2.125,2.125,0,0,0,1.9-1.156l-.021.964h2.3V909.011h-2.264Zm-1.861,2.011c0-.476,0-1.247.886-1.247.958,0,.958.827.958,1.134v4.22c0,.315,0,1.19-.958,1.19-.886,0-.886-.628-.886-1.116Z" transform="translate(-519.578 -882.717)"/><path class="a" d="M555.957,921.918c0,.73,0,2.972,2.992,2.972,2.03,0,3.145-.983,3.145-2.749v-4.718a2.448,2.448,0,0,0-.957-2.213,3.938,3.938,0,0,0-2.074-.538c-2.7,0-3.106,1.657-3.106,2.845Zm2.288-4.61c0-.464,0-1.211.818-1.211.692,0,.771.634.771,1.19v5c0,.366,0,1.035-.807,1.035-.781,0-.781-.764-.781-1.018Z" transform="translate(-524.064 -884.835)"/><path class="a" d="M567.61,909.315h2.284v3.546h1.414v1.519h-1.431v5.607c0,.638.109,1.077,1.032,1.077.153,0,.247-.021.4-.021v1.63a4.383,4.383,0,0,1-1.2.122c-2.152,0-2.476-.808-2.476-2.057V914.38h-1.246v-1.519h1.229v-3.546" transform="translate(-527.963 -882.831)"/><path class="a" d="M573.947,910.253h.23a.384.384,0,0,0,.232-.048.156.156,0,0,0,.058-.131.126.126,0,0,0-.028-.088.13.13,0,0,0-.082-.066.524.524,0,0,0-.193-.026h-.217Zm-.194.672v-1.188h.4a.962.962,0,0,1,.306.036.253.253,0,0,1,.148.113.292.292,0,0,1,.056.173.329.329,0,0,1-.095.228.339.339,0,0,1-.246.109.407.407,0,0,1,.1.061,1.513,1.513,0,0,1,.181.233l.141.235h-.229l-.106-.188a.911.911,0,0,0-.2-.275.257.257,0,0,0-.153-.041h-.11v.5Zm.484-1.535a.914.914,0,0,0-.457.125.855.855,0,0,0-.349.336.943.943,0,0,0,0,.921.875.875,0,0,0,.344.342.96.96,0,0,0,.463.122.978.978,0,0,0,.461-.122.941.941,0,0,0,.34-.342.931.931,0,0,0,0-.921.952.952,0,0,0-.8-.461Zm0-.178a1.147,1.147,0,0,1,.541.14.99.99,0,0,1,.411.406,1.1,1.1,0,0,1,.148.55,1.063,1.063,0,0,1-.148.55,1.008,1.008,0,0,1-.407.413,1.07,1.07,0,0,1-.544.143,1.11,1.11,0,0,1-.556-.143,1.031,1.031,0,0,1-.4-.413,1.1,1.1,0,0,1,0-1.1.948.948,0,0,1,.412-.406A1.169,1.169,0,0,1,574.237,909.212Z" transform="translate(-530.488 -882.793)"/><path class="c" d="M602.289,912.789h.823c1.2,0,1.485-.752,1.485-1.61,0-.983-.322-1.734-1.538-1.734h-.769Zm-3-5.563h4.65c3.166,0,3.774,2.29,3.774,3.881,0,2.29-1.091,3.9-4.1,3.9h-1.324V920h-3Z" transform="translate(-540.273 -882.049)"/><path class="c" d="M618.177,912.61h.931a1.469,1.469,0,0,0,1.538-1.664c0-.948-.357-1.61-1.556-1.61h-.913Zm-3-5.384h5.045c2.557,0,3.434,1.574,3.434,3.327,0,1.861-.733,2.773-2.146,3.113v.036c1.932.286,2,1.467,2.057,3.184.053,2.522.161,2.773.572,2.951V920H620.9a5.962,5.962,0,0,1-.322-2.593c0-2.218-.3-2.683-1.252-2.683h-1.145V920h-3Z" transform="translate(-546.216 -882.049)"/><path class="c" d="M631.575,907.226h7.387v2.433H634.58v2.558h4.114v2.432H634.58v2.916h4.579V920h-7.584Z" transform="translate(-552.353 -882.049)"/><path class="c" d="M648.868,912.789h.823c1.2,0,1.485-.752,1.485-1.61,0-.983-.322-1.734-1.538-1.734h-.769Zm-3-5.563h4.651c3.166,0,3.774,2.29,3.774,3.881,0,2.29-1.091,3.9-4.1,3.9h-1.324V920h-3Z" transform="translate(-557.698 -882.049)"/><path class="c" d="M663.832,909.551H663.8l-1.056,5.688h2.182Zm-1.825-2.325h3.756L668.947,920h-3.112l-.465-2.432h-3.059L661.864,920h-3.112Z" transform="translate(-562.52 -882.049)"/><rect class="c" width="3.005" height="12.771" transform="translate(107.446 25.176)"/><path class="c" d="M687.532,917.779h.805c1.377,0,1.878-.555,1.878-4.382,0-3.112-.25-3.953-1.843-3.953h-.841Zm-3-10.553h4.454c2.969,0,4.239,1.538,4.239,5.974,0,4.633-.59,6.8-4.543,6.8h-4.15Z" transform="translate(-572.163 -882.049)"/><path class="c" d="M713.537,911.512c0-1.86-.215-2.683-1.217-2.683-1.2,0-1.306,1.145-1.306,4.49,0,3.792.125,4.776,1.378,4.776,1.091,0,1.252-1.27,1.252-3.256h2.9v.448c0,2.755-.769,4.811-4.49,4.811-3.845,0-4.15-2.879-4.15-6.725,0-3.273.2-6.546,4.436-6.546,2.647,0,4.1,1.144,4.1,4.15v.536Z" transform="translate(-580.908 -881.9)"/><path class="c" d="M727.356,909.551h-.036l-1.055,5.688h2.182Zm-1.824-2.325h3.756L732.472,920h-3.113l-.465-2.432h-3.059L725.389,920h-3.113Z" transform="translate(-586.285 -882.049)"/><path class="c" d="M743.113,912.61h.93a1.469,1.469,0,0,0,1.539-1.664c0-.948-.358-1.61-1.557-1.61h-.912Zm-3.005-5.384h5.044c2.558,0,3.434,1.574,3.434,3.327,0,1.861-.734,2.773-2.146,3.113v.036c1.932.286,2,1.467,2.057,3.184.054,2.522.161,2.773.573,2.951V920h-3.238a5.953,5.953,0,0,1-.322-2.593c0-2.218-.3-2.683-1.252-2.683h-1.145V920h-3.005Z" transform="translate(-592.956 -882.049)"/><path class="c" d="M759.515,917.779h.806c1.377,0,1.878-.555,1.878-4.382,0-3.112-.25-3.953-1.843-3.953h-.841Zm-3-10.553h4.454c2.969,0,4.239,1.538,4.239,5.974,0,4.633-.59,6.8-4.543,6.8h-4.15Z" transform="translate(-599.092 -882.049)"/><path class="c" d="M775.154,915.948v.448c0,.966.25,1.7,1.306,1.7s1.359-.787,1.359-1.521c0-2.754-5.492-1.216-5.492-5.992,0-2.039,1.091-3.756,4.185-3.756,3.006,0,4.078,1.538,4.078,3.487v.3h-2.9a2.73,2.73,0,0,0-.25-1.341.965.965,0,0,0-.912-.448c-.769,0-1.2.448-1.2,1.378,0,2.683,5.492,1.306,5.492,5.831,0,2.915-1.61,4.06-4.364,4.06-2.2,0-4.2-.662-4.2-3.327v-.823Z" transform="translate(-604.983 -881.9)"/><path class="c" d="M599.721,894.594h.515a.807.807,0,0,0,.928-.919.754.754,0,0,0-.859-.85h-.584Zm-1.237-2.68h2.285a1.446,1.446,0,0,1,1.632,1.58c0,.825-.327,1.366-1.022,1.512v.017c.842.112.962.576.988,1.873.009.653.043.97.275,1.1v.052H601.3a1.125,1.125,0,0,1-.155-.645l-.034-1.177c-.026-.481-.223-.773-.73-.773h-.662v2.594h-1.237Z" transform="translate(-539.973 -876.321)"/><path class="c" d="M609.544,891.914v1.014h-2.19v1.443h2.062v1.014h-2.062v1.649h2.276v1.014h-3.514v-6.134Z" transform="translate(-542.828 -876.321)"/><path class="c" d="M612.719,898.047v-6.134h1.237v5.12h2.191v1.014Z" transform="translate(-545.299 -876.321)"/><path class="c" d="M620.955,897.185c.73,0,.851-.627.851-2.276s-.12-2.277-.851-2.277-.85.636-.85,2.277S620.226,897.185,620.955,897.185Zm0-5.463c1.856,0,2.088,1.322,2.088,3.187s-.232,3.187-2.088,3.187-2.087-1.323-2.087-3.187S619.1,891.722,620.955,891.722Z" transform="translate(-547.599 -876.249)"/><path class="c" d="M627.477,895.737h1.2l-.593-2.758h-.018Zm-.163-3.823h1.53l1.624,6.134h-1.289l-.283-1.3h-1.632l-.284,1.3H625.69Z" transform="translate(-550.151 -876.321)"/><path class="c" d="M635.342,897.137h.549c.859,0,1.031-.541,1.031-2.208,0-1.391-.12-2.1-1.057-2.1h-.524Zm-1.237-5.223h2.027c1.71,0,2.027,1.168,2.027,2.981,0,2.164-.464,3.153-2.1,3.153H634.1Z" transform="translate(-553.299 -876.321)"/><path class="c" d="M642.521,895.737h1.2l-.593-2.758h-.017Zm-.163-3.823h1.529l1.624,6.134h-1.289l-.283-1.3h-1.633l-.283,1.3h-1.289Z" transform="translate(-555.78 -876.321)"/><path class="c" d="M650.29,897.137h.481c.593,0,1-.215,1-.928s-.4-.919-.945-.919h-.533Zm0-2.706h.352c.687,0,.988-.223.988-.807s-.275-.8-.894-.8h-.447Zm-1.237-2.517h2.07c1.013,0,1.744.378,1.744,1.555a1.272,1.272,0,0,1-.928,1.34v.018a1.285,1.285,0,0,1,1.117,1.426,1.667,1.667,0,0,1-1.916,1.8h-2.087Z" transform="translate(-558.891 -876.321)"/><path class="c" d="M656.685,898.047v-6.134h1.237v5.12h2.191v1.014Z" transform="translate(-561.747 -876.321)"/><path class="c" d="M666.468,891.914v1.014h-2.191v1.443h2.062v1.014h-2.062v1.649h2.276v1.014H663.04v-6.134Z" transform="translate(-564.124 -876.321)"/></g></svg>