<svg xmlns="http://www.w3.org/2000/svg" width="184.901" height="51.358" viewBox="0 0 184.901 51.358"><defs><style>.a{fill:#5aab62;}.b{fill:#435f60;}.c{fill:none;stroke:#000;stroke-miterlimit:10;opacity:0;}</style></defs><g transform="translate(0.501)"><path class="a" d="M1440,763.39c.939-1.1,1.877-2.205,2.816-3.313l2.187-2.45,1.173-1.286,2.2-2.43,1.135-1.267c.732-.817,1.464-1.632,2.187-2.459.479-.535.939-1.08,1.418-1.615.741-.854,1.473-1.708,2.187-2.571l-2.535,2.187-2.167,1.877-1.089.939c-.676.592-1.389,1.229-2.13,1.877l-1.2,1.061-2.4,2.158-.939.826-4.861,4.514v-5.631a7.593,7.593,0,0,1,7.508-7.6h5.885l2.562-2.187h-8.447a9.779,9.779,0,0,0-9.779,9.78v9.779h2.45c.582-.723,1.191-1.454,1.811-2.177" transform="translate(-1284.051 -746)"/><path class="b" d="M1444.674,764.187h-1.22l-1.877,2.187h6.381a9.46,9.46,0,0,0,2.2-.394,9.8,9.8,0,0,0,1.135-.432,9.417,9.417,0,0,0,2.187-1.342,9.753,9.753,0,0,0,3.6-7.583V748.57l-2.187,2.5v5.528a7.5,7.5,0,0,1-1.417,4.411V752.69l-2.187,2.5v7.865a6.506,6.506,0,0,1-1.135.572v-7.132L1448,759.016v5.171h-1.136v-3.9l-2.187,2.478v1.389" transform="translate(-1285.871 -746.796)"/><path class="a" d="M1269.249,773.193a1.666,1.666,0,0,1-.488-1.154,2.179,2.179,0,0,1,.168-.939,1.812,1.812,0,0,1,.422-.572,2.091,2.091,0,0,1,1.4-.5,1.756,1.756,0,0,1,1.874,1.628,1.645,1.645,0,0,1,0,.193l-.028-.019a1.85,1.85,0,0,1-1.962,1.887c-.035,0-.071,0-.106,0A1.816,1.816,0,0,1,1269.249,773.193Zm-30.089.038a1.682,1.682,0,0,1-.5-1.154,2.179,2.179,0,0,1,.169-.939,2.137,2.137,0,0,1,.422-.572,2.1,2.1,0,0,1,1.408-.5,1.755,1.755,0,0,1,1.874,1.627,1.6,1.6,0,0,1,0,.193l-.037-.019a1.88,1.88,0,0,1-.526,1.343,1.918,1.918,0,0,1-1.426.544c-.039,0-.077,0-.114,0A1.8,1.8,0,0,1,1239.16,773.231Zm-2.994,21.257c0-.45.225-.535.685-.535l.939.085a1.406,1.406,0,0,0,.7-.151,1.178,1.178,0,0,0,.45-.685,17.79,17.79,0,0,0,.291-4.185v-5.622a6.487,6.487,0,0,0-.263-2.3,1.538,1.538,0,0,0-.572-.667,3.417,3.417,0,0,0-1.042-.281c-.488-.066-.732-.253-.732-.582s.319-.488.939-.629a12.1,12.1,0,0,0,3.041-.939,4.134,4.134,0,0,1,1.6-.657.376.376,0,0,1,.424.32.382.382,0,0,1,0,.112,1.442,1.442,0,0,1-.075.422,19.315,19.315,0,0,0-.422,5.04v5.744a19.587,19.587,0,0,0,.226,3.988,1.617,1.617,0,0,0,.516.882,1.443,1.443,0,0,0,.7.15l.939-.084c.45,0,.685.178.685.535s-.422.685-1.248.685a8.8,8.8,0,0,1-1.511-.141,10.037,10.037,0,0,0-1.726-.141,10.635,10.635,0,0,0-1.765.141,9.423,9.423,0,0,1-1.548.179C1236.579,795.173,1236.166,794.939,1236.166,794.488Zm30.089,0c0-.451.225-.535.685-.535l.939.084a1.436,1.436,0,0,0,.7-.15,1.177,1.177,0,0,0,.451-.685,17.809,17.809,0,0,0,.29-4.186v-5.621a6.429,6.429,0,0,0-.262-2.3,1.462,1.462,0,0,0-.563-.667,3.541,3.541,0,0,0-1.042-.281c-.5-.066-.732-.254-.732-.582s.319-.488.939-.629A11.829,11.829,0,0,0,1270.7,778a4.241,4.241,0,0,1,1.615-.657.385.385,0,0,1,.431.331.349.349,0,0,1,0,.1,1.449,1.449,0,0,1-.074.422,18.733,18.733,0,0,0-.432,5.04v5.744a18.586,18.586,0,0,0,.235,3.988,1.622,1.622,0,0,0,.507.882,1.441,1.441,0,0,0,.7.15l.939-.085c.46,0,.685.179.685.536s-.413.685-1.239.685a8.8,8.8,0,0,1-1.511-.141,10.147,10.147,0,0,0-1.736-.141,10.766,10.766,0,0,0-1.764.141,9.18,9.18,0,0,1-1.558.179C1266.668,795.173,1266.255,794.939,1266.255,794.488Zm48.84.554a9.729,9.729,0,0,0-1.746-.141,10.5,10.5,0,0,0-1.784.141,8.829,8.829,0,0,1-1.567.132c-.817,0-1.229-.235-1.229-.685s.235-.535.694-.535l.939.085a1.4,1.4,0,0,0,.7-.151,1.127,1.127,0,0,0,.432-.685,18.016,18.016,0,0,0,.291-4.185V775.164c0-2.056-.422-3.144-1.276-3.266-.619-.094-.939-.3-.939-.609s.291-.488.873-.6a9.393,9.393,0,0,0,1.577-.45c.469-.179.882-.347,1.239-.516l.939-.432a1.569,1.569,0,0,1,.554-.188.376.376,0,0,1,.422.322.417.417,0,0,1,0,.1,1.454,1.454,0,0,1-.075.432,7.2,7.2,0,0,0-.4,2.544v16.48a20.683,20.683,0,0,0,.216,3.979,1.572,1.572,0,0,0,.506.939,1.4,1.4,0,0,0,.7.15l.938-.084c.451,0,.685.178.685.535s-.413.685-1.229.685A7.961,7.961,0,0,1,1315.1,795.042Zm-13.477-3.622a10.923,10.923,0,0,1-.057-1.155v-3.791a6.759,6.759,0,0,0-3.378-.761,4.916,4.916,0,0,0-3.266,1.014,3.344,3.344,0,0,0-1.239,2.731,4.326,4.326,0,0,0,.939,2.816,3.016,3.016,0,0,0,2.431,1.145A5.1,5.1,0,0,0,1301.618,791.419Zm-9.591,2.468a5.069,5.069,0,0,1-1.539-3.9,4.694,4.694,0,0,1,2.328-4.036,10.553,10.553,0,0,1,5.95-1.548,14.717,14.717,0,0,1,2.816.366V783.32q0-4.758-4.026-4.758a3.282,3.282,0,0,0-3.135,1.961c-.583,1.173-1.145,1.764-1.7,1.764a1.686,1.686,0,0,1-1.07-.356,1.089,1.089,0,0,1-.46-.892,1.936,1.936,0,0,1,.563-1.192,5.643,5.643,0,0,1,1.483-1.2,9.377,9.377,0,0,1,4.777-1.3c3.1,0,5.087,1.014,6,3.022a6.32,6.32,0,0,1,.5,2.637v7.4a3.752,3.752,0,0,0,.282,1.877.871.871,0,0,0,.779.4,1.872,1.872,0,0,0,.817-.15,1.412,1.412,0,0,1,.592-.168c.356,0,.535.159.535.488s-.357.638-1.08.938a5.973,5.973,0,0,0-1.5.808l-.629.534a.711.711,0,0,1-.478.179,1.136,1.136,0,0,1-.939-.469,9.7,9.7,0,0,1-1-1.98,6.838,6.838,0,0,1-2.562,1.821,7.665,7.665,0,0,1-2.994.629c-.119.007-.24.01-.358.01A6.152,6.152,0,0,1,1292.027,793.887Zm-8.935,1.426a3.586,3.586,0,0,1-2.984-1.36,5.94,5.94,0,0,1-1.079-3.754V779.594h-1.08c-.939,0-1.333-.225-1.333-.685s.244-.563.741-.685a3.061,3.061,0,0,0,1.276-.657,4.381,4.381,0,0,0,.882-1.079,7.042,7.042,0,0,0,.545-1.249c.131-.431.263-.826.375-1.182.272-.816.572-1.23.939-1.23s.6.357.6,1.061v4.186l5.209-.112c.253,0,.46.309.61.938a1.691,1.691,0,0,1-.028.319c0,.329-.2.5-.592.5l-5.265-.056v10.267c0,1.877.46,3.05,1.39,3.407a2.882,2.882,0,0,0,2.046-.038,5.974,5.974,0,0,0,.844-.413,7.043,7.043,0,0,0,.63-.422.826.826,0,0,1,.5-.188.518.518,0,0,1,.413.253.936.936,0,0,1,.187.526c0,.431-.554.938-1.652,1.548a6.334,6.334,0,0,1-2.928.718C1283.254,795.318,1283.173,795.317,1283.091,795.314Zm-62.561-14.791a7.774,7.774,0,0,0-1.445,4.975,8.787,8.787,0,0,0,1.877,5.875,5.3,5.3,0,0,0,4.176,2.074,4.4,4.4,0,0,0,3.754-1.746,11.2,11.2,0,0,1-.094-1.6l.019-9.009a5.48,5.48,0,0,0-4.692-2.3H1224A4.355,4.355,0,0,0,1220.531,780.523Zm8.681,12.679a6.833,6.833,0,0,1-5.218,2.121,7.376,7.376,0,0,1-5.969-2.618,9.5,9.5,0,0,1-2.018-6.232,9.03,9.03,0,0,1,2.488-6.429,8.169,8.169,0,0,1,6.232-2.7,8.255,8.255,0,0,1,4.092.939v-3.9a6.013,6.013,0,0,0-.273-2.271,1.742,1.742,0,0,0-.6-.714,3.057,3.057,0,0,0-1-.3c-.469-.074-.7-.262-.7-.572s.319-.488.938-.61a11.551,11.551,0,0,0,3.06-.938,4.257,4.257,0,0,1,1.521-.629.376.376,0,0,1,.431.311.409.409,0,0,1,0,.112,1.434,1.434,0,0,1-.075.431,7.363,7.363,0,0,0-.4,2.506v17.71a8.839,8.839,0,0,0,.253,2.637,1.889,1.889,0,0,0,.479.77,1,1,0,0,0,.582.178l1.108-.244c.356,0,.544.16.544.479a.591.591,0,0,1-.235.469,3.969,3.969,0,0,1-.788.422,4.686,4.686,0,0,0-.939.507q-.365.253-.647.478a1.822,1.822,0,0,1-.986.535C1230.263,795.652,1229.644,794.835,1229.212,793.2Zm22.571-12.219a5.85,5.85,0,0,0-.263,1.877,6.21,6.21,0,0,0,.366,2.13,5.114,5.114,0,0,0,.929,1.737,4.22,4.22,0,0,0,1.4,1.06,3.757,3.757,0,0,0,1.558.357,3.369,3.369,0,0,0,1.37-.263,2.8,2.8,0,0,0,1.1-.817,4.119,4.119,0,0,0,.939-2.759,9.876,9.876,0,0,0-.281-2.628,4.825,4.825,0,0,0-.845-1.652,3.8,3.8,0,0,0-3.116-1.4h-.081A3.182,3.182,0,0,0,1251.783,780.983Zm-1.811,16.7a3.544,3.544,0,0,0,1.783,2.891,8.186,8.186,0,0,0,4.768,1.314c2.816,0,4.552-.61,5.265-1.877a2.81,2.81,0,0,0,.395-1.5,3.354,3.354,0,0,0-.282-1.445,2.586,2.586,0,0,0-1-1.051,12.8,12.8,0,0,0-5.115-1.436,22.56,22.56,0,0,1-3.172-.46A3.632,3.632,0,0,0,1249.972,797.679Zm-.488,4.57a4.558,4.558,0,0,1-2.356-3.894q0-3.013,3.97-4.543c-1.445-.431-2.29-.995-2.544-1.67a1.713,1.713,0,0,1-.131-.647q0-.939,2.637-3.117a5.629,5.629,0,0,1-2.713-4.993,5.487,5.487,0,0,1,1.953-4.186,7.581,7.581,0,0,1,5.18-1.858,8.04,8.04,0,0,1,2.749.5,6.867,6.867,0,0,1,2.3-2.891,4.388,4.388,0,0,1,2.609-.939,2.2,2.2,0,0,1,2.13,1.127,1.569,1.569,0,0,1,.188.76,1,1,0,0,1-.451.779,1.459,1.459,0,0,1-.863.356,1.878,1.878,0,0,1-1.212-.309,2.073,2.073,0,0,0-1.332-.573,1.815,1.815,0,0,0-1.267.62,3.842,3.842,0,0,0-.938,1.7,5.49,5.49,0,0,1,2.909,4.908,5.374,5.374,0,0,1-2.018,4.233,7.656,7.656,0,0,1-5.115,1.773,7.988,7.988,0,0,1-2.947-.5c-.723.61-1.079,1-1.079,1.182a.883.883,0,0,0,.141.5,1.513,1.513,0,0,0,.6.431,13.632,13.632,0,0,0,3.623.751,27.015,27.015,0,0,1,4.289.788,10.663,10.663,0,0,1,2.816,1.211,4.194,4.194,0,0,1,2.036,3.754,5.314,5.314,0,0,1-2.684,4.393,11.073,11.073,0,0,1-6.42,1.877c-.161.007-.322.01-.484.01A10.93,10.93,0,0,1,1249.484,802.249Z" transform="translate(-1215.999 -752.922)"/><path class="c" d="M1269.249,773.193a1.666,1.666,0,0,1-.488-1.154,2.179,2.179,0,0,1,.168-.939,1.812,1.812,0,0,1,.422-.572,2.091,2.091,0,0,1,1.4-.5,1.756,1.756,0,0,1,1.874,1.628,1.645,1.645,0,0,1,0,.193l-.028-.019a1.85,1.85,0,0,1-1.962,1.887c-.035,0-.071,0-.106,0A1.816,1.816,0,0,1,1269.249,773.193Zm-30.089.038a1.682,1.682,0,0,1-.5-1.154,2.179,2.179,0,0,1,.169-.939,2.137,2.137,0,0,1,.422-.572,2.1,2.1,0,0,1,1.408-.5,1.755,1.755,0,0,1,1.874,1.627,1.6,1.6,0,0,1,0,.193l-.037-.019a1.88,1.88,0,0,1-.526,1.343,1.918,1.918,0,0,1-1.426.544c-.039,0-.077,0-.114,0A1.8,1.8,0,0,1,1239.16,773.231Zm-2.994,21.257c0-.45.225-.535.685-.535l.939.085a1.406,1.406,0,0,0,.7-.151,1.178,1.178,0,0,0,.45-.685,17.79,17.79,0,0,0,.291-4.185v-5.622a6.487,6.487,0,0,0-.263-2.3,1.538,1.538,0,0,0-.572-.667,3.417,3.417,0,0,0-1.042-.281c-.488-.066-.732-.253-.732-.582s.319-.488.939-.629a12.1,12.1,0,0,0,3.041-.939,4.134,4.134,0,0,1,1.6-.657.376.376,0,0,1,.424.32.382.382,0,0,1,0,.112,1.442,1.442,0,0,1-.075.422,19.315,19.315,0,0,0-.422,5.04v5.744a19.587,19.587,0,0,0,.226,3.988,1.617,1.617,0,0,0,.516.882,1.443,1.443,0,0,0,.7.15l.939-.084c.45,0,.685.178.685.535s-.422.685-1.248.685a8.8,8.8,0,0,1-1.511-.141,10.037,10.037,0,0,0-1.726-.141,10.635,10.635,0,0,0-1.765.141,9.423,9.423,0,0,1-1.548.179C1236.579,795.173,1236.166,794.939,1236.166,794.488Zm30.089,0c0-.451.225-.535.685-.535l.939.084a1.436,1.436,0,0,0,.7-.15,1.177,1.177,0,0,0,.451-.685,17.809,17.809,0,0,0,.29-4.186v-5.621a6.429,6.429,0,0,0-.262-2.3,1.462,1.462,0,0,0-.563-.667,3.541,3.541,0,0,0-1.042-.281c-.5-.066-.732-.254-.732-.582s.319-.488.939-.629A11.829,11.829,0,0,0,1270.7,778a4.241,4.241,0,0,1,1.615-.657.385.385,0,0,1,.431.331.349.349,0,0,1,0,.1,1.449,1.449,0,0,1-.074.422,18.733,18.733,0,0,0-.432,5.04v5.744a18.586,18.586,0,0,0,.235,3.988,1.622,1.622,0,0,0,.507.882,1.441,1.441,0,0,0,.7.15l.939-.085c.46,0,.685.179.685.536s-.413.685-1.239.685a8.8,8.8,0,0,1-1.511-.141,10.147,10.147,0,0,0-1.736-.141,10.766,10.766,0,0,0-1.764.141,9.18,9.18,0,0,1-1.558.179C1266.668,795.173,1266.255,794.939,1266.255,794.488Zm48.84.554a9.729,9.729,0,0,0-1.746-.141,10.5,10.5,0,0,0-1.784.141,8.829,8.829,0,0,1-1.567.132c-.817,0-1.229-.235-1.229-.685s.235-.535.694-.535l.939.085a1.4,1.4,0,0,0,.7-.151,1.127,1.127,0,0,0,.432-.685,18.016,18.016,0,0,0,.291-4.185V775.164c0-2.056-.422-3.144-1.276-3.266-.619-.094-.939-.3-.939-.609s.291-.488.873-.6a9.393,9.393,0,0,0,1.577-.45c.469-.179.882-.347,1.239-.516l.939-.432a1.569,1.569,0,0,1,.554-.188.376.376,0,0,1,.422.322.417.417,0,0,1,0,.1,1.454,1.454,0,0,1-.075.432,7.2,7.2,0,0,0-.4,2.544v16.48a20.683,20.683,0,0,0,.216,3.979,1.572,1.572,0,0,0,.506.939,1.4,1.4,0,0,0,.7.15l.938-.084c.451,0,.685.178.685.535s-.413.685-1.229.685A7.961,7.961,0,0,1,1315.1,795.042Zm-13.477-3.622a10.923,10.923,0,0,1-.057-1.155v-3.791a6.759,6.759,0,0,0-3.378-.761,4.916,4.916,0,0,0-3.266,1.014,3.344,3.344,0,0,0-1.239,2.731,4.326,4.326,0,0,0,.939,2.816,3.016,3.016,0,0,0,2.431,1.145A5.1,5.1,0,0,0,1301.618,791.419Zm-9.591,2.468a5.069,5.069,0,0,1-1.539-3.9,4.694,4.694,0,0,1,2.328-4.036,10.553,10.553,0,0,1,5.95-1.548,14.717,14.717,0,0,1,2.816.366V783.32q0-4.758-4.026-4.758a3.282,3.282,0,0,0-3.135,1.961c-.583,1.173-1.145,1.764-1.7,1.764a1.686,1.686,0,0,1-1.07-.356,1.089,1.089,0,0,1-.46-.892,1.936,1.936,0,0,1,.563-1.192,5.643,5.643,0,0,1,1.483-1.2,9.377,9.377,0,0,1,4.777-1.3c3.1,0,5.087,1.014,6,3.022a6.32,6.32,0,0,1,.5,2.637v7.4a3.752,3.752,0,0,0,.282,1.877.871.871,0,0,0,.779.4,1.872,1.872,0,0,0,.817-.15,1.412,1.412,0,0,1,.592-.168c.356,0,.535.159.535.488s-.357.638-1.08.938a5.973,5.973,0,0,0-1.5.808l-.629.534a.711.711,0,0,1-.478.179,1.136,1.136,0,0,1-.939-.469,9.7,9.7,0,0,1-1-1.98,6.838,6.838,0,0,1-2.562,1.821,7.665,7.665,0,0,1-2.994.629c-.119.007-.24.01-.358.01A6.152,6.152,0,0,1,1292.027,793.887Zm-8.935,1.426a3.586,3.586,0,0,1-2.984-1.36,5.94,5.94,0,0,1-1.079-3.754V779.594h-1.08c-.939,0-1.333-.225-1.333-.685s.244-.563.741-.685a3.061,3.061,0,0,0,1.276-.657,4.381,4.381,0,0,0,.882-1.079,7.042,7.042,0,0,0,.545-1.249c.131-.431.263-.826.375-1.182.272-.816.572-1.23.939-1.23s.6.357.6,1.061v4.186l5.209-.112c.253,0,.46.309.61.938a1.691,1.691,0,0,1-.028.319c0,.329-.2.5-.592.5l-5.265-.056v10.267c0,1.877.46,3.05,1.39,3.407a2.882,2.882,0,0,0,2.046-.038,5.974,5.974,0,0,0,.844-.413,7.043,7.043,0,0,0,.63-.422.826.826,0,0,1,.5-.188.518.518,0,0,1,.413.253.936.936,0,0,1,.187.526c0,.431-.554.938-1.652,1.548a6.334,6.334,0,0,1-2.928.718C1283.254,795.318,1283.173,795.317,1283.091,795.314Zm-62.561-14.791a7.774,7.774,0,0,0-1.445,4.975,8.787,8.787,0,0,0,1.877,5.875,5.3,5.3,0,0,0,4.176,2.074,4.4,4.4,0,0,0,3.754-1.746,11.2,11.2,0,0,1-.094-1.6l.019-9.009a5.48,5.48,0,0,0-4.692-2.3H1224A4.355,4.355,0,0,0,1220.531,780.523Zm8.681,12.679a6.833,6.833,0,0,1-5.218,2.121,7.376,7.376,0,0,1-5.969-2.618,9.5,9.5,0,0,1-2.018-6.232,9.03,9.03,0,0,1,2.488-6.429,8.169,8.169,0,0,1,6.232-2.7,8.255,8.255,0,0,1,4.092.939v-3.9a6.013,6.013,0,0,0-.273-2.271,1.742,1.742,0,0,0-.6-.714,3.057,3.057,0,0,0-1-.3c-.469-.074-.7-.262-.7-.572s.319-.488.938-.61a11.551,11.551,0,0,0,3.06-.938,4.257,4.257,0,0,1,1.521-.629.376.376,0,0,1,.431.311.409.409,0,0,1,0,.112,1.434,1.434,0,0,1-.075.431,7.363,7.363,0,0,0-.4,2.506v17.71a8.839,8.839,0,0,0,.253,2.637,1.889,1.889,0,0,0,.479.77,1,1,0,0,0,.582.178l1.108-.244c.356,0,.544.16.544.479a.591.591,0,0,1-.235.469,3.969,3.969,0,0,1-.788.422,4.686,4.686,0,0,0-.939.507q-.365.253-.647.478a1.822,1.822,0,0,1-.986.535C1230.263,795.652,1229.644,794.835,1229.212,793.2Zm22.571-12.219a5.85,5.85,0,0,0-.263,1.877,6.21,6.21,0,0,0,.366,2.13,5.114,5.114,0,0,0,.929,1.737,4.22,4.22,0,0,0,1.4,1.06,3.757,3.757,0,0,0,1.558.357,3.369,3.369,0,0,0,1.37-.263,2.8,2.8,0,0,0,1.1-.817,4.119,4.119,0,0,0,.939-2.759,9.876,9.876,0,0,0-.281-2.628,4.825,4.825,0,0,0-.845-1.652,3.8,3.8,0,0,0-3.116-1.4h-.081A3.182,3.182,0,0,0,1251.783,780.983Zm-1.811,16.7a3.544,3.544,0,0,0,1.783,2.891,8.186,8.186,0,0,0,4.768,1.314c2.816,0,4.552-.61,5.265-1.877a2.81,2.81,0,0,0,.395-1.5,3.354,3.354,0,0,0-.282-1.445,2.586,2.586,0,0,0-1-1.051,12.8,12.8,0,0,0-5.115-1.436,22.56,22.56,0,0,1-3.172-.46A3.632,3.632,0,0,0,1249.972,797.679Zm-.488,4.57a4.558,4.558,0,0,1-2.356-3.894q0-3.013,3.97-4.543c-1.445-.431-2.29-.995-2.544-1.67a1.713,1.713,0,0,1-.131-.647q0-.939,2.637-3.117a5.629,5.629,0,0,1-2.713-4.993,5.487,5.487,0,0,1,1.953-4.186,7.581,7.581,0,0,1,5.18-1.858,8.04,8.04,0,0,1,2.749.5,6.867,6.867,0,0,1,2.3-2.891,4.388,4.388,0,0,1,2.609-.939,2.2,2.2,0,0,1,2.13,1.127,1.569,1.569,0,0,1,.188.76,1,1,0,0,1-.451.779,1.459,1.459,0,0,1-.863.356,1.878,1.878,0,0,1-1.212-.309,2.073,2.073,0,0,0-1.332-.573,1.815,1.815,0,0,0-1.267.62,3.842,3.842,0,0,0-.938,1.7,5.49,5.49,0,0,1,2.909,4.908,5.374,5.374,0,0,1-2.018,4.233,7.656,7.656,0,0,1-5.115,1.773,7.988,7.988,0,0,1-2.947-.5c-.723.61-1.079,1-1.079,1.182a.883.883,0,0,0,.141.5,1.513,1.513,0,0,0,.6.431,13.632,13.632,0,0,0,3.623.751,27.015,27.015,0,0,1,4.289.788,10.663,10.663,0,0,1,2.816,1.211,4.194,4.194,0,0,1,2.036,3.754,5.314,5.314,0,0,1-2.684,4.393,11.073,11.073,0,0,1-6.42,1.877c-.161.007-.322.01-.484.01A10.93,10.93,0,0,1,1249.484,802.249Z" transform="translate(-1215.999 -752.922)"/><path class="b" d="M1406.91,773.948a1.669,1.669,0,0,1-.488-1.155,2.183,2.183,0,0,1,.169-.938,1.813,1.813,0,0,1,.422-.573,2.075,2.075,0,0,1,1.4-.5,1.764,1.764,0,0,1,1.874,1.647,1.611,1.611,0,0,1,0,.173l-.028-.019a1.849,1.849,0,0,1-1.962,1.887c-.035,0-.071,0-.106,0A1.819,1.819,0,0,1,1406.91,773.948Zm-3.013,21.294c0-.45.226-.535.686-.535l.938.085a1.44,1.44,0,0,0,.7-.151,1.167,1.167,0,0,0,.441-.685,17.633,17.633,0,0,0,.3-4.186v-5.621a6.412,6.412,0,0,0-.253-2.327,1.512,1.512,0,0,0-.563-.666,3.512,3.512,0,0,0-1.051-.282c-.488-.066-.723-.253-.723-.582s.319-.488.938-.629a11.833,11.833,0,0,0,3.041-.939,4.253,4.253,0,0,1,1.577-.647.375.375,0,0,1,.423.32.381.381,0,0,1,0,.112,1.4,1.4,0,0,1-.066.423,18.757,18.757,0,0,0-.431,5.04v5.762a18.582,18.582,0,0,0,.235,3.989,1.582,1.582,0,0,0,.507.882,1.437,1.437,0,0,0,.7.15l.938-.084c.461,0,.686.178.686.535s-.413.685-1.239.685a8.853,8.853,0,0,1-1.51-.14,10.1,10.1,0,0,0-1.737-.141,10.641,10.641,0,0,0-1.764.141,9.381,9.381,0,0,1-1.539.178C1404.311,795.928,1403.9,795.693,1403.9,795.242Zm-4.364.554a9.955,9.955,0,0,0-1.717-.14,10.5,10.5,0,0,0-1.746.14,9.013,9.013,0,0,1-1.53.141c-.826,0-1.239-.235-1.239-.685s.225-.535.686-.535l.938.084a1.446,1.446,0,0,0,.7-.15,1.171,1.171,0,0,0,.441-.685,17.663,17.663,0,0,0,.3-4.186V785.5q0-4.055-2.187-4.946a4.124,4.124,0,0,0-3.022,0,4.4,4.4,0,0,0-1.323.844,7.412,7.412,0,0,0-2.037,3.191v5.143a19.6,19.6,0,0,0,.226,3.979,1.577,1.577,0,0,0,.5.939,1.442,1.442,0,0,0,.7.15l.939-.084c.46,0,.685.178.685.535s-.413.685-1.239.685a8.553,8.553,0,0,1-1.5-.141,9.951,9.951,0,0,0-1.717-.14,10.5,10.5,0,0,0-1.746.14,9.026,9.026,0,0,1-1.53.141c-.826,0-1.238-.235-1.238-.685s.225-.535.685-.535l.939.084a1.446,1.446,0,0,0,.7-.15,1.22,1.22,0,0,0,.441-.685,17.607,17.607,0,0,0,.272-4.233V785.5q0-4.055-2.168-4.946a4.218,4.218,0,0,0-1.53-.282,4.009,4.009,0,0,0-1.511.291,4.6,4.6,0,0,0-1.342.845,7.5,7.5,0,0,0-2.018,3.191v5.133a19.587,19.587,0,0,0,.225,3.979,1.573,1.573,0,0,0,.5.939,1.442,1.442,0,0,0,.7.15l.939-.084c.46,0,.685.178.685.535s-.4.685-1.22.685a8.011,8.011,0,0,1-1.474-.141,9.439,9.439,0,0,0-1.736-.14,10.4,10.4,0,0,0-1.793.14,8.658,8.658,0,0,1-1.492.132c-.816,0-1.22-.235-1.22-.685s.225-.535.685-.535l.939.085a1.435,1.435,0,0,0,.7-.151,1.074,1.074,0,0,0,.422-.685,17.808,17.808,0,0,0,.3-4.186v-5.583a6.822,6.822,0,0,0-.244-2.347,1.455,1.455,0,0,0-.563-.666,3.327,3.327,0,0,0-1.051-.282c-.478-.075-.723-.272-.723-.582s.319-.488.939-.61a12.075,12.075,0,0,0,3.041-.938,4.048,4.048,0,0,1,1.558-.667c.273,0,.414.141.414.432a1.438,1.438,0,0,1-.075.422,4.052,4.052,0,0,0-.179.536,11.582,11.582,0,0,0-.206,1.933,7.424,7.424,0,0,1,4.13-3.1,5.906,5.906,0,0,1,1.548-.226q4.35,0,5.369,3.857a7.612,7.612,0,0,1,4.354-3.576,6.075,6.075,0,0,1,5.913,1.295q1.483,1.577,1.483,4.918v5.143a19.631,19.631,0,0,0,.225,3.979,1.58,1.58,0,0,0,.5.939,1.446,1.446,0,0,0,.7.15l.939-.084c.46,0,.685.178.685.535s-.413.685-1.239.685A8.553,8.553,0,0,1,1399.533,795.8Zm33.054,0a10.2,10.2,0,0,0-1.727-.14,10.611,10.611,0,0,0-1.755.14,9.351,9.351,0,0,1-1.558.141c-.826,0-1.249-.235-1.249-.685s.234-.535.695-.535l.938.084a1.4,1.4,0,0,0,.7-.15,1.182,1.182,0,0,0,.45-.685,17.767,17.767,0,0,0,.291-4.186V785.5c0-3.529-1.276-5.293-3.857-5.293a4.741,4.741,0,0,0-4.242,2.459,7.819,7.819,0,0,0-.835,2.224v4.843a19.587,19.587,0,0,0,.226,3.979,1.63,1.63,0,0,0,.5.939,1.445,1.445,0,0,0,.7.15l.986-.084c.46,0,.685.178.685.535s-.4.685-1.22.685a8.453,8.453,0,0,1-1.492-.141,10.2,10.2,0,0,0-1.774-.14,10.832,10.832,0,0,0-1.811.14,9.064,9.064,0,0,1-1.5.132c-.817,0-1.22-.235-1.22-.685s.225-.535.685-.535l.939.085a1.441,1.441,0,0,0,.7-.151,1.08,1.08,0,0,0,.422-.685,17.847,17.847,0,0,0,.3-4.186v-5.583a6.439,6.439,0,0,0-.253-2.347,1.459,1.459,0,0,0-.6-.647,4.383,4.383,0,0,0-1.089-.3c-.5-.075-.751-.272-.751-.582s.32-.488.939-.61a13.23,13.23,0,0,0,3.191-.938,4.1,4.1,0,0,1,1.577-.667.377.377,0,0,1,.422.432,1.414,1.414,0,0,1-.075.422,9.141,9.141,0,0,0-.413,2.872,7.714,7.714,0,0,1,2.646-2.759,5.954,5.954,0,0,1,3.135-.939,7.634,7.634,0,0,1,2.619.394,4.569,4.569,0,0,1,1.877,1.182,6.994,6.994,0,0,1,1.511,4.965v5.068a19.6,19.6,0,0,0,.226,3.979,1.521,1.521,0,0,0,.5.939,1.446,1.446,0,0,0,.7.15l.938-.084c.451,0,.686.178.686.535s-.413.685-1.249.685A8.774,8.774,0,0,1,1432.588,795.8Zm10.342.282a3.584,3.584,0,0,1-2.984-1.37,5.881,5.881,0,0,1-1.08-3.754V780.348h-1.126c-.892,0-1.343-.225-1.343-.685s.253-.563.741-.685a3.1,3.1,0,0,0,1.286-.656,4.411,4.411,0,0,0,.882-1.08,7.035,7.035,0,0,0,.545-1.248c.141-.432.253-.826.366-1.183.272-.817.582-1.229.939-1.229s.591.357.591,1.061v4.186l5.218-.113c.253,0,.46.309.61.938a2.881,2.881,0,0,1,.028.32c0,.328-.2.5-.591.5l-5.275-.057v10.268c0,1.878.47,3.05,1.4,3.407a2.666,2.666,0,0,0,1,.169,2.723,2.723,0,0,0,1.051-.2,7.207,7.207,0,0,0,.845-.413c.244-.151.451-.291.629-.422a.8.8,0,0,1,.488-.188.519.519,0,0,1,.422.253.947.947,0,0,1,.179.526c0,.431-.545.938-1.643,1.548a6.335,6.335,0,0,1-2.929.718C1443.093,796.083,1443.011,796.081,1442.93,796.078Z" transform="translate(-1263.845 -753.676)"/><path class="c" d="M1406.91,773.948a1.669,1.669,0,0,1-.488-1.155,2.183,2.183,0,0,1,.169-.938,1.813,1.813,0,0,1,.422-.573,2.075,2.075,0,0,1,1.4-.5,1.764,1.764,0,0,1,1.874,1.647,1.611,1.611,0,0,1,0,.173l-.028-.019a1.849,1.849,0,0,1-1.962,1.887c-.035,0-.071,0-.106,0A1.819,1.819,0,0,1,1406.91,773.948Zm-3.013,21.294c0-.45.226-.535.686-.535l.938.085a1.44,1.44,0,0,0,.7-.151,1.167,1.167,0,0,0,.441-.685,17.633,17.633,0,0,0,.3-4.186v-5.621a6.412,6.412,0,0,0-.253-2.327,1.512,1.512,0,0,0-.563-.666,3.512,3.512,0,0,0-1.051-.282c-.488-.066-.723-.253-.723-.582s.319-.488.938-.629a11.833,11.833,0,0,0,3.041-.939,4.253,4.253,0,0,1,1.577-.647.375.375,0,0,1,.423.32.381.381,0,0,1,0,.112,1.4,1.4,0,0,1-.066.423,18.757,18.757,0,0,0-.431,5.04v5.762a18.582,18.582,0,0,0,.235,3.989,1.582,1.582,0,0,0,.507.882,1.437,1.437,0,0,0,.7.15l.938-.084c.461,0,.686.178.686.535s-.413.685-1.239.685a8.853,8.853,0,0,1-1.51-.14,10.1,10.1,0,0,0-1.737-.141,10.641,10.641,0,0,0-1.764.141,9.381,9.381,0,0,1-1.539.178C1404.311,795.928,1403.9,795.693,1403.9,795.242Zm-4.364.554a9.955,9.955,0,0,0-1.717-.14,10.5,10.5,0,0,0-1.746.14,9.013,9.013,0,0,1-1.53.141c-.826,0-1.239-.235-1.239-.685s.225-.535.686-.535l.938.084a1.446,1.446,0,0,0,.7-.15,1.171,1.171,0,0,0,.441-.685,17.663,17.663,0,0,0,.3-4.186V785.5q0-4.055-2.187-4.946a4.124,4.124,0,0,0-3.022,0,4.4,4.4,0,0,0-1.323.844,7.412,7.412,0,0,0-2.037,3.191v5.143a19.6,19.6,0,0,0,.226,3.979,1.577,1.577,0,0,0,.5.939,1.442,1.442,0,0,0,.7.15l.939-.084c.46,0,.685.178.685.535s-.413.685-1.239.685a8.553,8.553,0,0,1-1.5-.141,9.951,9.951,0,0,0-1.717-.14,10.5,10.5,0,0,0-1.746.14,9.026,9.026,0,0,1-1.53.141c-.826,0-1.238-.235-1.238-.685s.225-.535.685-.535l.939.084a1.446,1.446,0,0,0,.7-.15,1.22,1.22,0,0,0,.441-.685,17.607,17.607,0,0,0,.272-4.233V785.5q0-4.055-2.168-4.946a4.218,4.218,0,0,0-1.53-.282,4.009,4.009,0,0,0-1.511.291,4.6,4.6,0,0,0-1.342.845,7.5,7.5,0,0,0-2.018,3.191v5.133a19.587,19.587,0,0,0,.225,3.979,1.573,1.573,0,0,0,.5.939,1.442,1.442,0,0,0,.7.15l.939-.084c.46,0,.685.178.685.535s-.4.685-1.22.685a8.011,8.011,0,0,1-1.474-.141,9.439,9.439,0,0,0-1.736-.14,10.4,10.4,0,0,0-1.793.14,8.658,8.658,0,0,1-1.492.132c-.816,0-1.22-.235-1.22-.685s.225-.535.685-.535l.939.085a1.435,1.435,0,0,0,.7-.151,1.074,1.074,0,0,0,.422-.685,17.808,17.808,0,0,0,.3-4.186v-5.583a6.822,6.822,0,0,0-.244-2.347,1.455,1.455,0,0,0-.563-.666,3.327,3.327,0,0,0-1.051-.282c-.478-.075-.723-.272-.723-.582s.319-.488.939-.61a12.075,12.075,0,0,0,3.041-.938,4.048,4.048,0,0,1,1.558-.667c.273,0,.414.141.414.432a1.438,1.438,0,0,1-.075.422,4.052,4.052,0,0,0-.179.536,11.582,11.582,0,0,0-.206,1.933,7.424,7.424,0,0,1,4.13-3.1,5.906,5.906,0,0,1,1.548-.226q4.35,0,5.369,3.857a7.612,7.612,0,0,1,4.354-3.576,6.075,6.075,0,0,1,5.913,1.295q1.483,1.577,1.483,4.918v5.143a19.631,19.631,0,0,0,.225,3.979,1.58,1.58,0,0,0,.5.939,1.446,1.446,0,0,0,.7.15l.939-.084c.46,0,.685.178.685.535s-.413.685-1.239.685A8.553,8.553,0,0,1,1399.533,795.8Zm33.054,0a10.2,10.2,0,0,0-1.727-.14,10.611,10.611,0,0,0-1.755.14,9.351,9.351,0,0,1-1.558.141c-.826,0-1.249-.235-1.249-.685s.234-.535.695-.535l.938.084a1.4,1.4,0,0,0,.7-.15,1.182,1.182,0,0,0,.45-.685,17.767,17.767,0,0,0,.291-4.186V785.5c0-3.529-1.276-5.293-3.857-5.293a4.741,4.741,0,0,0-4.242,2.459,7.819,7.819,0,0,0-.835,2.224v4.843a19.587,19.587,0,0,0,.226,3.979,1.63,1.63,0,0,0,.5.939,1.445,1.445,0,0,0,.7.15l.986-.084c.46,0,.685.178.685.535s-.4.685-1.22.685a8.453,8.453,0,0,1-1.492-.141,10.2,10.2,0,0,0-1.774-.14,10.832,10.832,0,0,0-1.811.14,9.064,9.064,0,0,1-1.5.132c-.817,0-1.22-.235-1.22-.685s.225-.535.685-.535l.939.085a1.441,1.441,0,0,0,.7-.151,1.08,1.08,0,0,0,.422-.685,17.847,17.847,0,0,0,.3-4.186v-5.583a6.439,6.439,0,0,0-.253-2.347,1.459,1.459,0,0,0-.6-.647,4.383,4.383,0,0,0-1.089-.3c-.5-.075-.751-.272-.751-.582s.32-.488.939-.61a13.23,13.23,0,0,0,3.191-.938,4.1,4.1,0,0,1,1.577-.667.377.377,0,0,1,.422.432,1.414,1.414,0,0,1-.075.422,9.141,9.141,0,0,0-.413,2.872,7.714,7.714,0,0,1,2.646-2.759,5.954,5.954,0,0,1,3.135-.939,7.634,7.634,0,0,1,2.619.394,4.569,4.569,0,0,1,1.877,1.182,6.994,6.994,0,0,1,1.511,4.965v5.068a19.6,19.6,0,0,0,.226,3.979,1.521,1.521,0,0,0,.5.939,1.446,1.446,0,0,0,.7.15l.938-.084c.451,0,.686.178.686.535s-.413.685-1.249.685A8.774,8.774,0,0,1,1432.588,795.8Zm10.342.282a3.584,3.584,0,0,1-2.984-1.37,5.881,5.881,0,0,1-1.08-3.754V780.348h-1.126c-.892,0-1.343-.225-1.343-.685s.253-.563.741-.685a3.1,3.1,0,0,0,1.286-.656,4.411,4.411,0,0,0,.882-1.08,7.035,7.035,0,0,0,.545-1.248c.141-.432.253-.826.366-1.183.272-.817.582-1.229.939-1.229s.591.357.591,1.061v4.186l5.218-.113c.253,0,.46.309.61.938a2.881,2.881,0,0,1,.028.32c0,.328-.2.5-.591.5l-5.275-.057v10.268c0,1.878.47,3.05,1.4,3.407a2.666,2.666,0,0,0,1,.169,2.723,2.723,0,0,0,1.051-.2,7.207,7.207,0,0,0,.845-.413c.244-.151.451-.291.629-.422a.8.8,0,0,1,.488-.188.519.519,0,0,1,.422.253.947.947,0,0,1,.179.526c0,.431-.545.938-1.643,1.548a6.335,6.335,0,0,1-2.929.718C1443.093,796.083,1443.011,796.081,1442.93,796.078Z" transform="translate(-1263.845 -753.676)"/></g></svg>