<svg xmlns="http://www.w3.org/2000/svg" xmlns:xlink="http://www.w3.org/1999/xlink" width="134" height="135" viewBox="0 0 134 135"><defs><style>.a{fill:#56e65b;}.b{fill:#fff;}.c{filter:url(#a);}</style><filter id="a" x="0" y="0" width="134" height="135" filterUnits="userSpaceOnUse"><feOffset input="SourceAlpha"/><feGaussianBlur stdDeviation="7.5" result="b"/><feFlood flood-opacity="0.161"/><feComposite operator="in" in2="b"/><feComposite in="SourceGraphic"/></filter></defs><g transform="translate(-1369.5 -1505.5)"><g class="c" transform="matrix(1, 0, 0, 1, 1369.5, 1505.5)"><ellipse class="a" cx="44.5" cy="45" rx="44.5" ry="45" transform="translate(22.5 22.5)"/></g><g transform="translate(1418.75 1554.749)"><path class="b" d="M2.25,31.5h31.5v2.25H2.25Z"/><path class="b" d="M30.375,12.375A1.125,1.125,0,0,0,31.5,11.25V7.875a1.125,1.125,0,0,0-.743-1.057l-12.375-4.5a1.125,1.125,0,0,0-.765,0L5.242,6.818A1.125,1.125,0,0,0,4.5,7.875V11.25a1.125,1.125,0,0,0,1.125,1.125H6.75V27H4.5v2.25h27V27H29.25V12.375ZM6.75,8.662,18,4.567,29.25,8.662v1.463H6.75ZM20.25,27h-4.5V12.375h4.5ZM9,12.375h4.5V27H9ZM27,27H22.5V12.375H27Z"/></g></g></svg>