<svg xmlns="http://www.w3.org/2000/svg" xmlns:xlink="http://www.w3.org/1999/xlink" width="135" height="135" viewBox="0 0 135 135"><defs><style>.a{fill:#cb4bf8;}.b{fill:#fff;}.c{filter:url(#a);}</style><filter id="a" x="0" y="0" width="135" height="135" filterUnits="userSpaceOnUse"><feOffset input="SourceAlpha"/><feGaussianBlur stdDeviation="7.5" result="b"/><feFlood flood-opacity="0.161"/><feComposite operator="in" in2="b"/><feComposite in="SourceGraphic"/></filter></defs><g transform="translate(-961.5 -1505.5)"><g class="c" transform="matrix(1, 0, 0, 1, 961.5, 1505.5)"><circle class="a" cx="45" cy="45" r="45" transform="translate(22.5 22.5)"/></g><path class="b" d="M35.457,22.356A17.991,17.991,0,1,1,22.35.537,17.988,17.988,0,0,1,35.457,22.356Zm-9.525-6.92c.36-2.385-1.461-3.675-3.96-4.545l.81-3.229L20.81,7.167l-.788,3.161c-.517-.131-1.057-.251-1.6-.375l.789-3.19-1.98-.495-.81,3.248c-.427-.1-.847-.2-1.26-.3l-2.723-.675-.525,2.111s1.462.338,1.432.354a1.054,1.054,0,0,1,.922,1.149l-2.216,8.88a.74.74,0,0,1-.921.471c.022.03-1.44-.36-1.44-.36L8.7,23.411l2.565.639,1.4.363-.81,3.285,1.98.491.81-3.255c.54.15,1.057.285,1.575.41l-.765,3.231,1.98.5.818-3.285c3.36.64,5.9.386,6.96-2.661.855-2.455-.045-3.87-1.826-4.794a3.153,3.153,0,0,0,2.52-2.9h.015Zm-4.515,6.33c-.606,2.46-4.736,1.125-6.075.8l1.08-4.35c1.344.345,5.636,1,5,3.555Zm.615-6.36c-.555,2.235-3.993,1.1-5.107.825l.981-3.96c1.116.27,4.7.786,4.125,3.126v.009Z" transform="translate(1010.998 1555.001)"/></g></svg>