<svg xmlns="http://www.w3.org/2000/svg" width="192.441" height="38.95" viewBox="0 0 192.441 38.95"><defs><style>.a{fill:#fff;}.b{fill:#df2127;}</style></defs><g transform="translate(0)"><path d="M936.807,1014.394h-1.031c-1.007,0-1.449.295-2.112,1.4l-5.5,8.915-2.284-8.817c-.27-1.056-.565-1.474-1.719-1.474H923.3a2,2,0,0,0-2.063,1.842l-2.554,14.342c-.2,1.081.295,1.646,1.228,1.646h.393c.982,0,1.424-.491,1.6-1.547l2.063-11.592,1.989,7.76c.172.786.32,1.3,1.818,1.3a1.9,1.9,0,0,0,1.989-1.154l4.863-7.982-2.063,11.592c-.2,1.105.295,1.646,1.2,1.646h.418c.982,0,1.424-.516,1.6-1.547l2.529-14.44A1.417,1.417,0,0,0,936.807,1014.394Z" transform="translate(-872.832 -1005.455)"/><path d="M954.882,1032.021a3.5,3.5,0,0,1-3.56-3.659c-.1-2.726,1.694-5.133,4.248-5.133a3.627,3.627,0,0,1,3.585,3.684C959.229,1029.786,957.437,1032.021,954.882,1032.021Zm7.172-5.256c-.123-3.487-2.481-6.041-6.459-6.041-4.544,0-7.318,3.708-7.2,7.76a6.046,6.046,0,0,0,6.459,6.09C959.523,1034.55,962.176,1030.817,962.053,1026.765Z" transform="translate(-882.729 -1007.561)"/><path d="M979.451,1020.724a5.069,5.069,0,0,0-4.4,2.5c.1-1.792-.884-2.308-1.891-2.308a1.68,1.68,0,0,0-.86.172l-2.063,11.665c-.2,1.2.467,1.547,1.351,1.547h.368c.958,0,1.351-.393,1.547-1.547l1.228-7c.884-1.547,1.867-2.284,3.389-2.284a2.258,2.258,0,0,1,2.456,2.407,9.256,9.256,0,0,1-.147,1.474l-.958,5.4c-.2,1.2.491,1.547,1.351,1.547h.368c.958,0,1.351-.393,1.548-1.547l1.056-5.968a8.045,8.045,0,0,0,.172-1.793A4.2,4.2,0,0,0,979.451,1020.724Z" transform="translate(-889.984 -1007.561)"/><path d="M1066.973,1020.724a3.811,3.811,0,0,0-3.488,2.5c.123-1.792-.86-2.308-1.867-2.308a1.6,1.6,0,0,0-.86.172l-2.087,11.665c-.2,1.2.589,1.547,1.473,1.547h.368c.836,0,1.228-.393,1.449-1.547l.687-3.9c.516-3.045,1.645-5.157,3.463-5.157a2.305,2.305,0,0,1,1.817.786,2.04,2.04,0,0,0,1.375-2.112C1069.232,1021.362,1068.224,1020.724,1066.973,1020.724Z" transform="translate(-919.4 -1007.561)"/><path d="M1080.343,1032.008c-2.014,0-3.168-1.277-3.168-3.536,0-2.652,1.548-5.3,4.421-5.3,2.333,0,3.315,1.719,3.315,3.61C1084.911,1029.16,1083.29,1032.008,1080.343,1032.008Zm7.662-11.1c-1.277,0-1.989.614-2.406,2.235a4.881,4.881,0,0,0-4.421-2.456c-4.126,0-7,3.684-7,7.859,0,3.438,2.112,5.992,5.452,5.992a5.033,5.033,0,0,0,4.617-2.53c-.147,1.769.2,2.308,1.474,2.308,1.13,0,1.5-.417,1.621-1.67.148-2.308.933-6.066,1.842-11.346A1.552,1.552,0,0,0,1088,1020.908Z" transform="translate(-924.568 -1007.549)"/><path d="M1115.322,1020.724a5.422,5.422,0,0,0-4.814,2.848,3.956,3.956,0,0,0-4.027-2.848,4.98,4.98,0,0,0-4.249,2.357c.049-1.645-.908-2.136-1.891-2.136a1.606,1.606,0,0,0-.86.172l-2.063,11.666c-.2,1.2.466,1.547,1.351,1.547h.368c.835,0,1.351-.344,1.547-1.547l1.277-7.245c.934-1.449,1.818-2.063,3.193-2.063,1.351,0,2.186,1.007,2.186,2.529a4.943,4.943,0,0,1-.073.811l-1.032,5.968c-.2,1.2.491,1.547,1.351,1.547h.344c.835,0,1.375-.368,1.572-1.547l1.277-7.245c.934-1.449,1.817-2.063,3.193-2.063a2.146,2.146,0,0,1,2.26,2.407,9.744,9.744,0,0,1-.172,1.474l-.958,5.4c-.2,1.2.466,1.547,1.351,1.547h.369c.958,0,1.351-.393,1.547-1.547l1.056-5.968a9.791,9.791,0,0,0,.172-1.793A4.009,4.009,0,0,0,1115.322,1020.724Z" transform="translate(-932.287 -1007.561)"/><path d="M1003.561,1026.126H996.12a4.6,4.6,0,0,1,4.445-3.07,3.117,3.117,0,0,1,2.407.884A2.974,2.974,0,0,1,1003.561,1026.126Zm2.874.418a6.2,6.2,0,0,0-1.179-4.077,5.589,5.589,0,0,0-4.445-1.817c-5.8,0-7.884,4.273-7.884,7.982,0,3.536,2.554,5.894,6.484,5.894s6.14-1.743,6.14-3.143c0-.933-.663-1.253-1.425-1.326a5.173,5.173,0,0,1-4.4,1.965,3.528,3.528,0,0,1-3.9-3.733h8.915A1.552,1.552,0,0,0,1006.435,1026.544Z" transform="translate(-897.541 -1007.536)"/><path d="M1040.995,1022.549h-5.3a1.454,1.454,0,0,0-1.13.344,2.709,2.709,0,0,0-.491,1.474c.025.54.491.859,1.351.859h3.758c-.516,2.628-2.186,4.445-5.059,4.445-3.02,0-5.035-1.915-5.157-5.182-.148-4.1,2.579-7.49,6.435-7.49a5.059,5.059,0,0,1,4.74,2.8c.1.123,2.186.123,2.112-1.67a3.1,3.1,0,0,0-1.08-2.038,8.494,8.494,0,0,0-5.968-2.063,9.448,9.448,0,0,0-8.546,5.231.024.024,0,0,0-.025-.025,1.676,1.676,0,0,0-1.351-.614c-.86,0-1.424.27-2.259,1.744l-4.126,7.244-1.548-7.22c-.294-1.35-.786-1.768-1.645-1.768a2.1,2.1,0,0,0-1.793.908l2.947,11.666-3.046,5.01c-.319.54-.344,1.253.811,1.253h.639c1.2,0,1.6-.737,2.186-1.744l8.3-14.047a10.87,10.87,0,0,0-.32,3.119c.147,4.716,3.34,7.564,8.006,7.564a6.123,6.123,0,0,0,4.961-2.112c-.073,1.375.663,1.915,1.645,1.915.541,0,.934-.172.934-.27l1.351-7.564Q1042.652,1022.549,1040.995,1022.549Z" transform="translate(-904.424 -1005.333)"/><path d="M1134.956,1037.444c.319,0,.491-.172.466-.443,0-.2-.147-.319-.418-.319h-.368l-.147.737h.466Zm.319.663c.1.172.172.246.3.246,0,0,.025.2-.221.2-.147,0-.245-.073-.393-.344l-.27-.491h-.245l-.123.688a.162.162,0,0,1-.172.147h-.049c-.1,0-.148-.049-.123-.172l.344-1.769a.2.2,0,0,1,.221-.172h.516c.467,0,.737.2.737.54a.689.689,0,0,1-.737.712Z" transform="translate(-944.456 -1012.787)"/><path d="M1134.334,1035.149a2.014,2.014,0,1,0,2.014,2.013A2.022,2.022,0,0,0,1134.334,1035.149Zm0,.294a1.719,1.719,0,1,1-1.719,1.719,1.724,1.724,0,0,1,1.719-1.719" transform="translate(-943.908 -1012.359)"/><path class="a" d="M869.475,1001q.957,0,1.909.094t1.89.28q.939.186,1.854.464t1.8.643q.884.366,1.727.818t1.64.982q.795.532,1.535,1.139t1.416,1.283q.677.677,1.283,1.416t1.139,1.535q.532.8.982,1.639t.818,1.728q.365.884.643,1.8t.464,1.853q.187.939.28,1.891t.094,1.909q0,.957-.094,1.909t-.28,1.89q-.186.939-.464,1.854t-.643,1.8q-.366.884-.818,1.727t-.982,1.64q-.532.795-1.139,1.535t-1.283,1.416q-.677.677-1.416,1.283t-1.535,1.138q-.8.532-1.64.982t-1.727.817q-.884.366-1.8.644t-1.854.464q-.938.187-1.89.281t-1.909.094q-.956,0-1.909-.094t-1.891-.281q-.938-.186-1.853-.464t-1.8-.644q-.884-.365-1.728-.817t-1.639-.982q-.8-.532-1.535-1.138t-1.416-1.283q-.677-.677-1.283-1.416t-1.139-1.535q-.532-.8-.982-1.64t-.818-1.727q-.365-.884-.643-1.8t-.464-1.854q-.187-.938-.28-1.89t-.094-1.909q0-.956.094-1.909t.28-1.891q.186-.938.464-1.853t.643-1.8q.366-.884.818-1.728t.982-1.639q.532-.8,1.139-1.535t1.283-1.416q.677-.677,1.416-1.283t1.535-1.139q.8-.532,1.639-.982t1.728-.818q.884-.365,1.8-.643t1.853-.464q.939-.187,1.891-.28T869.475,1001Z" transform="translate(-850 -1001)"/><path class="b" d="M888.95,1020.474a19.475,19.475,0,1,1-37.108-8.276,15.936,15.936,0,0,0-1.154,5.82c0,8.817,7.122,10.094,10.143,10.069,4.617-.049,10-2.308,14.538-6.484,0,0-.589,3.291-.761,4.3a1.492,1.492,0,0,0,1.449,1.842h.393a2.048,2.048,0,0,0,1.915-1.842l1.646-9.185a1.473,1.473,0,0,0-1.5-1.842h-9.185a2,2,0,0,0-2.136,1.572c0,.049-.074.344-.074.418a1.455,1.455,0,0,0,1.523,1.719h4.788l-.221.221c-3.315,3.119-7.417,4.838-10.805,4.838-3.365,0-7.147-2.136-7.147-6.925,0-9.946,9.333-15.717,14.22-15.717A19.489,19.489,0,0,1,888.95,1020.474Z" transform="translate(-850 -1001)"/></g></svg>