<svg xmlns="http://www.w3.org/2000/svg" width="128.607" height="52.75" viewBox="0 0 128.607 52.75"><defs><style>.a{fill:#789f32;}.b{fill:#1b3e90;}</style></defs><g transform="translate(0)"><path class="a" d="M191.944,1033.648a65.869,65.869,0,0,1-14.932,11.593,15.984,15.984,0,0,1-6.367,2.032c-3.152.259-4.814-1.343-4.625-4.475a16.8,16.8,0,0,1,1.239-4.965,122.393,122.393,0,0,1,11.2-21.482,10.962,10.962,0,0,0,.779-1.382c.181-.409.493-.871.048-1.3a1.094,1.094,0,0,0-1.172-.143c-2.222.7-4.286,1.582-5.653,3.681a170.74,170.74,0,0,0-10.988,19.006,26.519,26.519,0,0,0-2.328,6.293c-.72,3.628,1.294,6.556,4.928,7.01a17.2,17.2,0,0,0,5.649-.16,25.343,25.343,0,0,0,5.717-1.844c7.394-3.491,13.169-9.026,18.954-14.745C193.051,1032.161,192.544,1033.047,191.944,1033.648Z" transform="translate(-159 -996.92)"/><path class="a" d="M307.546,998.158a27.366,27.366,0,0,0-7.591-6.32c-9.834-5.5-20.427-6.909-31.38-5.084-9.356,1.559-17.32,6.277-25.006,12.391,1.749.069,1.727.038,2.967-.82,8.689-6.01,17.886-10.628,28.845-10.143,9.54.424,18.273,3.144,25.426,9.729a7.029,7.029,0,0,0,6.186,1.695C308.084,999.473,308.318,999.073,307.546,998.158Z" transform="translate(-192.678 -986)"/><path class="a" d="M177.216,1050.942a37.452,37.452,0,0,1,3.543-8.844c.357-.668,1.382-1.557.68-2.111-.883-.7-1.831.289-2.626.874a2.044,2.044,0,0,0-.574.666,34.2,34.2,0,0,0-3.875,10.21c-.529,3.086.78,4.434,3.848,3.914,5.119-.868,9.136-3.779,12.734-7.375-.652.458-1.307.913-1.956,1.375a26.661,26.661,0,0,1-8.663,4.318C177.667,1054.665,176.575,1053.591,177.216,1050.942Z" transform="translate(-165.072 -1007.404)"/><path class="a" d="M200.249,989.707a5.39,5.39,0,0,1,3.569-2.739c-1.258,1.209-2.354,1.929-2.74,3.211a.408.408,0,0,1-.67.264C200.107,990.27,200.079,990.022,200.249,989.707Zm1.219,5.128c2.571-.357,5.1-3.352,5.078-6.138.076-1.449-.71-2.107-2.25-2.1-2.8.017-5.345,2.744-5.438,5.888C198.8,994.319,199.656,995.087,201.467,994.836Z" transform="translate(-174.871 -986.239)"/><path class="a" d="M302.819,992.238c7.6,1.917,10.946,3.532,17.1,8.348a2.366,2.366,0,0,0,2.768.6C317.153,995.494,310.239,993.352,302.819,992.238Z" transform="translate(-216.273 -988.484)"/><path class="b" d="M218.068,1019.881a6.744,6.744,0,0,1-2.233,5.114,7.516,7.516,0,0,1-5.323,2.093,7.667,7.667,0,0,1-5.289-2,6.391,6.391,0,0,1-2.237-4.958h4.5a2.568,2.568,0,0,0,.945,2.1,3.455,3.455,0,0,0,2.3.767,3.055,3.055,0,0,0,2.137-.834,2.61,2.61,0,0,0,.884-2.029,3.076,3.076,0,0,0-1.291-2.615,9.689,9.689,0,0,0-2.768-1.232q-1.544-.5-2.144-.766a6.268,6.268,0,0,1-3.213-3.362,6.152,6.152,0,0,1-.5-2.369,6.076,6.076,0,0,1,2.014-4.625,7.168,7.168,0,0,1,9.631.031,6.1,6.1,0,0,1,2.022,4.6h-4.443a2.237,2.237,0,0,0-.753-1.729,2.854,2.854,0,0,0-1.861-.646,2.164,2.164,0,0,0-1.667.68,2.436,2.436,0,0,0-.631,1.725,2.267,2.267,0,0,0,.945,1.849,6.649,6.649,0,0,0,1.983.954q2.106.706,2.39.826a8.6,8.6,0,0,1,2.145,1.263A6.207,6.207,0,0,1,218.068,1019.881Z" transform="translate(-176.516 -992.896)"/><path class="b" d="M238.357,1013.388h-2.521v13.428h-4.189v-13.428H229.6v-3.661h2.045v-5.7h4.189v5.7h2.521Z" transform="translate(-187.116 -993.179)"/><path class="b" d="M255.176,1016.573a4.111,4.111,0,0,0-2.545.8,2.516,2.516,0,0,0-.976,1.444,8.732,8.732,0,0,0-.223,2.187v9.21h-4.189V1013.13h3.813v1.541a4.93,4.93,0,0,1,1.637-1.6,4.479,4.479,0,0,1,2.168-.5h.315Z" transform="translate(-194.141 -996.582)"/><path class="b" d="M274.908,1019.874a4.653,4.653,0,0,0-1.8-2.406,5.233,5.233,0,0,0-2.961-.858,5.387,5.387,0,0,0-2.961.888,4.469,4.469,0,0,0-1.892,2.376Zm4.245,1.692a6.763,6.763,0,0,1-.093,1.045q-.092.586-.123.894H265.357a4.535,4.535,0,0,0,1.738,2.377,4.83,4.83,0,0,0,2.861.893,5.034,5.034,0,0,0,3.907-1.477h4.668a7.757,7.757,0,0,1-3.215,3.877,9.287,9.287,0,0,1-5.2,1.6,9.01,9.01,0,0,1-6.491-2.616,8.513,8.513,0,0,1-2.707-6.346,9.2,9.2,0,0,1,9.259-9.24,8.622,8.622,0,0,1,6.359,2.677A8.754,8.754,0,0,1,279.153,1021.565Z" transform="translate(-199.588 -996.582)"/><path class="b" d="M307.979,1021.659a5.045,5.045,0,0,0-1.383-3.634,4.958,4.958,0,0,0-3.652-1.415,5.05,5.05,0,0,0-3.782,1.479,5.152,5.152,0,0,0-1.445,3.757,4.638,4.638,0,0,0,1.506,3.514,5.158,5.158,0,0,0,3.652,1.415,4.95,4.95,0,0,0,3.69-1.445A5.048,5.048,0,0,0,307.979,1021.659Zm4,8.56H308.1v-2.3a6.7,6.7,0,0,1-2.614,2.086,7.936,7.936,0,0,1-3.367.773,8.358,8.358,0,0,1-3.62-.775,7.925,7.925,0,0,1-2.8-2.09,9.279,9.279,0,0,1-2.175-6.225,9.682,9.682,0,0,1,.538-3.323,7.989,7.989,0,0,1,1.7-2.8,8.213,8.213,0,0,1,6.48-2.985,6.819,6.819,0,0,1,5.858,2.985v-2.428h3.874Z" transform="translate(-212.573 -996.582)"/><path class="b" d="M355.379,1030.219h-4.19v-9.082a16.314,16.314,0,0,0-.092-1.94,3,3,0,0,0-.507-1.323,2.776,2.776,0,0,0-1.13-.924,3.665,3.665,0,0,0-1.514-.339,3.186,3.186,0,0,0-2.89,1.474,3.606,3.606,0,0,0-.508,1.511,11.282,11.282,0,0,0-.153,1.85v8.774h-4.22v-9.488a9.376,9.376,0,0,0-.1-1.534,3.533,3.533,0,0,0-.565-1.2,3.026,3.026,0,0,0-1.2-1.015,3.482,3.482,0,0,0-1.545-.369,2.906,2.906,0,0,0-2.959,1.812,10.783,10.783,0,0,0-.438,3.67v8.127h-4.19V1013.13h3.843v1.571a3.623,3.623,0,0,1,1.891-1.6,7.257,7.257,0,0,1,2.706-.527,5.636,5.636,0,0,1,4.658,2.128l.407.549.446-.549a5.768,5.768,0,0,1,2.3-1.6,7.729,7.729,0,0,1,2.828-.527,8.46,8.46,0,0,1,2.99.5,5.956,5.956,0,0,1,2.368,1.631,6.5,6.5,0,0,1,1.445,2.767,13.392,13.392,0,0,1,.315,3.173Z" transform="translate(-226.772 -996.582)"/></g></svg>