<svg xmlns="http://www.w3.org/2000/svg" xmlns:xlink="http://www.w3.org/1999/xlink" width="175.871" height="32.913" viewBox="0 0 175.871 32.913"><defs><style>.a,.b,.c,.d{fill-rule:evenodd;}.a{fill:url(#a);}.b{fill:url(#b);}.d{fill:url(#c);}.e{fill:#fff;}</style><linearGradient id="a" x1="0.1" y1="4.479" x2="0.1" y2="5.479" gradientUnits="objectBoundingBox"><stop offset="0" stop-color="#e91920"/><stop offset="0.01" stop-color="#e91920"/><stop offset="0.167" stop-color="#d61f2b"/><stop offset="0.467" stop-color="#b82a3e"/><stop offset="0.725" stop-color="#a53149"/><stop offset="0.906" stop-color="#9f344e"/><stop offset="1" stop-color="#9f344e"/></linearGradient><linearGradient id="b" x1="0.106" y1="7.716" x2="0.106" y2="8.716" gradientUnits="objectBoundingBox"><stop offset="0" stop-color="#ec9895"/><stop offset="0.517" stop-color="#ec9895"/><stop offset="0.579" stop-color="#ed9e9b"/><stop offset="0.666" stop-color="#f0b0ae"/><stop offset="0.768" stop-color="#f5cdcc"/><stop offset="0.881" stop-color="#fdf6f6"/><stop offset="0.901" stop-color="#fff"/><stop offset="1" stop-color="#fff"/></linearGradient><linearGradient id="c" x1="0.2" y1="12.304" x2="0.2" y2="13.304" gradientUnits="objectBoundingBox"><stop offset="0" stop-color="#ec9895"/><stop offset="0.005" stop-color="#ec9895"/><stop offset="0.144" stop-color="#ed9e9b"/><stop offset="0.34" stop-color="#f0b0ae"/><stop offset="0.57" stop-color="#f5cdcc"/><stop offset="0.825" stop-color="#fdf6f6"/><stop offset="0.872" stop-color="#fff"/><stop offset="1" stop-color="#fff"/></linearGradient></defs><g transform="translate(0)"><path class="a" d="M236.028,776.3l-.666,2.3h-6.847l5.421-18.679A16.421,16.421,0,0,0,221.3,754h-93.84a16.456,16.456,0,1,0,0,32.913H221.3a16.458,16.458,0,0,0,15.287-10.366A3.389,3.389,0,0,1,236.028,776.3Z" transform="translate(-111 -754)"/><path class="b" d="M234.295,761.667a15.747,15.747,0,0,0-12.486-6.117H128.284a15.676,15.676,0,0,0-15.735,15.616,15.5,15.5,0,0,0,.7,4.608,14.828,14.828,0,0,1,14.533-11.695H222.82a14.848,14.848,0,0,1,9.726,3.612Z" transform="translate(-111.67 -754.67)"/><path class="c" d="M330.669,768.084q-.016-.289-.472-.289a.755.755,0,0,0-.67.334,7.223,7.223,0,0,0-.6,1.612l-1.775,6.116a6.292,6.292,0,0,0-.351,1.668q.037.333.482.333a.689.689,0,0,0,.628-.306,7.3,7.3,0,0,0,.536-1.485l1.837-6.327A8.031,8.031,0,0,0,330.669,768.084Zm2.369,7.662a14.358,14.358,0,0,1-1.07,2.863,3.6,3.6,0,0,1-1.372,1.357,3.827,3.827,0,0,1-1.932.506,2.567,2.567,0,0,1-1.432-.39,2.746,2.746,0,0,1-.964-1.159l-.982,3.383h-4.493l4.893-16.858h4.57l-.456,1.3a6.322,6.322,0,0,1,1.666-1.181,3.967,3.967,0,0,1,1.692-.39,2.307,2.307,0,0,1,1.644.562,1.65,1.65,0,0,1,.575,1.3,11.928,11.928,0,0,1-.534,2.491Zm5.885-1.234a6.487,6.487,0,0,0-.617,1.535,4.566,4.566,0,0,0-.279,1.479q.053.333.5.333a.746.746,0,0,0,.626-.261,5.18,5.18,0,0,0,.527-1.373l.881-3.036A5.1,5.1,0,0,0,338.923,774.512Zm6.241-1.713-2.15,7.406h-4.371l.382-1.315a4.467,4.467,0,0,1-1.406,1.186,3.575,3.575,0,0,1-1.666.4,2.971,2.971,0,0,1-1.971-.661q-.792-.661-.144-2.9l.352-1.212a4.729,4.729,0,0,1,1.178-2.258,10.485,10.485,0,0,1,3-1.4,10.375,10.375,0,0,0,2.707-1.167,3.893,3.893,0,0,0,.511-1.224,4.173,4.173,0,0,0,.265-1.507.42.42,0,0,0-.471-.35.727.727,0,0,0-.652.295,7.208,7.208,0,0,0-.555,1.529l-.449,1.545h-4.215l.287-.99a8.838,8.838,0,0,1,1.162-2.64,5.586,5.586,0,0,1,2.06-1.641,7.188,7.188,0,0,1,3.3-.711,4.9,4.9,0,0,1,3.2.806,2.236,2.236,0,0,1,.816,1.979A33.513,33.513,0,0,1,345.164,772.8Zm-3.323,12.42c0,.5.209.5,1.633.5s1.759-2.009,1.759-2.009l.036.007c.041-.28.123-.837.264-1.836C343.735,783.056,341.84,784.777,341.84,785.219ZM376.135,771.4s-1.269-.283-3.266-.5c-5.019-.553-13.463,3.307-19.538,6.534l-3.074,7.787-.046-.011c-1.662,3.318-4.466,2.775-5.356,2.775h-5.4c-1.089,0-1.759-.374-1.759-1.256,0-1.683,3.5-4.114,8.122-6.852.014-.1.028-.2.043-.309.79-5.633,1.864-14.117,1.864-14.117H351.8l-1.293,10.474L354,765.449h4.064l-3.79,9.6q.443-.252.883-.505c15.156-8.716,22.487-7.412,22.487-7.412Z" transform="translate(-201.771 -758.838)"/><path class="d" d="M129.255,805.185h99.493a15.316,15.316,0,0,0,7.565-1.986,15.329,15.329,0,0,1-10.2,3.87H131.892a15.329,15.329,0,0,1-10.2-3.87A15.318,15.318,0,0,0,129.255,805.185Z" transform="translate(-115.625 -775.287)"/><path class="e" d="M139.229,776.809c-.378,1.606-1.233,2.759-2.712,2.759-2.143,0-2.383-2.309-2.331-3.789.089-2.534,1.156-6.047,3.771-6.047,1.457,0,2.132.928,2.008,2.634h4.458c.083-5.37-2.836-7.1-6.287-7.1-5.209,0-8.465,4.818-8.669,10.614-.169,4.792,1.856,8.154,6.293,8.154,6.345,0,7.778-5.394,8.1-7.225Z" transform="translate(-118.985 -758.875)"/><path class="e" d="M287.1,779.437h-3.773c.37-1.4,1.148-2.182,2.285-2.182a1.5,1.5,0,0,1,1.545,1.756A3.706,3.706,0,0,1,287.1,779.437Zm-11.9,0h-3.772c.371-1.4,1.148-2.182,2.285-2.182a1.5,1.5,0,0,1,1.545,1.756A3.611,3.611,0,0,1,275.2,779.437Zm15.9.326c.144-4.09-2.779-5.7-5.244-5.7a6.9,6.9,0,0,0-6.657,5.718v-.022c.144-4.09-2.778-5.7-5.244-5.7a6.7,6.7,0,0,0-5.45,2.909l.585-2.708a3.491,3.491,0,0,0-1.493-.2,4.469,4.469,0,0,0-3.32,2.359h-.043l.436-2.033h-4.115L257.8,787.417h4.244l1.156-5.445c.61-2.71,1.522-3.638,3.322-3.638a4.2,4.2,0,0,1,1.175.167,10.37,10.37,0,0,0-.69,3.5c-.112,3.162,1.384,5.746,5.328,5.746,4.823,0,5.73-3.237,6.061-4.115h-4.072a1.812,1.812,0,0,1-1.7.929c-1.308,0-1.7-1.155-1.647-2.534H278.9l0-.018c-.109,3.158,1.387,5.739,5.328,5.739,4.823,0,5.729-3.237,6.061-4.115h-4.073a1.81,1.81,0,0,1-1.7.929c-1.308,0-1.7-1.155-1.647-2.534H290.8A9.527,9.527,0,0,0,291.1,779.763Z" transform="translate(-174.516 -762.683)"/><path class="e" d="M166.9,774.1c.09-2.559-1.548-3.513-3.5-3.513a4.16,4.16,0,0,0-3.37,1.982h-.043l1.388-6.549h-4.244l-3.782,17.915H157.6l1.486-6.9c.283-1.33.816-2.484,2.145-2.484a1.1,1.1,0,0,1,1.156,1.254,14.784,14.784,0,0,1-.419,2.158l-1.3,5.972h4.244l1.609-7.352A17.1,17.1,0,0,0,166.9,774.1Z" transform="translate(-129.325 -759.2)"/><path class="e" d="M184.629,779.437h-3.773c.371-1.4,1.149-2.182,2.285-2.182a1.5,1.5,0,0,1,1.545,1.756A3.881,3.881,0,0,1,184.629,779.437Zm11.289,2.786c-.239.7-.8,1.907-1.932,1.907-1.221,0-1.417-1.154-1.373-2.384s.658-4.064,2.48-4.064a1.254,1.254,0,0,1,1.059.376,1.753,1.753,0,0,1,.255,1.28h4.072c.193-3.638-2.044-5.269-5.13-5.269-3.577,0-5.965,2.339-6.724,5.732l0-.036c.144-4.09-2.779-5.7-5.244-5.7-2.765,0-6.736,1.982-6.945,7.929-.112,3.162,1.384,5.746,5.328,5.746,4.822,0,5.729-3.237,6.061-4.115h-4.073a1.81,1.81,0,0,1-1.7.929c-1.308,0-1.7-1.155-1.648-2.534h7.931c.014-.05.022-.1.035-.15-.066,2.43.782,5.871,5.45,5.871,3.237,0,5.293-1.782,6.175-5.52Z" transform="translate(-139.31 -762.683)"/><path class="e" d="M228.123,783.45l-2.4-7.294,5.044-5.108Zm13-10.607H235.1l.486-2.233h7.095l.976-4.591h-11.81l-1.044,4.893h-4.975l-3.263,3.814h-.043l1.828-8.706H220.1l-3.8,17.915h4.244l.8-3.714,1-1,1.334,4.717h9.061l1.463-6.825h6.023Z" transform="translate(-156.56 -759.2)"/></g></svg>