<svg xmlns="http://www.w3.org/2000/svg" width="148.574" height="64.514" viewBox="0 0 148.574 64.514"><defs><style>.a{fill:#319b00;}.b{fill:none;stroke:#000;stroke-miterlimit:10;opacity:0;}.c{fill:#1d3dde;}</style></defs><g transform="translate(0)"><path class="a" d="M990.746,913.948l.994-4.97h6.138l-.994,4.97Zm-79.2,0,.994-4.97h6.139l-.994,4.97Zm116.032.419.688-3.647H1027l.137-.723h3.349l-.137.723h-1.283l-.689,3.647Zm6.417,0,.338-2.571c.048-.338.125-.74.2-1.222h-.044c-.176.386-.391.9-.584,1.3l-1.182,2.426h-.826l-.238-2.49c-.012-.321-.045-.852-.062-1.238h-.044c-.076.4-.172.836-.26,1.222l-.633,2.571h-.767l1.12-4.371h1.209l.275,2.137a9.629,9.629,0,0,1,.057,1.109h.031c.161-.386.337-.772.468-1.076l1.1-2.169h1.165l-.53,4.371Zm-126.562,20.14,3.712-18.558h6.138l-3.712,18.558Zm79.2,0,3.712-18.558h6.139l-3.713,18.558ZM976.2,929.18l1.774-8.868h-2.726l-.343,1.717a4.865,4.865,0,0,0-2.326-.465c-2.418,0-4.049,1.644-4.843,5.613l-1.465,7.331H960.13l3.712-18.558h5.891l-.594,2.968h.061c1.436-2.217,2.982-3.433,5.213-3.433a5.6,5.6,0,0,1,1.741.286l-.035.179h2.726l1.13-5.649h6.139l-1.13,5.649h3.286l-.872,4.362h-3.286l-1.3,6.472c-.343,1.716-.152,2.467,1.4,2.467a9.619,9.619,0,0,0,1.417-.107l-1.073,5.364c-1.24,0-2.678.214-3.98.214C977.973,934.722,975.182,934.258,976.2,929.18Zm-28.114-6.043h5.859c.344-1.717-.493-3.111-2.075-3.111C950.04,920.026,948.763,921.135,948.084,923.138Zm-6.32,2.145c1.08-5.4,5.371-9.8,10.455-9.8,6.386,0,8.323,4.113,6.878,11.335H947.316c-.267,2.109.487,3.611,2.409,3.611a3.637,3.637,0,0,0,2.838-1.323H958.3a10.468,10.468,0,0,1-9.451,5.865C943.7,934.973,940.526,931.468,941.764,925.283Zm-22.7-3.54c1.61-8.046,7.078-13.373,13.9-13.373,6.069.035,8.681,3.719,7.989,10.119h-6.634c.061-.93.007-3.755-2.815-3.755-3.193,0-4.932,3.576-5.618,7.009s-.379,7.008,2.815,7.008c2.294,0,3.565-1.859,4.447-4.255h6.7c-1.03,5.149-5.751,10.62-12.231,10.62C920.455,935.116,917.56,929.287,919.068,921.743Zm90.263,18.772h-2.791l1.131-5.649h1.426a4.66,4.66,0,0,0,1.9-.179,1.74,1.74,0,0,0,.869-1.395c.179-.894-.811-7.723-.938-8.8l-.89-7.472-.658,3.289h-3.1l-2.84,14.2H997.3l2.839-14.2h-2.511l.873-4.362h2.511a9.022,9.022,0,0,1,2.315-5.221c1.641-1.537,3.234-1.752,5.714-1.752.93,0,1.808.108,2.731.143l-.973,4.863a9.7,9.7,0,0,0-1.438-.251c-1.488,0-2.084.5-2.335,2.217h9.454l.442,10.655h.062l4.736-10.655h6.355l-8.759,17.127a24.708,24.708,0,0,1-3.046,5.149c-2.014,2.255-4.4,2.289-6.722,2.289Z" transform="translate(-887.312 -876.501)"/><path class="b" d="M990.746,913.948l.994-4.97h6.138l-.994,4.97Zm-79.2,0,.994-4.97h6.139l-.994,4.97Zm116.032.419.688-3.647H1027l.137-.723h3.349l-.137.723h-1.283l-.689,3.647Zm6.417,0,.338-2.571c.048-.338.125-.74.2-1.222h-.044c-.176.386-.391.9-.584,1.3l-1.182,2.426h-.826l-.238-2.49c-.012-.321-.045-.852-.062-1.238h-.044c-.076.4-.172.836-.26,1.222l-.633,2.571h-.767l1.12-4.371h1.209l.275,2.137a9.629,9.629,0,0,1,.057,1.109h.031c.161-.386.337-.772.468-1.076l1.1-2.169h1.165l-.53,4.371Zm-126.562,20.14,3.712-18.558h6.138l-3.712,18.558Zm79.2,0,3.712-18.558h6.139l-3.713,18.558ZM976.2,929.18l1.774-8.868h-2.726l-.343,1.717a4.865,4.865,0,0,0-2.326-.465c-2.418,0-4.049,1.644-4.843,5.613l-1.465,7.331H960.13l3.712-18.558h5.891l-.594,2.968h.061c1.436-2.217,2.982-3.433,5.213-3.433a5.6,5.6,0,0,1,1.741.286l-.035.179h2.726l1.13-5.649h6.139l-1.13,5.649h3.286l-.872,4.362h-3.286l-1.3,6.472c-.343,1.716-.152,2.467,1.4,2.467a9.619,9.619,0,0,0,1.417-.107l-1.073,5.364c-1.24,0-2.678.214-3.98.214C977.973,934.722,975.182,934.258,976.2,929.18Zm-28.114-6.043h5.859c.344-1.717-.493-3.111-2.075-3.111C950.04,920.026,948.763,921.135,948.084,923.138Zm-6.32,2.145c1.08-5.4,5.371-9.8,10.455-9.8,6.386,0,8.323,4.113,6.878,11.335H947.316c-.267,2.109.487,3.611,2.409,3.611a3.637,3.637,0,0,0,2.838-1.323H958.3a10.468,10.468,0,0,1-9.451,5.865C943.7,934.973,940.526,931.468,941.764,925.283Zm-22.7-3.54c1.61-8.046,7.078-13.373,13.9-13.373,6.069.035,8.681,3.719,7.989,10.119h-6.634c.061-.93.007-3.755-2.815-3.755-3.193,0-4.932,3.576-5.618,7.009s-.379,7.008,2.815,7.008c2.294,0,3.565-1.859,4.447-4.255h6.7c-1.03,5.149-5.751,10.62-12.231,10.62C920.455,935.116,917.56,929.287,919.068,921.743Zm90.263,18.772h-2.791l1.131-5.649h1.426a4.66,4.66,0,0,0,1.9-.179,1.74,1.74,0,0,0,.869-1.395c.179-.894-.811-7.723-.938-8.8l-.89-7.472-.658,3.289h-3.1l-2.84,14.2H997.3l2.839-14.2h-2.511l.873-4.362h2.511a9.022,9.022,0,0,1,2.315-5.221c1.641-1.537,3.234-1.752,5.714-1.752.93,0,1.808.108,2.731.143l-.973,4.863a9.7,9.7,0,0,0-1.438-.251c-1.488,0-2.084.5-2.335,2.217h9.454l.442,10.655h.062l4.736-10.655h6.355l-8.759,17.127a24.708,24.708,0,0,1-3.046,5.149c-2.014,2.255-4.4,2.289-6.722,2.289Z" transform="translate(-887.312 -876.501)"/><path class="c" d="M888.077,888.495H875L894.376,919l2.06-10.3h0l1.072-5.357Z" transform="translate(-875 -868.956)"/><path class="c" d="M940.012,887.583a14.52,14.52,0,0,1,5.322-1.007,11.038,11.038,0,0,1,6.711,1.97L989.277,857Z" transform="translate(-899.679 -857)"/></g></svg>