<svg xmlns="http://www.w3.org/2000/svg" width="147.784" height="59.585" viewBox="0 0 147.784 59.585"><defs><style>.a{fill:#2e8f36;}.b{fill:none;stroke:#000;stroke-miterlimit:10;opacity:0;}</style></defs><g transform="translate(0.5)"><path class="a" d="M563.582,801.046a15.312,15.312,0,0,1-7.235-1.65q-6.221-3.275-6.222-10.84a12.423,12.423,0,0,1,1.685-6.421,11.887,11.887,0,0,1,4.737-4.5A13.706,13.706,0,0,1,563.135,776h8.648v4.053H563.3a8.465,8.465,0,0,0-7.871,4.336,8.136,8.136,0,0,0-1.2,4.1,7.765,7.765,0,0,0,2.828,6.362,10.32,10.32,0,0,0,6.763,2.145h7.965v4.053Zm-32.257-16.9a8.709,8.709,0,0,0-1.155,4.336,8.134,8.134,0,0,0,2.733,6.5,10.14,10.14,0,0,0,6.811,2.192h4.148V780.19h-4.831Q533.541,780.19,531.326,784.149Zm8.107,16.991q-6.2,0-9.8-3.559a11.177,11.177,0,0,1-2.074-2.615A13.342,13.342,0,0,1,526,788.555a12.373,12.373,0,0,1,6.492-10.911,13.278,13.278,0,0,1,6.445-1.65h4.925V764.071h4.1V801.14Zm34.453,0v-4.148h13.173a4.615,4.615,0,0,0,2.286-.671,4.569,4.569,0,0,0,1.8-1.838,5.154,5.154,0,0,0,.624-2.463,5.652,5.652,0,0,0-.707-2.521,4.587,4.587,0,0,0-4.454-2.545h-7.329a4.611,4.611,0,0,1-2.709-.824,5.62,5.62,0,0,1-2.545-4.879,4.924,4.924,0,0,1,3.087-4.666,6.652,6.652,0,0,1,2.9-.731H593.7v4.053H579.919a2.72,2.72,0,0,0-.79.118,1.469,1.469,0,0,0-.625.354,1.6,1.6,0,0,0-.518,1.179q0,.965,1.155,1.2a11.764,11.764,0,0,0,1.932.094h5.35a9.9,9.9,0,0,1,4.736,1.107,9.409,9.409,0,0,1,1.933,1.343,12.41,12.41,0,0,1,1.438,1.933,8.415,8.415,0,0,1,1.3,4.454,8.978,8.978,0,0,1-4.572,8.2,8.654,8.654,0,0,1-4.548,1.249Z" transform="translate(-526 -746.15)"/><path class="b" d="M563.582,801.046a15.312,15.312,0,0,1-7.235-1.65q-6.221-3.275-6.222-10.84a12.423,12.423,0,0,1,1.685-6.421,11.887,11.887,0,0,1,4.737-4.5A13.706,13.706,0,0,1,563.135,776h8.648v4.053H563.3a8.465,8.465,0,0,0-7.871,4.336,8.136,8.136,0,0,0-1.2,4.1,7.765,7.765,0,0,0,2.828,6.362,10.32,10.32,0,0,0,6.763,2.145h7.965v4.053Zm-32.257-16.9a8.709,8.709,0,0,0-1.155,4.336,8.134,8.134,0,0,0,2.733,6.5,10.14,10.14,0,0,0,6.811,2.192h4.148V780.19h-4.831Q533.541,780.19,531.326,784.149Zm8.107,16.991q-6.2,0-9.8-3.559a11.177,11.177,0,0,1-2.074-2.615A13.342,13.342,0,0,1,526,788.555a12.373,12.373,0,0,1,6.492-10.911,13.278,13.278,0,0,1,6.445-1.65h4.925V764.071h4.1V801.14Zm34.453,0v-4.148h13.173a4.615,4.615,0,0,0,2.286-.671,4.569,4.569,0,0,0,1.8-1.838,5.154,5.154,0,0,0,.624-2.463,5.652,5.652,0,0,0-.707-2.521,4.587,4.587,0,0,0-4.454-2.545h-7.329a4.611,4.611,0,0,1-2.709-.824,5.62,5.62,0,0,1-2.545-4.879,4.924,4.924,0,0,1,3.087-4.666,6.652,6.652,0,0,1,2.9-.731H593.7v4.053H579.919a2.72,2.72,0,0,0-.79.118,1.469,1.469,0,0,0-.625.354,1.6,1.6,0,0,0-.518,1.179q0,.965,1.155,1.2a11.764,11.764,0,0,0,1.932.094h5.35a9.9,9.9,0,0,1,4.736,1.107,9.409,9.409,0,0,1,1.933,1.343,12.41,12.41,0,0,1,1.438,1.933,8.415,8.415,0,0,1,1.3,4.454,8.978,8.978,0,0,1-4.572,8.2,8.654,8.654,0,0,1-4.548,1.249Z" transform="translate(-526 -746.15)"/><path class="a" d="M695.088,801.693l-5.929,13.06-6.21-13.06h2.188l3.956,8.424,3.8-8.424Z" transform="translate(-586.196 -760.579)"/><path class="a" d="M712.079,813.666h-3.942q-4.087,0-5.671-2.9a6.286,6.286,0,0,1-.763-3.054,5.72,5.72,0,0,1,.83-3.044,6.072,6.072,0,0,1,2.235-2.15,6.286,6.286,0,0,1,3.145-.792h4.166v2h-4.559a3.6,3.6,0,0,0-1.909.5,3.162,3.162,0,0,0-.944.9h7.412v2.021h-8.332v.5a3.8,3.8,0,0,0,.528,2.145,4.219,4.219,0,0,0,3.987,1.931h3.818Z" transform="translate(-593.389 -760.593)"/><path class="a" d="M726.654,803.551H724.83a1.923,1.923,0,0,0-1.892,1.145,2.167,2.167,0,0,0-.152.517,3.741,3.741,0,0,0-.051.641v7.793l-1.932-.089v-8.232a3.4,3.4,0,0,1,2.01-3.223,4.193,4.193,0,0,1,1.931-.483h1.909Z" transform="translate(-600.715 -760.551)"/><path class="a" d="M733.605,810.333h-1.977V798.677h1.977Zm.089-16.17a.994.994,0,0,1-.314.764,1.112,1.112,0,0,1-.786.292,1.064,1.064,0,0,1-.763-.314,1.444,1.444,0,0,1-.191-.337,1.052,1.052,0,0,1-.079-.4,1.237,1.237,0,0,1,.27-.8,1.048,1.048,0,0,1,.763-.326,1.179,1.179,0,0,1,1.011.64A1.232,1.232,0,0,1,733.694,794.163Z" transform="translate(-604.841 -757.261)"/><path class="a" d="M743.956,800.3h-3.885v9.938h-2V797.681a4.873,4.873,0,0,1,1.539-3.75,3.985,3.985,0,0,1,1.65-.875,6.755,6.755,0,0,1,1.842-.27h.853v1.932H743.1a2.714,2.714,0,0,0-2.852,1.74,4.268,4.268,0,0,0-.224,1.494v.28h3.93Z" transform="translate(-607.338 -757.163)"/><path class="a" d="M758.583,815.106a5.367,5.367,0,0,1-2.5,4.492,4.843,4.843,0,0,1-2.538.708A5.207,5.207,0,0,1,750,819.036a4.347,4.347,0,0,1-1.123-1.584,6.8,6.8,0,0,1-.438-2.65H750.4a5.675,5.675,0,0,0,.2,1.471,2.785,2.785,0,0,0,.326.8,4.125,4.125,0,0,0,.595.719,2.663,2.663,0,0,0,1.931.674,3.3,3.3,0,0,0,1.64-.416,2.719,2.719,0,0,0,1.1-1.224,4.354,4.354,0,0,0,.438-1.931v-1.1h-4.076l-.663-.022q-.236-.012-.741-.068a3.267,3.267,0,0,1-1.19-.506,3.994,3.994,0,0,1-1.561-3.526v-7.613h1.954v7.894a1.818,1.818,0,0,0,.685,1.516,1.842,1.842,0,0,0,1.2.393h4.39v-9.77h1.954Z" transform="translate(-611.299 -760.719)"/><path class="a" d="M639.969,754.943a48.12,48.12,0,0,1,12.179-3.407,51.5,51.5,0,0,0-4.69-5.752,77.857,77.857,0,0,0-6.1-5.821,20.12,20.12,0,0,0-9.353,17c0,.641.033,1.274.092,1.9A75.135,75.135,0,0,1,639.969,754.943Z" transform="translate(-566.658 -736.904)"/><path class="a" d="M658.136,735a47.722,47.722,0,0,1,8.341,8.88,36.676,36.676,0,0,1,5.178,11.015,52.475,52.475,0,0,0-15.8,5.937,99.965,99.965,0,0,0-12.65,9.4A20.136,20.136,0,1,0,658.136,735Z" transform="translate(-570.952 -735)"/></g></svg>