<svg xmlns="http://www.w3.org/2000/svg" xmlns:xlink="http://www.w3.org/1999/xlink" width="178.94" height="20.287" viewBox="0 0 178.94 20.287"><defs><style>.a{fill:none;}.b{clip-path:url(#a);}.c{fill:url(#b);}.d{fill:#fff;}.e{fill:url(#c);}.f{fill:url(#d);}</style><clipPath id="a"><path class="a" d="M27.865,9.373,19.392,28.983h4.632l1.832-4.236h.017L27.2,21.669l.328-.765h-.008L30,15.209,31.976,19.8v0l.473,1.1h-.006l.326.765,1.325,3.078h.017l1.831,4.236h4.632L32.1,9.373Z" transform="translate(-19.392 -9.373)"/></clipPath><linearGradient id="b" x1="-5.679" y1="8.152" x2="-5.655" y2="8.152" gradientUnits="objectBoundingBox"><stop offset="0" stop-color="#faec20"/><stop offset="1" stop-color="#25b04b"/></linearGradient><linearGradient id="c" x1="-0.253" y1="0.5" x2="0.747" y2="0.5" xlink:href="#b"/><linearGradient id="d" x1="-0.222" y1="0.42" x2="0.773" y2="0.53" xlink:href="#b"/></defs><g transform="translate(-19.392 -9.373)"><g transform="translate(19.392 9.373)"><g class="b"><rect class="c" width="21.183" height="19.609" transform="translate(0)"/></g></g><path class="d" d="M322.825,30.465l-1.8-4.19H312.89l-1.8,4.19h-4.606l8.38-19.4h4.189l8.381,19.4ZM316.97,16.84l-2.442,5.633h4.857Z" transform="translate(-144.789 -0.855)"/><path class="d" d="M92.792,13.739a9.06,9.06,0,0,1,2.765,7.037,9.5,9.5,0,0,1-2.7,7.134q-2.7,2.628-8.226,2.627H78.028V11.209h6.829q5.17,0,7.935,2.53M89.627,25.227a5.67,5.67,0,0,0,1.59-4.341,5.807,5.807,0,0,0-1.59-4.382,6.794,6.794,0,0,0-4.88-1.535H82.341V26.72h2.737a6.4,6.4,0,0,0,4.549-1.493" transform="translate(-29.572 -0.926)"/><path class="d" d="M128.325,26.891a6.1,6.1,0,0,0,4.982-2.412l2.65,2.73a10,10,0,0,1-14.483.848,9.134,9.134,0,0,1-2.769-6.824,9.22,9.22,0,0,1,2.822-6.877,9.506,9.506,0,0,1,6.9-2.756,9.785,9.785,0,0,1,7.632,3.471l-2.571,2.915a6.023,6.023,0,0,0-4.876-2.439,5.683,5.683,0,0,0-3.988,1.524,5.309,5.309,0,0,0-1.657,4.108,5.6,5.6,0,0,0,1.564,4.147,5.158,5.158,0,0,0,3.789,1.564" transform="translate(-50.087 -1.123)"/><path class="d" d="M163.072,15.72a1.6,1.6,0,0,0-.6,1.3A1.466,1.466,0,0,0,163.2,18.3a13.306,13.306,0,0,0,3.366,1.126,9.483,9.483,0,0,1,4.094,1.948,4.811,4.811,0,0,1,1.458,3.79,5,5,0,0,1-1.868,4.041,7.449,7.449,0,0,1-4.916,1.55,11.376,11.376,0,0,1-7.924-3.26l2.464-3.021q2.995,2.623,5.539,2.624a2.905,2.905,0,0,0,1.789-.49,1.574,1.574,0,0,0,.649-1.325,1.545,1.545,0,0,0-.689-1.325,9.009,9.009,0,0,0-2.73-.994,11.855,11.855,0,0,1-4.73-2,4.723,4.723,0,0,1-1.5-3.869,4.8,4.8,0,0,1,1.895-4.068,7.623,7.623,0,0,1,4.73-1.431,11.372,11.372,0,0,1,3.71.636,9.938,9.938,0,0,1,3.233,1.8l-2.094,3.022A8.155,8.155,0,0,0,164.7,15.23a2.492,2.492,0,0,0-1.63.49" transform="translate(-69.609 -1.123)"/><path class="e" d="M205.15,21.114h4.161v6.572a9.726,9.726,0,0,1-7.632,3.074,9.423,9.423,0,0,1-6.851-2.7,9.134,9.134,0,0,1-2.77-6.824,9.22,9.22,0,0,1,2.823-6.877,9.393,9.393,0,0,1,6.811-2.756,10.073,10.073,0,0,1,6.93,2.624l-2.147,3.1a8.182,8.182,0,0,0-2.292-1.5,6.142,6.142,0,0,0-2.266-.411,5.425,5.425,0,0,0-3.975,1.6,5.689,5.689,0,0,0-1.617,4.227,5.731,5.731,0,0,0,1.55,4.2,5,5,0,0,0,3.7,1.577,7.1,7.1,0,0,0,3.578-.821Z" transform="translate(-87.082 -1.123)"/><path class="f" d="M248.8,27.99a10.093,10.093,0,0,1-13.834,0,9.151,9.151,0,0,1-2.809-6.823,9.154,9.154,0,0,1,2.809-6.824,10.093,10.093,0,0,1,13.834,0,9.152,9.152,0,0,1,2.809,6.824A9.149,9.149,0,0,1,248.8,27.99m-1.4-6.81a6.062,6.062,0,0,0-1.59-4.227,5.242,5.242,0,0,0-7.818,0,6.063,6.063,0,0,0-1.59,4.227,6.016,6.016,0,0,0,1.59,4.214,5.271,5.271,0,0,0,7.818,0,6.016,6.016,0,0,0,1.59-4.214" transform="translate(-107.305 -1.123)"/><path class="d" d="M290.425,12.811q2.04,1.735,2.039,5.327T290.369,23.4q-2.1,1.664-6.395,1.664h-2.58v5.41h-4.328V11.077h6.853q4.467,0,6.506,1.734m-3.177,7.63a3.729,3.729,0,0,0,.777-2.553,2.706,2.706,0,0,0-1.013-2.386,5.563,5.563,0,0,0-3.149-.707h-2.469v6.519h2.913a3.863,3.863,0,0,0,2.941-.873" transform="translate(-129.954 -0.859)"/><path class="d" d="M355.558,30.519h-4.339V22.843l-6.731-11.766h4.7l4.2,7.232,4.2-7.232h4.7l-6.732,11.766Z" transform="translate(-163.958 -0.859)"/></g></svg>