<svg xmlns="http://www.w3.org/2000/svg" xmlns:xlink="http://www.w3.org/1999/xlink" width="965" height="580.932" viewBox="0 0 965 580.932"><defs><style>.a{fill:url(#a);}.b{fill:#b7d972;}.c{fill:#473b1e;}.d{fill:url(#e);}.e{fill:url(#f);}.f{fill:#f7cc7f;}.g{fill:url(#g);}.h{fill:#f47257;}.i{fill:#50bfa5;}.j{fill:#3c8f7c;}.k{fill:url(#o);}.l{fill:#edfdfc;}.m{fill:url(#r);}.n{fill:#fff;}.o{fill:url(#s);}.p{fill:url(#w);}.q{fill:url(#x);}.r{fill:#f7a491;}.s{fill:#332914;}.t{fill:url(#y);}.u{fill:#002a24;}.v{fill:url(#aa);}.w{fill:url(#ab);}.x{fill:#f47458;}.y{fill:url(#ac);}.z{fill:url(#ad);}.aa{fill:url(#ae);}.ab{fill:url(#af);}.ac{fill:url(#ag);}.ad{fill:url(#ah);}.ae{fill:url(#ai);}.af{fill:url(#aj);}.ag{fill:url(#ak);}.ah{fill:url(#al);}.ai{fill:url(#am);}.aj{fill:url(#an);}.ak{fill:url(#ao);}.al{fill:url(#aq);}.am{fill:#a1bc61;}.an{fill:#f48c7f;}.ao{fill:#f8a492;}.ap{fill:url(#au);}.aq{fill:url(#av);}.ar{fill:url(#aw);}.as{fill:url(#ax);}.at{fill:url(#ay);}.au{fill:url(#az);}.av{fill:url(#ba);}.aw{fill:url(#bc);}.ax{fill:url(#bh);}.ay{fill:url(#bi);}.az{fill:#847d3d;}.ba{fill:url(#bm);}</style><linearGradient id="a" y1="0.5" x2="1" y2="0.5" gradientUnits="objectBoundingBox"><stop offset="0" stop-color="#53cd9f"/><stop offset="1" stop-color="#0d7a5c"/></linearGradient><linearGradient id="e" x1="0.806" y1="-0.041" x2="0.272" y2="0.7" gradientUnits="objectBoundingBox"><stop offset="0" stop-color="#c9cd55"/><stop offset="0.507" stop-color="#659c52"/><stop offset="1" stop-color="#287f50"/></linearGradient><linearGradient id="f" x1="0.843" y1="-0.05" x2="0.359" y2="0.726" xlink:href="#a"/><linearGradient id="g" y1="0.5" x2="1" y2="0.5" gradientUnits="objectBoundingBox"><stop offset="0" stop-color="#c7a44f"/><stop offset="1" stop-color="#609a3f"/></linearGradient><linearGradient id="o" y1="0.5" x2="1" y2="0.5" gradientUnits="objectBoundingBox"><stop offset="0" stop-color="#00503e"/><stop offset="1" stop-color="#023222"/></linearGradient><linearGradient id="r" x1="0.755" y1="-0.505" x2="0.494" y2="0.526" xlink:href="#e"/><linearGradient id="s" x1="0.647" y1="-0.08" x2="0.386" y2="0.95" xlink:href="#e"/><linearGradient id="w" x1="-0.087" y1="-0.919" x2="1.036" y2="1.798" xlink:href="#e"/><linearGradient id="x" x1="-0.093" y1="-0.935" x2="1.03" y2="1.783" xlink:href="#e"/><linearGradient id="y" y1="0.5" x2="1" y2="0.5" gradientUnits="objectBoundingBox"><stop offset="0" stop-color="#fb9a2b"/><stop offset="1" stop-color="#e65925"/></linearGradient><linearGradient id="aa" x1="0.017" y1="-0.064" x2="0.997" y2="0.985" xlink:href="#y"/><linearGradient id="ab" x1="-0.406" y1="-1.624" x2="1.442" y2="2.31" xlink:href="#y"/><linearGradient id="ac" x1="0.618" y1="-0.106" x2="0.392" y2="1.053" xlink:href="#e"/><linearGradient id="ad" x1="0.791" y1="0.928" x2="10.959" y2="13.569" xlink:href="#a"/><linearGradient id="ae" x1="-8.945" y1="-8.955" x2="1.519" y2="1.515" xlink:href="#a"/><linearGradient id="af" x1="-3.951" y1="-6.879" x2="4.586" y2="7.313" xlink:href="#a"/><linearGradient id="ag" x1="0.688" y1="-3.18" x2="0.462" y2="1.23" xlink:href="#y"/><linearGradient id="ah" x1="-4.358" y1="-4.836" x2="2.605" y2="2.883" xlink:href="#a"/><linearGradient id="ai" x1="-0.172" y1="-0.354" x2="9.377" y2="12.369" xlink:href="#a"/><linearGradient id="aj" x1="-0.51" y1="-0.872" x2="2.47" y2="3.217" xlink:href="#a"/><linearGradient id="ak" x1="0.823" y1="-8.019" x2="0.518" y2="0.144" xlink:href="#y"/><linearGradient id="al" x1="0.937" y1="-12.165" x2="0.518" y2="-0.117" xlink:href="#y"/><linearGradient id="am" x1="0.665" y1="-4.349" x2="0.245" y2="7.699" xlink:href="#y"/><linearGradient id="an" x1="0.681" y1="-4.8" x2="0.261" y2="7.248" xlink:href="#y"/><linearGradient id="ao" x1="0.651" y1="-3.947" x2="0.231" y2="8.101" xlink:href="#y"/><linearGradient id="aq" x1="1.087" y1="0.147" x2="-0.624" y2="1.125" xlink:href="#a"/><linearGradient id="au" x1="1.302" y1="0.169" x2="0.086" y2="0.69" xlink:href="#a"/><linearGradient id="av" x1="0.518" y1="-0.103" x2="0.486" y2="0.959" xlink:href="#e"/><linearGradient id="aw" x1="1.284" y1="-6.23" x2="0.467" y2="0.782" xlink:href="#e"/><linearGradient id="ax" x1="1.119" y1="-4.813" x2="0.302" y2="2.199" xlink:href="#e"/><linearGradient id="ay" x1="1.104" y1="-4.686" x2="0.287" y2="2.326" xlink:href="#e"/><linearGradient id="az" x1="1.28" y1="-2.896" x2="-0.069" y2="2.977" xlink:href="#e"/><linearGradient id="ba" x1="0.939" y1="-3.269" x2="0.122" y2="3.743" xlink:href="#e"/><linearGradient id="bc" x1="0.603" y1="-0.218" x2="0.447" y2="0.868" xlink:href="#e"/><linearGradient id="bh" x1="1.945" y1="-1.668" x2="-0.533" y2="2.049" xlink:href="#e"/><linearGradient id="bi" x1="2.741" y1="-0.933" x2="-0.2" y2="1.184" xlink:href="#e"/><linearGradient id="bm" x1="0.472" y1="-0.166" x2="0.513" y2="0.818" xlink:href="#e"/></defs><g transform="translate(-1286.699 -483.515)"><g transform="translate(1286.699 826.452)"><g transform="translate(31.479)"><g transform="translate(0 0)"><path class="a" d="M1497.926,1483.535s-94.56-46.624-110.822-70.942,7.643-25.694,7.643-25.694-42.2-41.04-36.26-58.318,28.09-.768,28.09-.768-27.427-61.063-14.634-67.134c23.829-11.309,57.258,53.676,57.258,53.676s-7.184-28.231,9.226-27.313c24.746,1.384,23.724,65.244,23.724,65.244s2.795-24.486,17.71-16.532C1506.622,1350.025,1497.926,1483.535,1497.926,1483.535Z" transform="translate(-1357.915 -1259.358)"/></g><path class="b" d="M1502.956,1325.876c-11.648-6.463-23.248,12.428-23.248,12.428s1.175-49.878-23.571-51.262c-16.409-.917-9.225,27.313-9.225,27.313s-33.429-64.985-57.258-53.676l126.09,221.818C1516.635,1467.007,1526.029,1338.68,1502.956,1325.876Z" transform="translate(-1375.625 -1259.358)"/></g><g transform="translate(0 117.69)"><g transform="translate(0 7.58)"><path class="a" d="M1455.745,1642.248s-77.337,9.605-97.361,1.045-5.674-19.133-5.674-19.133-43-8.452-46.314-21.64,17.209-11.893,17.209-11.893-41.92-26.942-36.407-35.927c10.267-16.737,57.525,10.213,57.525,10.213s-15.953-14.689-5.344-20.784c16-9.193,41.309,31.055,41.309,31.055s-1.573-9.92,10.963-11.02C1414.141,1562.19,1455.745,1642.248,1455.745,1642.248Z" transform="translate(-1286.699 -1542.764)"/></g><path class="b" d="M1390.961,1541.158c-12.535,1.1-12.339,13.277-12.339,13.277s-23.073-36.529-39.07-27.336c-10.608,6.1,1.943,26.115,1.943,26.115s-43.4-24.819-53.665-8.083l168.781,87.119C1450.871,1622.227,1411.969,1539.315,1390.961,1541.158Z" transform="translate(-1287.33 -1525.615)"/></g></g><g transform="translate(2077.461 831.359)"><g transform="translate(0)"><g transform="translate(1.398)"><path class="a" d="M3080.193,1494.636s94.559-46.624,110.821-70.942-7.642-25.695-7.642-25.695,42.2-41.039,36.26-58.316-28.09-.768-28.09-.768,27.427-61.062,14.634-67.134c-23.829-11.309-57.259,53.677-57.259,53.677s7.184-28.231-9.225-27.314c-24.746,1.384-23.724,65.244-23.724,65.244s-2.794-24.485-17.711-16.532C3071.5,1361.126,3080.193,1494.636,3080.193,1494.636Z" transform="translate(-3078.843 -1270.459)"/></g><path class="b" d="M3091.108,1336.978c11.647-6.463,23.247,12.428,23.247,12.428s-1.175-49.878,23.572-51.261c16.409-.917,9.224,27.313,9.224,27.313s33.429-64.985,57.258-53.677L3078.319,1493.6C3077.427,1478.108,3068.035,1349.781,3091.108,1336.978Z" transform="translate(-3075.68 -1270.459)"/></g><g transform="translate(4.957 117.998)"><g transform="translate(0.235 7.272)"><path class="a" d="M3087.426,1653.349s77.337,9.6,97.362,1.045,5.673-19.132,5.673-19.132,43-8.451,46.314-21.64-17.209-11.893-17.209-11.893,41.92-26.942,36.407-35.927c-10.268-16.737-57.525,10.214-57.525,10.214s15.953-14.689,5.345-20.785c-16-9.192-41.31,31.054-41.31,31.054s1.573-9.92-10.962-11.019C3129.03,1573.291,3087.426,1653.349,3087.426,1653.349Z" transform="translate(-3087.426 -1553.864)"/></g><path class="b" d="M3150.717,1558.876c12.534,1.1,11.469,18.228,11.469,18.228s25.769-47.708,41.766-38.515c10.61,6.1-1.942,26.114-1.942,26.114s43.4-24.819,53.666-8.082L3086.9,1643.74C3092.632,1633.717,3129.708,1557.033,3150.717,1558.876Z" transform="translate(-3086.895 -1537.412)"/></g></g><g transform="translate(1506.319 628.733)"><path class="c" d="M2113.376,825.45s-73.158-11.068-136.754-13.4c-63.462,0-136.754,13.4-136.754,13.4,0,60.43-56.311,61.481-56.311,61.481s9.832,153.7,38.434,230.949,154.631,122.962,154.631,122.962,126.029-45.717,154.631-122.962,38.434-230.949,38.434-230.949S2113.376,885.88,2113.376,825.45Z" transform="translate(-1783.557 -812.05)"/><path class="d" d="M2024.182,1245.917c-45.251-19.692-104.9-55.516-120.644-98.022-20.171-54.477-30.71-152.115-34.744-197.927,25.132-10.615,43.891-30.594,51.073-57.85,25.618-3.712,66.685-8.671,103.58-8.737,37.646,1.422,79.125,6.054,105.221,9.371,6.79,25.039,24.085,45.891,50.9,57.214-4.04,45.828-14.592,143.513-34.74,197.929C2129.1,1190.365,2069.517,1226.189,2024.182,1245.917Z" transform="translate(-1831.117 -851.852)"/></g><g transform="translate(1342.351 668.03)"><g transform="translate(158.003 239.066)"><path class="e" d="M1955.744,1539.617l-146.128,46.29a12.536,12.536,0,0,1-15.736-8.165l-23.228-73.325a12.535,12.535,0,0,1,8.166-15.736l146.128-46.29a12.536,12.536,0,0,1,15.736,8.165l23.227,73.325A12.536,12.536,0,0,1,1955.744,1539.617Z" transform="translate(-1770.063 -1441.802)"/><rect class="f" width="43.922" height="25.536" transform="translate(13.86 66.536) rotate(-17.577)"/><rect class="b" width="77.887" height="4.767" transform="translate(85.989 36.901) rotate(-17.577)"/></g><g transform="translate(183.274 288.71)"><rect class="g" width="178.64" height="102.15" rx="28.406" transform="translate(178.64 102.15) rotate(180)"/><rect class="b" width="43.991" height="25.576" transform="translate(167.155 45.89) rotate(180)"/><rect class="b" width="78.011" height="4.774" transform="translate(89.32 18.609) rotate(180)"/><rect class="b" width="178.64" height="19.941" transform="translate(0 61.474)"/></g><rect class="h" width="373.724" height="39.12" transform="translate(414.464 224.62)"/><g transform="translate(418.992 159.91)"><path class="g" d="M2630.3,1465.9a721.682,721.682,0,0,0-269.791-80.839q5.223-61.167,10.446-122.333a834.417,834.417,0,0,1,311.938,93.468Z" transform="translate(-2360.51 -1262.724)"/><path class="b" d="M2379.252,1374.273q3.56-38.146,7.119-76.295c9.876,1.013,18.724-5.36,19.8-14.5a828.359,828.359,0,0,1,261.542,78.367c-3.677,8.356.637,18.672,9.534,23.286l-32.287,68.753a15.526,15.526,0,0,0-21.552,7.615,727.4,727.4,0,0,0-229.674-68.818A16.457,16.457,0,0,0,2379.252,1374.273Z" transform="translate(-2370.967 -1274.306)"/><g transform="translate(41.346 47.573)"><path class="i" d="M2712.533,1426.941c-7.6,21.876-31.021,33.019-52.75,26.341-21.713-6.731-35.668-29.413-30.784-52.126,4.869-22.674,28.973-36.261,53.406-28.7C2706.847,1379.981,2720.12,1405.106,2712.533,1426.941Z" transform="translate(-2551.124 -1370.351)"/><path class="j" d="M2687.776,1461.222q.911-3.663,1.82-7.325a39.644,39.644,0,0,1-8.855-4.147,4.727,4.727,0,0,1-1.705-6.138l.135-.257a4.541,4.541,0,0,1,6.553-1.6,29.141,29.141,0,0,0,8.119,3.759c4.438,1.242,7.908.44,8.712-2.635.759-2.917-1.263-5.509-6.633-9.071-7.763-5.128-12.719-10.478-11.009-18,1.547-6.814,7.836-10.892,17-10.091l1.8-7.332q4.04,1.12,8.073,2.281-.864,3.388-1.729,6.775a37.23,37.23,0,0,1,7.172,3.195,4.7,4.7,0,0,1,1.869,6.38h0a4.769,4.769,0,0,1-6.665,1.412,26.6,26.6,0,0,0-6.844-3.016c-5.26-1.495-7.492.214-8.017,2.372-.625,2.552,1.808,4.926,7.957,9.341,8.653,5.989,11.244,11.409,9.343,18.285-1.9,6.817-8.354,11.1-17.585,10.081q-1.013,3.923-2.028,7.845Q2691.52,1462.258,2687.776,1461.222Z" transform="translate(-2579.299 -1385.992)"/><path class="i" d="M2519.056,1408q-32.22-7.436-65.007-12.1.757-5.881,1.515-11.762,33.218,4.72,65.917,12.267Q2520.269,1402.207,2519.056,1408Z" transform="translate(-2454.05 -1378.047)"/><path class="i" d="M2903.079,1524.935q-29.984-14.663-60.963-26.682l3.917-11.134q31.386,12.179,61.817,27.056Z" transform="translate(-2670.583 -1435.506)"/></g></g><g transform="translate(427.315 111.529)"><path class="g" d="M2683.588,1273.934c-86.95,18.166-169.75,54.571-244.035,107.3q-30.108-51.95-60.214-103.9c85.89-60.964,181.625-103.056,282.159-124.059Z" transform="translate(-2379.339 -1153.27)"/><path class="b" d="M2454.46,1372.815q-18.553-32.592-37.108-65.183c7.852-5.476,10.845-16.169,6.566-24.116,73.186-48.561,153.047-83.674,236.575-104.016a16.524,16.524,0,0,0,19.967,12.449q7.171,37.6,14.342,75.193c-8.4,1.833-13.605,10.786-11.682,19.76a656.694,656.694,0,0,0-207.748,91.342C2471.1,1370.3,2461.686,1367.777,2454.46,1372.815Z" transform="translate(-2400.55 -1167.906)"/><g transform="translate(53.727 53.892)"><path class="g" d="M2731.32,1309.845c6.54,22.223-4.565,45.979-24.312,54.487-19.766,8.456-42.661-.7-51.667-21.865-8.995-21.123,1.253-47.253,23.485-56.784C2701.048,1276.128,2724.8,1287.661,2731.32,1309.845Z" transform="translate(-2585.256 -1279.16)"/><path class="b" d="M2730.537,1374.245q-1.36-3.491-2.724-6.981a34.479,34.479,0,0,1-8.84,2.335,4.293,4.293,0,0,1-4.666-3.8c-.014-.1-.029-.194-.042-.29a4.7,4.7,0,0,1,3.948-5.439,25.378,25.378,0,0,0,8.079-2.174c3.966-1.835,6.084-4.679,4.968-7.635-1.06-2.8-3.99-3.576-9.932-2.994-8.577.86-15.206-.242-18.122-7.312-2.642-6.4-.262-13.643,6.946-18.833q-1.372-3.487-2.745-6.972,3.6-1.68,7.227-3.32,1.244,3.242,2.485,6.485a32.555,32.555,0,0,1,7.067-2.021,4.272,4.272,0,0,1,4.924,3.885h0a4.912,4.912,0,0,1-4.137,5.361,23.31,23.31,0,0,0-6.727,1.955c-4.713,2.158-5.411,4.935-4.6,6.985.954,2.427,4.07,2.766,11.06,2.367,9.713-.741,14.634,1.92,17.049,8.6,2.386,6.625-.005,14.134-7.383,19.2q1.429,3.764,2.857,7.527Q2733.876,1372.688,2730.537,1374.245Z" transform="translate(-2613.195 -1295.079)"/><path class="i" d="M2561.005,1421.821q-27.913,14.579-54.7,31.722-2.706-5.158-5.413-10.315,27.141-17.372,55.469-32.165Q2558.682,1416.442,2561.005,1421.821Z" transform="translate(-2500.89 -1351.005)"/><path class="g" d="M2911.642,1286.782q-30.275,7.41-59.816,17.554l-3.291-11.343q29.929-10.276,60.654-17.8Q2910.416,1280.987,2911.642,1286.782Z" transform="translate(-2694.869 -1275.193)"/></g></g><g transform="translate(439.635 175.1)"><path class="g" d="M2709.613,1421.117a661.283,661.283,0,0,0-266.911,39.119q-17.744-58.263-35.489-116.525a764.6,764.6,0,0,1,308.609-45.23Q2712.717,1359.8,2709.613,1421.117Z" transform="translate(-2407.213 -1297.089)"/><path class="b" d="M2458.243,1444.362q-10.8-36.462-21.6-72.925c9.059-3.217,14.517-12.772,12.127-21.6a758.822,758.822,0,0,1,258.75-37.923c-.183,9.2,7.381,16.85,16.894,17.344q-1.649,38.288-3.3,76.575c-8.757-.453-16,6.83-16.183,16.026a666.37,666.37,0,0,0-227.222,33.3C2475.322,1446.344,2466.581,1441.4,2458.243,1444.362Z" transform="translate(-2423.634 -1305.196)"/><g transform="translate(48.124 23.68)"><path class="g" d="M2770.661,1388.381c1.307,23.242-15.236,43.288-36.793,46.284-21.565,2.942-42.126-11.993-46.126-34.864-4-22.828,12.249-45.4,36.508-48.725C2748.507,1347.721,2769.363,1365.182,2770.661,1388.381Z" transform="translate(-2611.53 -1350.662)"/><path class="b" d="M2761.778,1442.116q-.535-3.739-1.073-7.479a35.626,35.626,0,0,1-9.307-.085,4.509,4.509,0,0,1-3.742-4.911c.008-.1.017-.2.026-.293a4.563,4.563,0,0,1,5.181-4.216,26.231,26.231,0,0,0,8.516.039c4.358-.724,7.119-2.916,6.7-6.072-.4-2.992-3.123-4.52-9.149-5.531-8.7-1.442-15.018-4.268-16.262-11.883-1.128-6.9,2.917-13.273,11.272-16.384q-.547-3.738-1.1-7.476,3.966-.671,7.938-1.3.478,3.467.953,6.935a33.54,33.54,0,0,1,7.477-.081,4.483,4.483,0,0,1,3.976,5.065h0a4.776,4.776,0,0,1-5.349,4.091,23.993,23.993,0,0,0-7.124.108c-5.173.837-6.513,3.34-6.187,5.539.382,2.6,3.39,3.757,10.413,5.224,9.8,1.858,14.061,5.739,14.9,12.84.821,7.045-3.3,13.677-11.79,16.622q.541,4.02,1.079,8.042Q2765.45,1441.494,2761.778,1442.116Z" transform="translate(-2642.412 -1365.095)"/><path class="i" d="M2580.667,1457.593q-31.067,6.7-61.617,16.19-1.481-5.709-2.963-11.417,30.953-9.615,62.48-16.418Q2579.617,1451.769,2580.667,1457.593Z" transform="translate(-2516.086 -1403.83)"/><path class="i" d="M2963.941,1421.3q-31.738-.858-63.386,1.125-.309-5.925-.62-11.85,32.064-2.007,64.273-1.141Q2964.075,1415.369,2963.941,1421.3Z" transform="translate(-2730.267 -1383.31)"/></g></g><rect class="a" width="373.724" height="164.478" transform="translate(414.464 224.62)"/><path class="k" d="M3054.513,1686.229h-92.477a7.6,7.6,0,0,0-7.424,7.774h0a7.6,7.6,0,0,0,7.424,7.774h-11.992a7.605,7.605,0,0,0-7.424,7.774h0a7.605,7.605,0,0,0,7.424,7.774h2.079a7.6,7.6,0,0,0-7.425,7.774,8.034,8.034,0,0,0,.625,3.121h109.19Z" transform="translate(-2266.325 -1339.123)"/><rect class="k" width="340.208" height="12.772" transform="translate(428.236 232.719)"/><rect class="k" width="158.628" height="4.24" transform="translate(432.557 266.614)"/><g transform="translate(679.98 281.633)"><path class="l" d="M3015.2,1553.142a35.328,35.328,0,1,1-49.211-8.623A35.329,35.329,0,0,1,3015.2,1553.142Z" transform="translate(-2950.956 -1538.105)"/><path class="m" d="M3017.725,1563.58a29.645,29.645,0,1,1-41.294-7.235A29.644,29.644,0,0,1,3017.725,1563.58Z" transform="translate(-2958.131 -1545.28)"/><g transform="translate(22.8 13.748)"><path class="n" d="M3018.49,1611.643l-1.292-4.778a24.014,24.014,0,0,1-6.311.555,3.013,3.013,0,0,1-2.856-2.969l0-.191a3.006,3.006,0,0,1,3.191-3.046,17.531,17.531,0,0,0,5.708-.535c2.866-.774,4.529-2.412,3.985-4.423-.516-1.911-2.452-2.683-6.513-2.934-5.87-.356-10.222-1.877-11.541-6.755-1.2-4.426.983-8.739,6.077-11.25l-1.292-4.778,4.929-1.333,1.2,4.425a22.263,22.263,0,0,1,4.768-.579,3.008,3.008,0,0,1,3.008,2.974h0a3.01,3.01,0,0,1-3.073,3.05,15.987,15.987,0,0,0-4.588.569c-3.268.883-3.944,2.576-3.563,3.985.449,1.659,2.494,2.24,7.2,2.693,6.555.494,9.717,2.606,10.941,7.132,1.21,4.476-.924,9.155-6.436,11.724l1.388,5.129Z" transform="translate(-3002.538 -1569.207)"/></g></g><g transform="translate(597.132 223.217)"><circle class="l" cx="35.328" cy="35.328" r="35.328" transform="translate(0 56.15) rotate(-52.628)"/><circle class="o" cx="29.644" cy="29.644" r="29.644" transform="translate(7.595 49.519) rotate(-45)"/><g transform="translate(35.386 28.678)"><path class="l" d="M2848.536,1510.7l1.687-4.652a24.047,24.047,0,0,1-5.485-3.172,3.012,3.012,0,0,1-.632-4.071l.108-.158a3.006,3.006,0,0,1,4.361-.66,17.543,17.543,0,0,0,4.981,2.842c2.791,1.012,5.092.627,5.8-1.331.673-1.861-.468-3.606-3.647-6.143-4.6-3.664-7.289-7.408-5.566-12.159,1.563-4.309,5.824-6.588,11.438-5.717l1.686-4.653,4.8,1.74-1.562,4.309a22.288,22.288,0,0,1,4.235,2.266,3.007,3.007,0,0,1,.753,4.162h0a3.009,3.009,0,0,1-4.268.731,16.024,16.024,0,0,0-4.081-2.17c-3.184-1.154-4.709-.156-5.206,1.216-.586,1.615.755,3.266,4.349,6.342,5.082,4.17,6.456,7.716,4.858,12.123-1.58,4.359-6.015,6.963-12,5.9l-1.812,5Z" transform="translate(-2843.581 -1470.828)"/></g></g><rect class="k" width="160.002" height="85.751" transform="translate(608.442 293.107)"/><path class="k" d="M2954.612,1694h0a7.6,7.6,0,0,0,7.424,7.774h-11.992a7.605,7.605,0,0,0-7.424,7.774h0a7.605,7.605,0,0,0,7.424,7.774h2.079a7.107,7.107,0,0,0-2.984.655h85.63v-31.751h-72.733A7.6,7.6,0,0,0,2954.612,1694Z" transform="translate(-2266.325 -1339.123)"/><g transform="translate(0 352.123)"><g transform="translate(0 36.154)"><path class="a" d="M1412.6,1781.876h0c0,1.384,1.547,2.507,3.455,2.507h861.5c1.908,0,3.456-1.123,3.456-2.507h0c0-1.385-1.547-2.507-3.456-2.507h-861.5C1414.151,1779.369,1412.6,1780.491,1412.6,1781.876Z" transform="translate(-1412.604 -1779.369)"/></g><path class="p" d="M3068.57,1774.238h-95.5a6.938,6.938,0,0,1-6.937-6.938h0a6.938,6.938,0,0,1,6.938-6.938h95.5a6.939,6.939,0,0,1,6.939,6.938h0A6.939,6.939,0,0,1,3068.57,1774.238Z" transform="translate(-2279.445 -1732.61)"/><rect class="l" width="109.376" height="13.876" rx="6.938" transform="translate(684.746 13.876)"/><path class="q" d="M3089.53,1711.453h-95.5a6.938,6.938,0,0,1-6.938-6.938h0a6.938,6.938,0,0,1,6.938-6.938h95.5a6.938,6.938,0,0,1,6.938,6.938h0A6.938,6.938,0,0,1,3089.53,1711.453Z" transform="translate(-2291.14 -1697.577)"/></g><g transform="translate(704.976)"><g transform="translate(34.463 65.476)"><path class="r" d="M3167.17,1648.212s-.775,9.651-.146,12.788c.336,1.679,2.212,5.137,1.351,6.718a4.292,4.292,0,0,1-1.843,1.976l-22.293.353c-1.214.019-.411-.75.567-1.457,1.6-1.16,2.9-1.925,8.015-4.36.335-.159,1.551-.919,1.989-1.182a15.339,15.339,0,0,0,3.188-2.771c1.6-1.752,1.741-10.251,1.741-10.251Z" transform="translate(-3117.922 -1383.386)"/><path class="s" d="M3147.4,1354.923s-9.581-4.724-7.739,5.548,15.883,125.806,15.883,125.806l13.149.73s1.68-38.519,1.311-44.051a100.965,100.965,0,0,0-2.547-14.089l-1.115-34.172L3153.94,1352.5Z" transform="translate(-3115.581 -1218.386)"/><path class="t" d="M3152.786,1681.15a20.5,20.5,0,0,0,12.692-.49c.628,1.751,1.462,3.95,1.021,5.218-.542,1.552-1.247,2.242-1.928,2.26-5.385.138-19.791-.011-23.9.042a.659.659,0,0,1-.522-1.084C3141.17,1685.9,3152.346,1681.415,3152.786,1681.15Z" transform="translate(-3115.895 -1401.491)"/><path class="r" d="M3110.607,1116.186s-8.1-15.587-9.359-21.31-5.608-34.54-5.242-36.4,7.25-6.322,6.4-7.9-7.405-1.581-8.907-1.446a13.568,13.568,0,0,0-5.808,2.075c-1.292,1.065,1.452,35.6,2.271,43.036s10.884,30.332,10.884,30.332Z" transform="translate(-3086.522 -1049.082)"/><g transform="translate(12.457 42.813)"><path class="r" d="M3282.764,1455.1s6.683-7.007,8.172-9.839c.8-1.517,1.517-5.382,3.182-6.069a4.287,4.287,0,0,1,2.676-.373l17.535,13.771c.955.75-.152.841-1.359.774-1.975-.109-3.462-.329-8.971-1.664-.36-.086-1.783-.262-2.29-.334a15.346,15.346,0,0,0-4.221.142c-2.348.353-7.81,6.865-7.81,6.865Z" transform="translate(-3208.016 -1309.319)"/><path class="t" d="M3312.784,1450.892a20.5,20.5,0,0,0-10.164-7.615c.615-1.757,1.288-4.054,2.43-4.76,1.4-.864,2.362-.685,2.9-.27,4.27,3.284,15.446,12.272,18.667,14.818a.659.659,0,0,1-.279,1.171C3324.8,1454.522,3313.292,1450.964,3312.784,1450.892Z" transform="translate(-3219.096 -1308.849)"/><path class="u" d="M3208.141,1165.484c-4.159-8.724-13.374-13.527-22.3-11.2a20.534,20.534,0,0,0-13.309-8.1c-10.167-1.44-23.285,3.491-21.946,14.1-3.213,7.423-2.425,17.651,3.991,22.666-1.178,9.756,8.6,18.412,20.183,17.245,4.659,6.43,12.757,10.2,20.333,8.734a45.789,45.789,0,0,1,5.054-.933c-.593-.066,13.207,8.971,22.724-7.122C3232.581,1184.457,3223.019,1166.1,3208.141,1165.484Z" transform="translate(-3133.235 -1145.939)"/><path class="c" d="M3148.744,1355.6s21.489-9.554,21.828-8.465c2.694,8.678,11.076,5.878,16.052,21.161,2.084,6.4,4.224,48.974,4.224,48.974s8.473-7.031,20.583-19.319c.929-.943,10.032,7.714,10.032,7.714-24.035,32.475-34.4,34.169-38.416,32.351-8.372-3.8-26.037-56.886-26.01-56.88C3154.917,1377.007,3148.744,1355.6,3148.744,1355.6Z" transform="translate(-3133.235 -1258.156)"/><path class="r" d="M3229.343,1218.351s31.06-.039,37.71-.423c6.02-.347,29.892.26,30.824.152s7.1-10.558,8.129-9.436-3.433,5.182-2.054,6.235,16.195-1.306,16-.21c-.367,2.049-9.011,1.788-9,2.778s9.046-.555,9.659,1.087-8.694.669-9.066,1.4,8.631,2.075,7.711,3.6c-.5.83-7.977-1.385-7.941-.255s5.491,3.7,4.822,4.6-4.28-2.764-7.446-2.81-5.431-1.7-10.483-.311c-2.5.684-21.541,3.013-37.634,4.387-16.5,1.41-30.021,1.858-30.021,1.858Z" transform="translate(-3178.208 -1180.88)"/><path class="v" d="M3118.735,1230.9a39.443,39.443,0,0,1,.794-10.483c-1.508-5.18-4.718-16.232-5.871-18.4,0,0,5.407-10.392,10.944-10.321,0,0,5.653,12.744,10.024,15.024a10.878,10.878,0,0,0,2.2.656c4.22-.03,18.969-.478,21.721-.527L3157,1227.766c-10.687,20.949-7.793,31.942-3.727,36.007,1.912,1.913-26.668,9.676-27.984,6.966C3123.734,1267.545,3119.569,1240.978,3118.735,1230.9Z" transform="translate(-3113.658 -1171.466)"/><path class="w" d="M3198.257,1226.736c2.72-1.3,22.406-.649,22.406-.649s2.751,13.708.53,17c0,0-17.6,2.619-17.1,4.063Z" transform="translate(-3160.862 -1190.569)"/><path class="r" d="M3170.211,1202.785a102.068,102.068,0,0,0,0,10.59c.351,3.114-3.195,10.415-9.795,10.542s-.969-7.005-.39-10.07,1.272-15.06,1.272-15.06Z" transform="translate(-3137.977 -1175.428)"/><path class="x" d="M3165.932,1198.787s-.162,2.784-.393,6.013a7.678,7.678,0,0,0,9.171,2.24c.041-2.315.131-4.255.131-4.255Z" transform="translate(-3142.607 -1175.428)"/><path class="r" d="M3172.068,1157.1a10.962,10.962,0,0,1,5.835,4.855c2.1,3.739,2.98,14.38-5.078,18.763s-13.584-2.983-13.217-9.771S3162.052,1155.213,3172.068,1157.1Z" transform="translate(-3139.287 -1152.026)"/><path class="r" d="M3155.64,1179.04c.545,1.682,1.783,2.787,2.762,2.469s1.331-1.939.785-3.62-1.783-2.788-2.762-2.47S3155.093,1177.358,3155.64,1179.04Z" transform="translate(-3136.939 -1162.358)"/><path class="u" d="M3185.275,1156.749s4.092,11.189,8.277,12.451,3.748,6.72,3.748,6.72.773-12.62-3.011-15.788A16.807,16.807,0,0,0,3185.275,1156.749Z" transform="translate(-3153.618 -1151.971)"/><path class="r" d="M3199.405,1186.731c-.681,1.724-.288,3.5.877,3.956s2.662-.564,3.344-2.289.288-3.5-.877-3.956S3200.087,1185.006,3199.405,1186.731Z" transform="translate(-3161.316 -1167.362)"/></g><path class="x" d="M3085.475,1056.356s9.1.4,10.169.4,4.179-3.215,4.179-3.215Z" transform="translate(-3085.475 -1051.568)"/></g><path class="l" d="M3071.754,915.988a35.328,35.328,0,1,1-49.211-8.622A35.329,35.329,0,0,1,3071.754,915.988Z" transform="translate(-3007.507 -900.953)"/><path class="y" d="M3074.276,926.428a29.644,29.644,0,1,1-41.295-7.235A29.643,29.643,0,0,1,3074.276,926.428Z" transform="translate(-3014.681 -908.127)"/><g transform="translate(22.8 13.747)"><path class="l" d="M3075.041,974.49l-1.293-4.777a24.03,24.03,0,0,1-6.31.555,3.012,3.012,0,0,1-2.856-2.969l0-.191a3.006,3.006,0,0,1,3.191-3.046,17.541,17.541,0,0,0,5.709-.535c2.866-.776,4.528-2.413,3.984-4.424-.516-1.911-2.453-2.683-6.514-2.933-5.87-.355-10.221-1.877-11.54-6.755-1.2-4.425.983-8.738,6.078-11.249l-1.292-4.777,4.928-1.333,1.2,4.425a22.219,22.219,0,0,1,4.768-.579,3.006,3.006,0,0,1,3.006,2.974h0a3.008,3.008,0,0,1-3.073,3.05,16,16,0,0,0-4.587.568c-3.269.884-3.944,2.578-3.563,3.986.448,1.659,2.494,2.239,7.2,2.693,6.555.494,9.718,2.607,10.941,7.133,1.211,4.476-.924,9.155-6.436,11.724l1.388,5.13Z" transform="translate(-3059.089 -932.054)"/></g><path class="r" d="M3108.48,1053.224l3.757-3.377s-1.773-2.119-1.036-2.526c1.2-.661,3.25,1.9,3.066,2.521a14.721,14.721,0,0,1-2.387,2.629Z" transform="translate(-3063.848 -982.562)"/></g></g><path class="z" d="M1516.128,742.66l7.6-3.937,7.549,4.025a1.176,1.176,0,0,0,1.713-1.23l-1.4-8.44,6.161-5.936a1.176,1.176,0,0,0-.64-2.009l-8.459-1.28-3.741-7.693a1.176,1.176,0,0,0-2.109-.012l-3.83,7.649-8.473,1.182a1.176,1.176,0,0,0-.663,2l6.092,6.007-1.5,8.423A1.176,1.176,0,0,0,1516.128,742.66Z" transform="translate(-124.309 -129.443)"/><path class="aa" d="M3001.864,722.446l1.215,8.22-13.01,3.416.294,12.238-9.318,4.148,2.1,4.717,12.463-5.548-.279-11.6,13.535-3.554-1.829-12.369Z" transform="translate(-945.414 -133.135)"/><path class="ab" d="M2690.558,483.515l-1.66,8.142-13.4-1.224-3.9,11.6-10.174.723.365,5.15,13.609-.966,3.692-11,13.935,1.273,2.5-12.252Z" transform="translate(-767.077 0)"/><g transform="translate(1938.367 627.872)"><path class="ac" d="M2767.228,863.41l2.507-6.222a32.582,32.582,0,0,1-7.278-4.557,4.082,4.082,0,0,1-.661-5.545l.154-.209a4.075,4.075,0,0,1,5.939-.686,23.76,23.76,0,0,0,6.611,4.087c3.732,1.5,6.868,1.093,7.924-1.527,1-2.488-.46-4.9-4.646-8.5-6.058-5.181-9.519-10.383-6.959-16.735,2.322-5.763,8.2-8.646,15.765-7.2l2.507-6.221,6.419,2.586-2.323,5.763a30.191,30.191,0,0,1,5.628,3.271,4.076,4.076,0,0,1,.822,5.674h0a4.079,4.079,0,0,1-5.816.786,21.675,21.675,0,0,0-5.425-3.134c-4.257-1.716-6.37-.436-7.109,1.4-.872,2.161.866,4.46,5.589,8.8,6.685,5.891,8.376,10.76,6,16.654-2.349,5.829-8.481,9.144-16.54,7.418l-2.692,6.68Z" transform="translate(-2761.001 -810.101)"/></g><path class="ad" d="M2641.463,771.652a2.606,2.606,0,0,1-.447,3.284,25.632,25.632,0,0,1-8.142,4.91,20.6,20.6,0,0,1-15.85-.218,18.991,18.991,0,0,1-8.159-7.421l-3.011,1.13a1.979,1.979,0,0,1-2.549-1.158l-.029-.078a1.979,1.979,0,0,1,1.157-2.549l2.471-.927c-.4-.82-.676-1.332-.85-1.795a19.49,19.49,0,0,1-.783-2.79l-2.547.957a1.979,1.979,0,0,1-2.548-1.158h0a1.978,1.978,0,0,1,1.157-2.548l3.09-1.159a20.323,20.323,0,0,1,1.473-10.86A21.868,21.868,0,0,1,2618.316,738a22.36,22.36,0,0,1,7.728-1.532,2.669,2.669,0,0,1,2.7,2.544l0,.046a2.676,2.676,0,0,1-2.58,2.793,19.168,19.168,0,0,0-6.01,1.275,14.25,14.25,0,0,0-8.106,7.271,11.888,11.888,0,0,0-.906,7.211l17.375-6.521a1.978,1.978,0,0,1,2.548,1.157h0a1.979,1.979,0,0,1-1.157,2.549l-18.146,6.81c.241.879.482,1.757.686,2.3.26.695.521,1.39.946,2.287l18.185-6.825a2.019,2.019,0,0,1,2.6,1.182h0a2.019,2.019,0,0,1-1.182,2.6l-17.412,6.536a12.57,12.57,0,0,0,5.1,4.429,13.913,13.913,0,0,0,11.149.132,21.8,21.8,0,0,0,5.8-3.269,2.607,2.607,0,0,1,3.834.674Z" transform="translate(-732.826 -141.145)"/><path class="ae" d="M1831.7,623.577l-7.888.8-2.69-12.55-11.678-.252-3.549-9.063-4.588,1.8,4.747,12.121,11.067.239,2.8,13.056,11.87-1.2Z" transform="translate(-287.143 -66.398)"/><g transform="translate(1691.228 500.793)"><path class="af" d="M2209.709,534.19l7.069,2.331s11.208-3.632,12.313-5.916,1.415-7.827,3.009-7.979a4.829,4.829,0,0,1,5.411,4.161c.533,2.753-3.5,10.712-2.87,11.559.394.53,4.419,1.986,7.376,3a5.506,5.506,0,0,1,3.646,4.444v.006a3.033,3.033,0,0,1-1.9,3.259l-2.033.786.648,2.1a3.032,3.032,0,0,1-1.917,3.761l-1.573.527.5,1.279a3.03,3.03,0,0,1-1.957,4.008l-1.375.4.056.368a3.028,3.028,0,0,1-2.205,3.388l-1.365.358-18.826-6.213a13.431,13.431,0,0,1-4.773-2.771l-6.251-3.3a1.553,1.553,0,0,1-.728-1.888l5.8-16.691A1.549,1.549,0,0,1,2209.709,534.19Z" transform="translate(-2201.885 -522.605)"/></g><path class="ag" d="M3298.566,1003.549l1.788-8.857,8.308-3.549a1.242,1.242,0,0,0,.122-2.223l-7.871-4.436-.807-9a1.242,1.242,0,0,0-2.078-.8l-6.651,6.114-8.809-2.013a1.242,1.242,0,0,0-1.406,1.728l3.759,8.215-4.635,7.755a1.242,1.242,0,0,0,1.209,1.871l8.975-1.038,5.944,6.806A1.241,1.241,0,0,0,3298.566,1003.549Z" transform="translate(-1112.286 -273.878)"/><path class="ah" d="M1478.614,942.92l-.913-6.289,4.663-4.317a.873.873,0,0,0-.446-1.5l-6.263-1.075-2.665-5.769a.873.873,0,0,0-1.566-.041l-2.958,5.624-6.31.752a.873.873,0,0,0-.522,1.477l4.435,4.551-1.235,6.234a.874.874,0,0,0,1.243.953l5.7-2.812,5.547,3.1A.873.873,0,0,0,1478.614,942.92Z" transform="translate(-97.472 -245.483)"/><path class="ai" d="M1979.706,598.828l-.913-6.289,4.663-4.317a.874.874,0,0,0-.446-1.5l-6.263-1.075-2.666-5.769a.873.873,0,0,0-1.565-.041l-2.958,5.625-6.31.752a.873.873,0,0,0-.522,1.476l4.435,4.552-1.235,6.233a.873.873,0,0,0,1.243.953l5.7-2.812,5.547,3.1A.873.873,0,0,0,1979.706,598.828Z" transform="translate(-377.072 -53.485)"/><path class="aj" d="M2776.168,648.547l-.914-6.289,4.663-4.317a.873.873,0,0,0-.444-1.5l-6.264-1.075-2.665-5.769a.874.874,0,0,0-1.566-.04l-2.958,5.625-6.31.751a.874.874,0,0,0-.522,1.477l4.435,4.551-1.235,6.234a.874.874,0,0,0,1.244.953l5.7-2.811,5.547,3.1A.873.873,0,0,0,2776.168,648.547Z" transform="translate(-821.484 -81.227)"/><path class="ak" d="M2494.285,598.828l-.913-6.289,4.663-4.317a.874.874,0,0,0-.447-1.5l-6.262-1.075-2.666-5.769a.873.873,0,0,0-1.565-.041l-2.958,5.625-6.31.752a.873.873,0,0,0-.521,1.476l4.435,4.552-1.235,6.233a.873.873,0,0,0,1.243.953l5.7-2.812,5.547,3.1A.873.873,0,0,0,2494.285,598.828Z" transform="translate(-664.198 -53.485)"/><path class="i" d="M22.073,0h84.788a22.073,22.073,0,0,1,22.073,22.073V77.557a22.074,22.074,0,0,1-22.074,22.074H22.073A22.073,22.073,0,0,1,0,77.558V22.073A22.073,22.073,0,0,1,22.073,0Z" transform="translate(1419.419 837.916)"/><g transform="translate(1407.796 767.448)"><rect class="k" width="153.061" height="289.681" rx="38.464"/><rect class="l" width="246.665" height="135.99" rx="36.771" transform="translate(145.655 12.203) rotate(90)"/></g><g transform="translate(1456.624 605.459)"><path class="r" d="M1874.367,927.179a6.518,6.518,0,0,0,.382-2.717,47.376,47.376,0,0,0-.595-6.2c-.169-.566,7.415-2.943,7.415-2.943s12.169-.623,13.98-1.981,3.336-1.918,2.49-.51a33.786,33.786,0,0,1-5.886,6.793c-.793.509-10.246,2.886-10.415,2.886s-.113,5.943-.113,5.943Z" transform="translate(-1784.412 -844.552)"/><g transform="translate(44.028 79.294)"><path class="al" d="M1839.878,939.586s-7.879-1.339-8.023-.552c-3.184,17.434-3.724,23.2-4.075,23.377-1.2.617-18.35-14.435-21.184-15.42a11.809,11.809,0,0,0-4.245-.351c-3.371.1-4.036.112-4.036.112l-.124.008.018,3.171c3.8,3.417,12.494,55.182,13.226,55.148.819-.038,18.005,4.287,17.7,2.839-.05-.235-11.653-9.73-14.943-23.433-1.1-4.6-1.651-9.554-2.249-13.889,3.819,1.915,18.733,9.255,21.1,8.285C1840.4,975.865,1839.878,939.586,1839.878,939.586Z" transform="translate(-1786.056 -938.786)"/><path class="r" d="M1959.464,1141.473s15.991,12.526,16.524,14.746c.768,3.2,15.411-1.006,11.88-1.657-.813-.15-3.413-.809-3.626-.924-1.143-.611-15.372-17.757-15.372-17.757Z" transform="translate(-1876.042 -1048.762)"/><path class="t" d="M2014.868,1177.093l-10.21-.832s-2.918,2.416-8.527,2.529a13.069,13.069,0,0,0-.47,5.557c.073.517.16,2.078.681,2.043,1.887-.128,6.911-1.379,12.638-2.524,0,0,7.695-1.63,12.14-4.289S2014.868,1177.093,2014.868,1177.093Z" transform="translate(-1896.176 -1071.293)"/><path class="am" d="M1792.264,1069.8a69.888,69.888,0,0,0,24.661-1.062c14.985-3.506,31.556-6.747,36.411-3.924,3.908,2.272,28.312,39.147,28.312,39.147l-9.424,6.878-26.871-30.089s-34.282,12.648-41.982,11.247C1785.835,1088.8,1785.585,1074.8,1792.264,1069.8Z" transform="translate(-1780.491 -1008.506)"/><path class="am" d="M1810.171,1060.613l11.716,13.924-21.735,6.622-2.783-13.105Z" transform="translate(-1785.596 -1006.764)"/><path class="r" d="M1878.723,1204.5s-.713,19.34-1.155,22.615c-.439,3.26,8.208,13.082,7.1,9.667-.254-.786-.909-3.387-.91-3.63-.006-1.3,3.207-23.359,3.207-23.359Z" transform="translate(-1830.337 -1087.05)"/><path class="t" d="M1879.827,1272.412l-6.386-10.383s-3.512-1.42-6.276-6.3a13.076,13.076,0,0,0-5.113,2.226c-.419.31-3.28,2.4-3.081,2.884.734,1.776,4.628,5.581,8.886,9.735a114.654,114.654,0,0,0,10.488,7.517C1882.8,1280.738,1879.827,1272.412,1879.827,1272.412Z" transform="translate(-1819.964 -1115.634)"/><path class="b" d="M1838.9,1082.441c-4.095-5.46-37.142-10.646-37.142-10.646l-9.215-17.711-20.377,12.565s2.037,16.214,3.566,20.546c2.038,5.773,15.731,6.068,24.1,5.981,7.7-.079,21.752,1.49,21.752,1.49l-4.754,41.942s9.345,2.126,11.971,1.782C1829.091,1138.352,1843.992,1089.233,1838.9,1082.441Z" transform="translate(-1771.533 -1003.12)"/><path class="k" d="M1782.985,956.891l-11.5.642s-.264.081-.344.1c-.937.174-.086,33.676.75,46.189s2.528,17.769,2.528,17.769,15.593-2.768,20.377-4.626c1.986-.771,6.792-6.78,6.792-6.78a50.411,50.411,0,0,1-7.384-17.324c-1.907-8.27-4.26-22.93-5.606-25.99C1785.511,959.839,1782.985,956.891,1782.985,956.891Z" transform="translate(-1770.736 -948.888)"/></g><path class="r" d="M1772.767,933.4l-.326,10.15s7.442,12.823,11.263,11.036c3.206-1.5.36-11.254.36-11.254s-.555-2.237-1.325-4.806a18.609,18.609,0,0,1-.952-5.167C1781.867,929.887,1772.767,933.4,1772.767,933.4Z" transform="translate(-1727.659 -855.608)"/><g transform="translate(32.812 49.173)"><path class="c" d="M1782.147,883.005s3.793,5.717,4.076,10.528a24.946,24.946,0,0,1-.736,8.094l-12.169-14.546Z" transform="translate(-1760.959 -877.541)"/><path class="an" d="M1800.854,900.966c.171,1.685-.484,3.131-1.463,3.231s-1.912-1.185-2.083-2.869.483-3.132,1.462-3.231S1800.682,899.282,1800.854,900.966Z" transform="translate(-1774.331 -885.959)"/><path class="r" d="M1764.282,891.378c-.28-.06-.252,13.944,3.807,17.24s11.124,3.585,13.187.265c2.283-3.672.112-18.428-5.925-21.562S1764.282,891.378,1764.282,891.378Z" transform="translate(-1755.862 -879.508)"/><path class="c" d="M1752.751,873.829c-3.1,2.717-4.6,4.7-6.7,9.532-2.578,5.939,2.537,12.093,6.826,14.538s4.646,5.4,4.646,5.4l.177-1.822a4.564,4.564,0,0,0-.056-1.677,7.832,7.832,0,0,0-.61-1.479c-.365-.78-1.538-3.454-1.995-4.16-1.207-1.861-1.444-2.264-.849-4.033.458-1.362-.073-4.364.637-6.609l5.773-1.245s3.612-.869,5.437-2.973C1771.28,873.26,1760.923,866.521,1752.751,873.829Z" transform="translate(-1745.36 -870.643)"/><path class="r" d="M1763.8,915.5c.711,1.537.563,3.118-.329,3.531s-2.194-.5-2.9-2.034-.563-3.118.33-3.531S1763.091,913.967,1763.8,915.5Z" transform="translate(-1753.595 -894.484)"/></g><path class="ao" d="M1679.048,809.153c.656,2.7,1.839,6.957,1.839,6.957-.094,1.171-.44,6.045-.852,12.02l8.781-3.515s-.1-9.734.287-10.33c.331-.5.888.124,3.579-3.727a7.519,7.519,0,0,0,.922-3.1s.16-2.445-.389-2.672a1.141,1.141,0,0,0-1.378.56c-.2.423-.148,1.407-.346,1.829a3.042,3.042,0,0,1-2,.905c-.535-.026.067-7.232.067-7.232s.3-2.043.45-2.712c.13-.57.648-2.242.648-2.242s.61-2.425-.144-2.61c-.443-.11-1.575,1.861-2.35,3.952-.835,2.252-1.309,4.64-1.547,4.608-.561-.075-.263-4.026-.263-4.026a12.643,12.643,0,0,0,.544-2.664c.528-1.046.877-2.988-.051-3.149a16.073,16.073,0,0,0-1.4,2.437s-.481,1.736-.762,2.547c-.494,1.431-.569,3.691-.827,4.688-.215.829-.409.489-.5.523a20.926,20.926,0,0,1,.188-2.688,15.89,15.89,0,0,1,.2-2.607,19.1,19.1,0,0,0,.376-2.751c.15-2.044-1.137-1.834-1.581.034-.17.711-.348,1.488-.526,2.276-.691,3.063-.671,6.015-1,6.039-.428.032-.146-5.342-.146-5.342s-.658-2.974-1.312-.214a24.1,24.1,0,0,0-.669,5.931C1678.957,803.661,1678.393,806.457,1679.048,809.153Z" transform="translate(-1675.368 -777.592)"/><path class="ap" d="M1715.91,899.2s-11.4-.531-14.338-1.861c-1.783-.807-16.428-12.608-16.428-12.608l.164-31.6-10.3-.784s-5.341,34.924-3.491,38.747c1.911,3.948,23.348,20.2,27.635,27.252,2.469,4.063,7.62,59.319,8.4,59.817,5.547,2.887,22.676,5.77,22.272,4.019C1718.675,933.8,1715.91,899.2,1715.91,899.2Z" transform="translate(-1671.128 -811.266)"/><g transform="translate(55.699 0)"><circle class="b" cx="34.254" cy="34.254" r="34.254" transform="translate(5.705 5.705)"/><circle class="aq" cx="28.744" cy="28.744" r="28.744" transform="translate(0 47.419) rotate(-55.575)"/><g transform="translate(26.256 19.752)"><path class="l" d="M1861.345,842.746l1.635-4.511a23.309,23.309,0,0,1-5.318-3.075,2.921,2.921,0,0,1-.613-3.947l.1-.153a2.914,2.914,0,0,1,4.229-.64,17.012,17.012,0,0,0,4.829,2.755c2.707.981,4.938.608,5.626-1.291.654-1.8-.452-3.5-3.536-5.957-4.461-3.551-7.067-7.183-5.4-11.789,1.515-4.179,5.647-6.388,11.089-5.543l1.636-4.511,4.654,1.688-1.516,4.179a21.52,21.52,0,0,1,4.107,2.2,2.915,2.915,0,0,1,.731,4.036h0a2.917,2.917,0,0,1-4.138.709,15.517,15.517,0,0,0-3.957-2.1c-3.086-1.12-4.566-.151-5.047,1.178-.568,1.567.732,3.167,4.217,6.15,4.928,4.043,6.26,7.482,4.711,11.755-1.532,4.227-5.832,6.751-11.638,5.72L1866,844.433Z" transform="translate(-1856.541 -804.083)"/></g></g><path class="r" d="M1885.555,917.386s3.17-1.358,4.019-1.642,3.566-.792,3.566-.792,4.217-4.33,5.292-4.443-2.462,4.726-2.462,4.726l-1.471,1.415s2.377-2.038,2.83-2.321,4.018-5.434,4.924-5.094-1.528,3.962-2.716,5.887-6.623,3.113-6.623,3.113Z" transform="translate(-1790.774 -842.994)"/></g><g transform="translate(1337.491 973.125)"><path class="ar" d="M1513.648,1762.031h-95.5a6.939,6.939,0,0,1-6.938-6.938h0a6.938,6.938,0,0,1,6.938-6.938h95.5a6.938,6.938,0,0,1,6.938,6.938h0A6.938,6.938,0,0,1,1513.648,1762.031Z" transform="translate(-1406.966 -1678.771)"/><path class="b" d="M6.938,0h95.5a6.938,6.938,0,0,1,6.938,6.938v0a6.938,6.938,0,0,1-6.938,6.938H6.938A6.938,6.938,0,0,1,0,6.938v0A6.938,6.938,0,0,1,6.938,0Z" transform="translate(2.303 55.508)"/><path class="as" d="M1534.608,1699.245h-95.5a6.938,6.938,0,0,1-6.938-6.938h0a6.938,6.938,0,0,1,6.938-6.938h95.5a6.938,6.938,0,0,1,6.938,6.938h0A6.938,6.938,0,0,1,1534.608,1699.245Z" transform="translate(-1418.662 -1643.738)"/><path class="at" d="M1508.439,1667.846h-95.5a6.938,6.938,0,0,1-6.938-6.938h0a6.938,6.938,0,0,1,6.938-6.938h95.5a6.938,6.938,0,0,1,6.938,6.938h0A6.938,6.938,0,0,1,1508.439,1667.846Z" transform="translate(-1404.06 -1626.218)"/><path class="au" d="M1504.047,1636.454h-95.5a6.939,6.939,0,0,1-6.939-6.938h0a6.938,6.938,0,0,1,6.939-6.938h95.5a6.938,6.938,0,0,1,6.938,6.938h0A6.938,6.938,0,0,1,1504.047,1636.454Z" transform="translate(-1401.609 -1608.701)"/><path class="av" d="M1529.4,1605.061h-95.5a6.939,6.939,0,0,1-6.938-6.938h0a6.938,6.938,0,0,1,6.938-6.938h95.5a6.938,6.938,0,0,1,6.938,6.938h0A6.938,6.938,0,0,1,1529.4,1605.061Z" transform="translate(-1415.755 -1591.184)"/></g><g transform="translate(1441.052 835.338)"><path class="k" d="M1720.317,1421.129h-78.234a6.183,6.183,0,0,1-6.183-6.182h0a6.183,6.183,0,0,1,6.183-6.182h78.234a6.183,6.183,0,0,1,6.182,6.182h0A6.182,6.182,0,0,1,1720.317,1421.129Z" transform="translate(-1635.9 -1351.61)"/><g transform="translate(13.132)"><path class="b" d="M1732.263,1302.582a34.254,34.254,0,1,1-43.533-21.248A34.254,34.254,0,0,1,1732.263,1302.582Z" transform="translate(-1665.609 -1279.462)"/><path class="aw" d="M1734.01,1311.333a28.744,28.744,0,1,1-36.53-17.831A28.743,28.743,0,0,1,1734.01,1311.333Z" transform="translate(-1672.567 -1286.419)"/><g transform="translate(23.934 13.403)"><path class="n" d="M1727.674,1350.99l.079-4.8a23.265,23.265,0,0,1-6.029-1.178,2.92,2.92,0,0,1-1.863-3.533l.049-.179a2.915,2.915,0,0,1,3.791-1.981,16.992,16.992,0,0,0,5.462,1.034c2.879.048,4.867-1.031,4.9-3.051.031-1.918-1.564-3.158-5.281-4.482-5.373-1.907-9.019-4.493-8.938-9.392.073-4.444,3.262-7.877,8.683-8.849l.08-4.8,4.949.082-.073,4.445a21.542,21.542,0,0,1,4.6.741,2.915,2.915,0,0,1,2,3.578h0a2.918,2.918,0,0,1-3.683,2.016,15.52,15.52,0,0,0-4.426-.7c-3.282-.054-4.366,1.342-4.39,2.756-.028,1.666,1.723,2.756,5.989,4.444,5.975,2.22,8.353,5.038,8.278,9.583-.074,4.495-3.32,8.281-9.144,9.195l-.085,5.151Z" transform="translate(-1719.756 -1309.783)"/></g></g></g><g transform="translate(1433.651 925.799)"><path class="k" d="M1719.9,1501.806H1628a8.844,8.844,0,0,1-8.844-8.844h0a8.844,8.844,0,0,1,8.844-8.844h91.9a8.844,8.844,0,0,1,8.845,8.844h0A8.844,8.844,0,0,1,1719.9,1501.806Z" transform="translate(-1619.157 -1484.117)"/><path class="t" d="M1687.8,1492.961h0a8.844,8.844,0,0,0-8.844-8.844H1628a8.844,8.844,0,0,0-8.844,8.844h0a8.844,8.844,0,0,0,8.844,8.844h50.955A8.844,8.844,0,0,0,1687.8,1492.961Z" transform="translate(-1619.157 -1484.117)"/></g><g transform="translate(1471.115 969.023)"><path class="a" d="M1728.594,1596.116v-3.386a10.826,10.826,0,0,0-21.653,0v3.4a5.9,5.9,0,0,0-3.029,5.154v12.577a5.9,5.9,0,0,0,5.9,5.9h15.925a5.9,5.9,0,0,0,5.9-5.9v-12.577A5.9,5.9,0,0,0,1728.594,1596.116Zm-18.781-.738c-.034,0-.066,0-.1.005v-2.653a8.054,8.054,0,1,1,16.107,0v2.652c-.028,0-.055,0-.084,0Z" transform="translate(-1703.912 -1581.905)"/><g transform="translate(12.052 22.181)"><path class="l" d="M1736.046,1634.023a1.936,1.936,0,1,1-1.936-1.937A1.937,1.937,0,0,1,1736.046,1634.023Z" transform="translate(-1731.733 -1632.086)"/><path class="l" d="M1733.553,1633.481l-2.376,9.9h4.753Z" transform="translate(-1731.177 -1632.865)"/></g></g><g transform="translate(1638.098 749.039)"><path class="k" d="M2182.636,1142.345V1128.5a44.279,44.279,0,0,0-88.559,0v13.881a24.127,24.127,0,0,0-12.391,21.086v51.44a24.138,24.138,0,0,0,24.138,24.139h65.132a24.139,24.139,0,0,0,24.138-24.139v-51.44A24.129,24.129,0,0,0,2182.636,1142.345Zm-76.812-3.013c-.136,0-.27.009-.406.011V1128.5a32.939,32.939,0,1,1,65.878,0v10.838c-.113,0-.226-.009-.34-.009Z" transform="translate(-2081.687 -1084.223)"/><g transform="translate(47.475 87.108)"><path class="ax" d="M2212.163,1292.827a11.536,11.536,0,1,1-11.537-11.536A11.536,11.536,0,0,1,2212.163,1292.827Z" transform="translate(-2189.09 -1281.291)"/><path class="ay" d="M2202.919,1295.173l-9.72,40.5h19.439Z" transform="translate(-2191.383 -1289.037)"/></g></g><g transform="translate(1745.874 718.321)"><g transform="translate(66.963 45.79)"><path class="ao" d="M2492.358,1131.2c-1.523,4.224-2.185,3.81-2.365,4.356-.214.647,2.265,9.416,2.265,9.416s7.128,25.891,7.563,27.276l17.981,21.5-8.389,11.7s-18.925-23.892-19.691-25.309-6.22-37.5-6.805-40.658c0,0-2.126-3.524-3.386-5.779s-1.427-4.938-1.682-5.626a22.284,22.284,0,0,1-.839-5.545c-.076-2.675,1.253-.169,1.253-.169s1.057,4.935,1.441,4.787c.3-.113-.444-2.775-.56-5.735-.031-.761,1.675-.89,1.69-.079a14.817,14.817,0,0,0,.456,2.411,19.369,19.369,0,0,0,.485,2.482c.073-.055.334.2.328-.61a44.415,44.415,0,0,1-.39-4.465c.058-.811.074-2.513.074-2.513s1.726-.848,1.5.244a11.823,11.823,0,0,1,.153,2.558s.7,3.653,1.226,3.566c.227-.037.076-2.326.289-4.592.2-2.1,1.955-1.9,1.955-1.9s-.066,1.654-.044,2.2c.025.646.252,2.575.252,2.575s.916,5.945,1.411,5.821,1.643-.736,1.721-1.173-.751-2.6-.673-3.039.75-.515,1.309-.46,1.555,3.709,1.555,3.709A7.082,7.082,0,0,1,2492.358,1131.2Z" transform="translate(-2477.008 -1118.321)"/><path class="x" d="M2497.743,1142.449a4.749,4.749,0,0,0-2.415,1.042c-1.169.952-1.367,3.852-1.367,3.852a10.07,10.07,0,0,1-.213-3.772C2494.117,1142.239,2496.432,1141.885,2497.743,1142.449Z" transform="translate(-2486.28 -1131.64)"/></g><path class="r" d="M2702.245,1110.1a5.569,5.569,0,0,1,1.08,0,3,3,0,0,1,1.377,2.105c0,1.4.4,1.281.4,1.281l.861,6.439-.769,2.115a18.34,18.34,0,0,1-2.11-3.791C2702.041,1115.149,2701.37,1110.517,2702.245,1110.1Z" transform="translate(-2535.498 -1067.928)"/><g transform="translate(0)"><path class="k" d="M2521.985,1087.635l-144.194,13.048-1.281-16.6-8.593.663,1.279,16.595-11.027.85-1.391-18.034-11.072.854,1.391,18.034-21.585,1.665.918,11.895,24.039-1.854,1.938,25.122,30.284-2.336-1.937-25.121,142.2-13.32Z" transform="translate(-2325.513 -1053.429)"/><path class="k" d="M2775.481,1014.728c-15.133,0-27.4,17.3-27.4,38.639s12.267,38.639,27.4,38.639,27.4-17.3,27.4-38.639S2790.614,1014.728,2775.481,1014.728Zm0,61.8c-9.071,0-16.423-10.369-16.423-23.16s7.353-23.16,16.423-23.16,16.424,10.369,16.424,23.16S2784.552,1076.526,2775.481,1076.526Z" transform="translate(-2561.299 -1014.728)"/></g><path class="r" d="M2685.376,1094.908s-.911-4.165-1.263-5.334-2.292-3.626-2.6-3.275a2.14,2.14,0,0,0,.117,1.942c.327.561,1.333,3.673,1.333,3.673l.234,4.351a38.121,38.121,0,0,0-.86-4.489,27.735,27.735,0,0,0-1.957-3.527c-.052-.052-1.167-1.138-1.739-1.7a.494.494,0,0,0-.82.209,1.045,1.045,0,0,0-.028.379,4.8,4.8,0,0,0,1.1,2.105,13.789,13.789,0,0,1,1.568,3.229c.267.959.538,4.024.328,4.024s-.527-2.695-.872-3.538a12.837,12.837,0,0,0-1.913-2.649c-.561-.632-2.2-2.047-2.9-2.047s1.075,2.363,1.216,2.573,1.614,2.456,1.614,2.456.772,3.369.352,3.369-4.125-6.613-4.352-5.474c-.211,1.053,2.084,5.005,2.316,5.755.167.542.907,6.381,1.333,10.247.133,1.207.923,2.1.771,2.737-.631,2.667-9.125,38.1-9.125,38.1s-7.088,10.324-9.123,12.991-6.878,9.966-6.878,9.966l11.931,7.112,17.032-27.886s3.6-44.166,3.673-44.189Z" transform="translate(-2508.374 -1054.644)"/><path class="r" d="M2434.756,1646.014a96.59,96.59,0,0,0-1.089,13.739c-.031.567.229,3.156.263,3.521-5.8,2.962-9.317,3.23-15.472,4.642,1.542-2.8,4.583-2.593,4.99-3.77.491-1.422.19-6.971-.947-16.035C2426.775,1649.142,2430.539,1647.1,2434.756,1646.014Z" transform="translate(-2377.375 -1366.974)"/><path class="r" d="M2555.161,1689.361a62.88,62.88,0,0,0,4.954,11.688c.181.308,1.721,1.346,1.917,1.66-3.862,5.122-5.053,13.256-9.939,17.133.116-3.171,1.837-9.236,1.67-10.468-.2-1.489-2.984-6.358-8.105-14.039C2549.961,1694.453,2551.863,1692.121,2555.161,1689.361Z" transform="translate(-2448.349 -1391.161)"/><path class="u" d="M2563.1,1718.457c.466-1.441,2.3-2.551,3.731-1.825s3.339,1.506,4.774,2.31c1.614.9,1.815,2.04,1.8,2.3-.051.757-14.083,22.675-19.689,23.818-2.3.469,1.484-17.964,3.885-19.919C2559.729,1723.405,2561,1724.94,2563.1,1718.457Z" transform="translate(-2452.444 -1406.25)"/><path class="u" d="M2416.708,1681.292c1.4-.677,3.511-.177,3.969,1.313s1.212,3.352,1.617,4.9a2.832,2.832,0,0,1-.458,2.84c-.6.491-29.361,4.181-31.314,2.919s14.222-11.437,17.358-11.134C2410.669,1682.4,2410.412,1684.34,2416.708,1681.292Z" transform="translate(-2361.696 -1386.493)"/><path class="c" d="M2481.466,1448.1l29.63,9.217-37.121,28.081-36.045,6.522s-2.767,33.379-2.992,46.656c-3.708,1.522-10.566,3.455-14.415,3-2.685-18.436-5.447-56.52-2.16-62.354C2421.2,1474.17,2481.466,1448.1,2481.466,1448.1Z" transform="translate(-2376.486 -1256.539)"/><path class="az" d="M2520.922,1447c1.538-2.907,1.808-8.778,1.808-8.778l18.958,13.167,5.639,3.291s1.155,13.878-6.084,22.182-41.344,30.818-41.344,30.818,12.09,31.2,17.719,42.886c-2.855,3.18-7.7,7.118-11.827,8.576-5.16-8.411-33.055-46.829-31.755-55.353C2475,1497.488,2519.383,1449.9,2520.922,1447Z" transform="translate(-2408.363 -1251.027)"/><path class="l" d="M2588.474,1266.048s-10.944,10.881-17.158,13.441a31.188,31.188,0,0,1-6.005,1.685c-6.276.351-22.458-15.011-22.458-15.011s-8.771,11.835-8.7,13.561c.062,1.471,10.051,11.477,10.674,15.18,1.943,11.553-1.236,52.141-1.236,52.141,8.623,6.711,37.934,12.414,37.934,12.414s6.333-62.542,6.856-62.992c2.166-1.865,12.5-17.361,12.9-19.152C2602.007,1274.088,2588.474,1266.048,2588.474,1266.048Z" transform="translate(-2441.931 -1154.96)"/><path class="r" d="M2598.551,1276.914l-1.463,5.97s-.335,5.2,2.078,5.665c2.911.564,7.234-3.791,7.234-3.791l2.5-16.837Z" transform="translate(-2477.038 -1156.005)"/><path class="x" d="M2609.366,1268.1l-10.327,8.915-1.094,4.46C2601.892,1280.521,2607.521,1276.177,2609.366,1268.1Z" transform="translate(-2477.525 -1156.103)"/><path class="r" d="M2590.148,1233.05a6.1,6.1,0,0,0-5.625,4.218,53.211,53.211,0,0,0-2.253,8.644c-1.094,6.475,2.594,12.4,5.8,12.875s10.85-1.652,12.54-10.823c.724-3.932,1.677-9.089-1.556-11.8A14.534,14.534,0,0,0,2590.148,1233.05Z" transform="translate(-2468.67 -1136.548)"/><path class="t" d="M2599.018,1244.356s11.31-10.079,11.8-17.953-6.778-12.091-13-12.311a42.174,42.174,0,0,0-7.611.392c-6.229.786-10.267,3.547-8.845,8.651,1.907,6.853,14.837,1.071,17.481,3.2,2.181,1.755-1.355,5.977.764,7.588,1.992,1.514.977,1,.317,3.879A50.768,50.768,0,0,0,2599.018,1244.356Z" transform="translate(-2468.117 -1125.952)"/><path class="r" d="M2626.222,1257.228c-.28,1.887-1.434,3.28-2.576,3.111s-1.842-1.834-1.561-3.721,1.433-3.28,2.576-3.111S2626.5,1255.342,2626.222,1257.228Z" transform="translate(-2490.96 -1147.954)"/><path class="ao" d="M2502.062,1130.971s2.384,3.086,2.384,5.247a9.462,9.462,0,0,1-1.224,4.214l-4.938-3.739a17.189,17.189,0,0,0,2.529-1.659c.592-.592-.837-2.726-.47-3.6S2501.459,1130.115,2502.062,1130.971Z" transform="translate(-2421.916 -1079.333)"/></g><g transform="translate(1664.467 981.152)"><path class="l" d="M2219.882,1638.671a35.327,35.327,0,1,1-49.211-8.623A35.328,35.328,0,0,1,2219.882,1638.671Z" transform="translate(-2149.318 -1617.318)"/><circle class="ba" cx="29.644" cy="29.644" r="29.644" transform="matrix(0.783, -0.621, 0.621, 0.783, 0, 36.845)"/><g transform="translate(29.117 20.064)"><path class="l" d="M2223.169,1697.172l-1.292-4.777a24,24,0,0,1-6.311.555,3.011,3.011,0,0,1-2.856-2.969l0-.191a3.006,3.006,0,0,1,3.19-3.046,17.529,17.529,0,0,0,5.709-.536c2.867-.775,4.529-2.411,3.985-4.423-.517-1.911-2.453-2.682-6.514-2.934-5.87-.355-10.222-1.876-11.541-6.754-1.2-4.425.982-8.739,6.078-11.25l-1.292-4.777,4.929-1.333,1.2,4.425a22.234,22.234,0,0,1,4.768-.579,3.007,3.007,0,0,1,3.008,2.974h0a3.009,3.009,0,0,1-3.073,3.05,15.992,15.992,0,0,0-4.588.568c-3.268.884-3.944,2.577-3.563,3.985.449,1.66,2.495,2.24,7.2,2.693,6.555.494,9.716,2.607,10.941,7.133,1.21,4.476-.925,9.154-6.436,11.724l1.388,5.129Z" transform="translate(-2207.216 -1654.737)"/></g></g></g></svg>