<svg xmlns="http://www.w3.org/2000/svg" xmlns:xlink="http://www.w3.org/1999/xlink" width="171.409" height="19.433" viewBox="0 0 171.409 19.433"><defs><style>.a{fill:#fff;}.b{clip-path:url(#a);}</style><clipPath id="a"><path class="a" d="M869.9,396.329l-8.116,18.784h4.437l1.755-4.058h.017l1.27-2.949.314-.733h-.008l2.375-5.455,1.895,4.4v0l.453,1.052h-.006l.312.733,1.27,2.949h.017l1.754,4.058h4.438l-8.116-18.784Z" transform="translate(-861.782 -396.329)"/></clipPath></defs><g transform="translate(-861.782 -396.329)"><g transform="translate(861.782 396.329)"><path class="a" d="M869.9,396.329l-8.116,18.784h4.437l1.755-4.058h.017l1.27-2.949.314-.733h-.008l2.375-5.455,1.895,4.4v0l.453,1.052h-.006l.312.733,1.27,2.949h.017l1.754,4.058h4.438l-8.116-18.784Z" transform="translate(-861.782 -396.329)"/><g class="b"><rect class="a" width="20.291" height="18.784"/></g></g><path class="a" d="M1164.527,416.6l-1.728-4.014h-7.788l-1.728,4.014h-4.412l8.027-18.581h4.013l8.028,18.581Zm-5.609-13.051-2.339,5.4h4.652Z" transform="translate(-150.778 -0.89)"/><path class="a" d="M934.56,400.588a8.678,8.678,0,0,1,2.648,6.741,9.1,9.1,0,0,1-2.582,6.833q-2.583,2.516-7.88,2.516h-6.33V398.165h6.542q4.953,0,7.6,2.423m-3.033,11.005a5.431,5.431,0,0,0,1.523-4.158,5.565,5.565,0,0,0-1.523-4.2,6.511,6.511,0,0,0-4.675-1.47h-2.3v11.256h2.621a6.128,6.128,0,0,0,4.357-1.43" transform="translate(-30.795 -0.964)"/><path class="a" d="M970.31,413.2a5.844,5.844,0,0,0,4.772-2.31l2.539,2.615a9.577,9.577,0,0,1-13.874.812A9.379,9.379,0,0,1,963.8,401.2a9.106,9.106,0,0,1,6.613-2.64,9.372,9.372,0,0,1,7.311,3.326l-2.462,2.793a5.77,5.77,0,0,0-4.671-2.336,5.441,5.441,0,0,0-3.82,1.46,5.084,5.084,0,0,0-1.587,3.935,5.369,5.369,0,0,0,1.5,3.973,4.943,4.943,0,0,0,3.63,1.5" transform="translate(-52.159 -1.169)"/><path class="a" d="M1005.223,402.5a1.531,1.531,0,0,0-.571,1.244,1.4,1.4,0,0,0,.7,1.231,12.719,12.719,0,0,0,3.224,1.079,9.079,9.079,0,0,1,3.922,1.866,4.61,4.61,0,0,1,1.4,3.63,4.79,4.79,0,0,1-1.79,3.872,7.135,7.135,0,0,1-4.709,1.485,10.9,10.9,0,0,1-7.591-3.123l2.361-2.893q2.869,2.513,5.306,2.513a2.784,2.784,0,0,0,1.714-.47,1.506,1.506,0,0,0,.622-1.269,1.481,1.481,0,0,0-.66-1.27,8.624,8.624,0,0,0-2.614-.952,11.359,11.359,0,0,1-4.531-1.917,4.525,4.525,0,0,1-1.434-3.706,4.594,4.594,0,0,1,1.816-3.9,7.3,7.3,0,0,1,4.531-1.371,10.9,10.9,0,0,1,3.554.609,9.528,9.528,0,0,1,3.1,1.726l-2.005,2.894a7.815,7.815,0,0,0-4.773-1.752,2.387,2.387,0,0,0-1.561.47" transform="translate(-72.488 -1.169)"/><path class="a" d="M1046.989,407.668h3.986v6.3a9.317,9.317,0,0,1-7.312,2.945,9.029,9.029,0,0,1-6.562-2.59,9.378,9.378,0,0,1,.051-13.124,9,9,0,0,1,6.524-2.64,9.651,9.651,0,0,1,6.639,2.513l-2.056,2.97a7.86,7.86,0,0,0-2.2-1.434,5.9,5.9,0,0,0-2.171-.394,5.2,5.2,0,0,0-3.807,1.536,6.13,6.13,0,0,0-.064,8.073,4.794,4.794,0,0,0,3.541,1.51,6.793,6.793,0,0,0,3.427-.787Z" transform="translate(-90.684 -1.169)"/><path class="a" d="M1090.49,414.256a9.668,9.668,0,0,1-13.252,0,9.286,9.286,0,0,1,0-13.074,9.669,9.669,0,0,1,13.252,0,9.286,9.286,0,0,1,0,13.074m-1.346-6.524a5.808,5.808,0,0,0-1.523-4.049,5.021,5.021,0,0,0-7.489,0,6.127,6.127,0,0,0,0,8.085,5.047,5.047,0,0,0,7.489,0,5.761,5.761,0,0,0,1.523-4.036" transform="translate(-111.743 -1.169)"/><path class="a" d="M1132.252,399.693a6.33,6.33,0,0,1,1.953,5.1q0,3.441-2.006,5.036t-6.125,1.595H1123.6v5.182h-4.147V398.032h6.565q4.279,0,6.232,1.661M1129.209,407a3.571,3.571,0,0,0,.744-2.445,2.592,2.592,0,0,0-.97-2.286,5.332,5.332,0,0,0-3.017-.678H1123.6v6.245h2.79a3.7,3.7,0,0,0,2.818-.837" transform="translate(-135.329 -0.894)"/><path class="a" d="M1197.482,416.657h-4.156V409.3l-6.448-11.271h4.5l4.023,6.928,4.024-6.928h4.5l-6.448,11.271Z" transform="translate(-170.739 -0.895)"/></g></svg>