<svg xmlns="http://www.w3.org/2000/svg" width="183.288" height="31.326" viewBox="0 0 183.288 31.326"><defs><style>.a{fill:#0149ba;}.b{fill:#5e6c6c;}.c{fill:none;stroke:#000;stroke-miterlimit:10;opacity:0;}</style></defs><g transform="translate(0)"><path class="a" d="M851.4,777.843V770.9a4.292,4.292,0,0,0-1.169-1.03,2.687,2.687,0,0,0-1.349-.334,2.409,2.409,0,0,0-2.122,1.244,7.269,7.269,0,0,0-.789,3.82,8.134,8.134,0,0,0,.683,3.943,2.164,2.164,0,0,0,1.956,1.121A3.256,3.256,0,0,0,851.4,777.843Zm4.791-17.68v22.5h-4.244l-.243-1.88a5.336,5.336,0,0,1-4.579,2.4,5.166,5.166,0,0,1-4.564-2.3,12.963,12.963,0,0,1-.742-10.7,7.007,7.007,0,0,1,2.32-3.032,5.7,5.7,0,0,1,3.441-1.092,5.186,5.186,0,0,1,3.821,1.515v-7.914Z" transform="translate(-841 -758.07)"/><path class="a" d="M876.562,765.492v16.1H871.77v-16.1Zm-.38-7.718a2.782,2.782,0,0,1,0,3.912,2.835,2.835,0,0,1-2.046.773,2.783,2.783,0,0,1-2.033-.773,2.82,2.82,0,0,1,0-3.912,2.779,2.779,0,0,1,2.033-.774A2.831,2.831,0,0,1,876.182,757.774Z" transform="translate(-853.251 -757)"/><path class="a" d="M889.069,772.833a2.787,2.787,0,0,0-.651,1.956,2.875,2.875,0,0,0,.651,2.016,2.623,2.623,0,0,0,3.578.015,3.059,3.059,0,0,0,.622-2.092q0-2.609-2.426-2.608A2.287,2.287,0,0,0,889.069,772.833Zm10.356-2.411a12.974,12.974,0,0,1-4.64.637,5.468,5.468,0,0,1,2.3,1.637,4.1,4.1,0,0,1,.728,2.518,4.9,4.9,0,0,1-.819,2.775,5.461,5.461,0,0,1-2.351,1.925,8.6,8.6,0,0,1-3.594.7,9.085,9.085,0,0,1-1.849-.182.858.858,0,0,0-.38.379,1.136,1.136,0,0,0-.136.531.836.836,0,0,0,.349.712,2.6,2.6,0,0,0,1.41.258h2.427a8.074,8.074,0,0,1,3.245.607,5.029,5.029,0,0,1,2.152,1.668,4.021,4.021,0,0,1,.758,2.395,4.437,4.437,0,0,1-2.168,3.927,11.513,11.513,0,0,1-6.262,1.41,13.907,13.907,0,0,1-4.64-.621,4.424,4.424,0,0,1-2.381-1.744,5.346,5.346,0,0,1-.682-2.82H887.2a2.014,2.014,0,0,0,.288,1.152,1.8,1.8,0,0,0,1.046.638,8.621,8.621,0,0,0,2.185.212,5.588,5.588,0,0,0,2.728-.471,1.5,1.5,0,0,0,.759-1.349,1.356,1.356,0,0,0-.577-1.152,2.9,2.9,0,0,0-1.728-.425h-2.335a6.312,6.312,0,0,1-3.715-.895,2.721,2.721,0,0,1-1.227-2.289,3.221,3.221,0,0,1,.514-1.714,4.25,4.25,0,0,1,1.4-1.381,5.633,5.633,0,0,1-2.2-1.925,5.021,5.021,0,0,1-.682-2.683,5.259,5.259,0,0,1,1.941-4.291,7.821,7.821,0,0,1,5.125-1.592,12.429,12.429,0,0,0,4.108-.485,17.36,17.36,0,0,0,3.471-1.607Z" transform="translate(-857.932 -760.991)"/><path class="a" d="M917.864,765.492v16.1h-4.791v-16.1Zm-.379-7.718a2.782,2.782,0,0,1,0,3.912,2.834,2.834,0,0,1-2.047.773,2.783,2.783,0,0,1-2.033-.773,2.824,2.824,0,0,1,0-3.912,2.779,2.779,0,0,1,2.033-.774A2.829,2.829,0,0,1,917.486,757.774Z" transform="translate(-869.942 -757)"/><path class="b" d="M939.741,763.257a10.177,10.177,0,0,1,3,1.789l-2.638,3.124a8.633,8.633,0,0,0-1.82-1.062,4.858,4.858,0,0,0-1.88-.363,3.53,3.53,0,0,0-3.124,1.729,9.711,9.711,0,0,0-1.122,5.215,9.441,9.441,0,0,0,1.138,5.187,3.6,3.6,0,0,0,3.169,1.7,4.635,4.635,0,0,0,2.016-.439,11.106,11.106,0,0,0,2.017-1.288L942.985,782A10.01,10.01,0,0,1,940,784.029a9.055,9.055,0,0,1-3.776.788,10.274,10.274,0,0,1-5.231-1.289,8.542,8.542,0,0,1-3.441-3.79,13.768,13.768,0,0,1-1.213-6.051,13.156,13.156,0,0,1,1.244-5.943,8.882,8.882,0,0,1,3.457-3.79,9.85,9.85,0,0,1,5.095-1.3A10.153,10.153,0,0,1,939.741,763.257Z" transform="translate(-875.487 -759.283)"/><path class="c" d="M939.741,763.257a10.177,10.177,0,0,1,3,1.789l-2.638,3.124a8.633,8.633,0,0,0-1.82-1.062,4.858,4.858,0,0,0-1.88-.363,3.53,3.53,0,0,0-3.124,1.729,9.711,9.711,0,0,0-1.122,5.215,9.441,9.441,0,0,0,1.138,5.187,3.6,3.6,0,0,0,3.169,1.7,4.635,4.635,0,0,0,2.016-.439,11.106,11.106,0,0,0,2.017-1.288L942.985,782A10.01,10.01,0,0,1,940,784.029a9.055,9.055,0,0,1-3.776.788,10.274,10.274,0,0,1-5.231-1.289,8.542,8.542,0,0,1-3.441-3.79,13.768,13.768,0,0,1-1.213-6.051,13.156,13.156,0,0,1,1.244-5.943,8.882,8.882,0,0,1,3.457-3.79,9.85,9.85,0,0,1,5.095-1.3A10.153,10.153,0,0,1,939.741,763.257Z" transform="translate(-875.487 -759.283)"/><path class="b" d="M967.842,784.642v-8.763h-5.58v8.763h-5.61V763.567h5.61v7.975h5.58v-7.975h5.61v21.076Z" transform="translate(-887.738 -759.654)"/><path class="c" d="M967.842,784.642v-8.763h-5.58v8.763h-5.61V763.567h5.61v7.975h5.58v-7.975h5.61v21.076Z" transform="translate(-887.738 -759.654)"/><path class="b" d="M1003.482,763.567l-.576,3.972h-7.188v4.488H1002v3.852h-6.277v4.79h7.673v3.973H990.109V763.567Z" transform="translate(-901.258 -759.654)"/><path class="c" d="M1003.482,763.567l-.576,3.972h-7.188v4.488H1002v3.852h-6.277v4.79h7.673v3.973H990.109V763.567Z" transform="translate(-901.258 -759.654)"/><path class="b" d="M1027.858,763.257a10.192,10.192,0,0,1,3,1.789l-2.638,3.124a8.621,8.621,0,0,0-1.82-1.062,4.859,4.859,0,0,0-1.88-.363,3.529,3.529,0,0,0-3.124,1.729,9.71,9.71,0,0,0-1.122,5.215,9.441,9.441,0,0,0,1.138,5.187,3.6,3.6,0,0,0,3.169,1.7,4.635,4.635,0,0,0,2.016-.439,11.125,11.125,0,0,0,2.018-1.288L1031.1,782a10,10,0,0,1-2.986,2.032,9.059,9.059,0,0,1-3.776.788,10.273,10.273,0,0,1-5.231-1.289,8.538,8.538,0,0,1-3.441-3.79,13.759,13.759,0,0,1-1.213-6.051,13.157,13.157,0,0,1,1.244-5.943,8.884,8.884,0,0,1,3.457-3.79,9.852,9.852,0,0,1,5.095-1.3A10.157,10.157,0,0,1,1027.858,763.257Z" transform="translate(-911.096 -759.283)"/><path class="c" d="M1027.858,763.257a10.192,10.192,0,0,1,3,1.789l-2.638,3.124a8.621,8.621,0,0,0-1.82-1.062,4.859,4.859,0,0,0-1.88-.363,3.529,3.529,0,0,0-3.124,1.729,9.71,9.71,0,0,0-1.122,5.215,9.441,9.441,0,0,0,1.138,5.187,3.6,3.6,0,0,0,3.169,1.7,4.635,4.635,0,0,0,2.016-.439,11.125,11.125,0,0,0,2.018-1.288L1031.1,782a10,10,0,0,1-2.986,2.032,9.059,9.059,0,0,1-3.776.788,10.273,10.273,0,0,1-5.231-1.289,8.538,8.538,0,0,1-3.441-3.79,13.759,13.759,0,0,1-1.213-6.051,13.157,13.157,0,0,1,1.244-5.943,8.884,8.884,0,0,1,3.457-3.79,9.852,9.852,0,0,1,5.095-1.3A10.157,10.157,0,0,1,1027.858,763.257Z" transform="translate(-911.096 -759.283)"/><path class="b" d="M1062.661,763.567l-6.337,9.4,6.884,11.676h-6.429l-6.217-11.22,6.248-9.855Zm-12.282,0v21.076h-5.61V763.567Z" transform="translate(-923.347 -759.654)"/><path class="c" d="M1062.661,763.567l-6.337,9.4,6.884,11.676h-6.429l-6.217-11.22,6.248-9.855Zm-12.282,0v21.076h-5.61V763.567Z" transform="translate(-923.347 -759.654)"/><path d="M1080.121,796.485V794q0-.573.619-.573h2.133a.512.512,0,0,1,.586.573v2.484a.512.512,0,0,1-.586.574h-2.133C1080.327,797.059,1080.121,796.869,1080.121,796.485Z" transform="translate(-937.634 -771.721)"/><path class="c" d="M1080.121,796.485V794q0-.573.619-.573h2.133a.512.512,0,0,1,.586.573v2.484a.512.512,0,0,1-.586.574h-2.133C1080.327,797.059,1080.121,796.869,1080.121,796.485Z" transform="translate(-937.634 -771.721)"/><path d="M1101.858,775.539v11.625c0,.362-.195.542-.584.542h-1.928c-.39,0-.584-.18-.584-.542V776.08a4.234,4.234,0,0,0-.5-2.292,1.878,1.878,0,0,0-1.7-.765,2.632,2.632,0,0,0-2.288,1.082,5.076,5.076,0,0,0-.774,2.994v10.064a.483.483,0,0,1-.551.542h-1.927c-.39,0-.585-.18-.585-.542V771.081q0-.542.585-.542h1.824q.619,0,.618.511l.035,1.4a4.056,4.056,0,0,1,1.462-1.513,4.449,4.449,0,0,1,2.46-.653,3.975,3.975,0,0,1,3.321,1.418A6.031,6.031,0,0,1,1101.858,775.539Z" transform="translate(-941.801 -762.368)"/><path class="c" d="M1101.858,775.539v11.625c0,.362-.195.542-.584.542h-1.928c-.39,0-.584-.18-.584-.542V776.08a4.234,4.234,0,0,0-.5-2.292,1.878,1.878,0,0,0-1.7-.765,2.632,2.632,0,0,0-2.288,1.082,5.076,5.076,0,0,0-.774,2.994v10.064a.483.483,0,0,1-.551.542h-1.927c-.39,0-.585-.18-.585-.542V771.081q0-.542.585-.542h1.824q.619,0,.618.511l.035,1.4a4.056,4.056,0,0,1,1.462-1.513,4.449,4.449,0,0,1,2.46-.653,3.975,3.975,0,0,1,3.321,1.418A6.031,6.031,0,0,1,1101.858,775.539Z" transform="translate(-941.801 -762.368)"/><path d="M1121.113,774.011a1.918,1.918,0,0,0-1.911-1.275,2.186,2.186,0,0,0-2.047,1.258,9.844,9.844,0,0,0-.739,4.125h5.23v-.286A10.423,10.423,0,0,0,1121.113,774.011Zm-.6,11.466a10.2,10.2,0,0,0,2.856-.479c.458-.1.688.043.688.446v1.369a.717.717,0,0,1-.585.7,10.7,10.7,0,0,1-3.166.446q-3.648,0-5.3-2.118t-1.651-6.736q0-4.522,1.445-6.672a4.979,4.979,0,0,1,4.439-2.15,4.534,4.534,0,0,1,4.147,1.975,11.039,11.039,0,0,1,1.256,5.859v1.752c0,.382-.219.573-.654.573h-7.571a6.4,6.4,0,0,0,1.1,3.807A3.632,3.632,0,0,0,1120.511,785.477Z" transform="translate(-951.063 -762.368)"/><path class="c" d="M1121.113,774.011a1.918,1.918,0,0,0-1.911-1.275,2.186,2.186,0,0,0-2.047,1.258,9.844,9.844,0,0,0-.739,4.125h5.23v-.286A10.423,10.423,0,0,0,1121.113,774.011Zm-.6,11.466a10.2,10.2,0,0,0,2.856-.479c.458-.1.688.043.688.446v1.369a.717.717,0,0,1-.585.7,10.7,10.7,0,0,1-3.166.446q-3.648,0-5.3-2.118t-1.651-6.736q0-4.522,1.445-6.672a4.979,4.979,0,0,1,4.439-2.15,4.534,4.534,0,0,1,4.147,1.975,11.039,11.039,0,0,1,1.256,5.859v1.752c0,.382-.219.573-.654.573h-7.571a6.4,6.4,0,0,0,1.1,3.807A3.632,3.632,0,0,0,1120.511,785.477Z" transform="translate(-951.063 -762.368)"/><path d="M1141.743,771.06h-2.374v9.3a3.842,3.842,0,0,0,.309,1.88,1.463,1.463,0,0,0,1.307.478,2.349,2.349,0,0,0,.449-.048,2.057,2.057,0,0,1,.343-.048c.39,0,.585.171.585.509v1.529a.559.559,0,0,1-.481.574,6.787,6.787,0,0,1-1.514.191,4.049,4.049,0,0,1-3.131-1,5.565,5.565,0,0,1-.9-3.647V771.06H1135q-.586,0-.585-.542v-1.624q0-.542.585-.542h1.41v-3.567a.483.483,0,0,1,.551-.541h1.823q.586,0,.586.541v3.567h2.374q.585,0,.585.542v1.624Q1142.328,771.061,1141.743,771.06Z" transform="translate(-959.574 -759.927)"/><path class="c" d="M1141.743,771.06h-2.374v9.3a3.842,3.842,0,0,0,.309,1.88,1.463,1.463,0,0,0,1.307.478,2.349,2.349,0,0,0,.449-.048,2.057,2.057,0,0,1,.343-.048c.39,0,.585.171.585.509v1.529a.559.559,0,0,1-.481.574,6.787,6.787,0,0,1-1.514.191,4.049,4.049,0,0,1-3.131-1,5.565,5.565,0,0,1-.9-3.647V771.06H1135q-.586,0-.585-.542v-1.624q0-.542.585-.542h1.41v-3.567a.483.483,0,0,1,.551-.541h1.823q.586,0,.586.541v3.567h2.374q.585,0,.585.542v1.624Q1142.328,771.061,1141.743,771.06Z" transform="translate(-959.574 -759.927)"/></g></svg>