<svg xmlns="http://www.w3.org/2000/svg" width="188.64" height="25.374" viewBox="0 0 188.64 25.374"><defs><style>.a{fill:#00a8d4;}.b{fill:#f48220;}.c{fill:#f16b25;}</style></defs><path class="a" d="M1437.506,1032.816a.064.064,0,0,0,.073.073h.073a.065.065,0,0,0,.073-.073l.072-.923v-.243s.049.146.073.243l.292.656c.024.049.049.049.073.049h.072c.049,0,.073-.024.073-.049l.292-.656a1.563,1.563,0,0,1,.1-.243v.243l.073.923a.064.064,0,0,0,.073.073h.073a.065.065,0,0,0,.073-.073l-.121-1.433a.065.065,0,0,0-.073-.073h-.1c-.049,0-.073.024-.073.049l-.34.777a2.144,2.144,0,0,1-.073.219,2.091,2.091,0,0,1-.073-.219l-.34-.8c-.024-.049-.049-.049-.073-.049h-.1a.064.064,0,0,0-.073.073Zm-1.215-.073a.833.833,0,0,0,.462.17.436.436,0,0,0,.486-.437c0-.51-.753-.413-.753-.753,0-.145.122-.218.292-.218a.525.525,0,0,1,.291.1c.049.025.073.025.1-.024l.024-.049c.024-.049.024-.073-.024-.1a.6.6,0,0,0-.389-.122.457.457,0,0,0-.511.437c0,.486.753.413.753.753,0,.145-.122.218-.268.218a.665.665,0,0,1-.34-.121c-.049-.024-.073-.024-.1.024l-.049.048c-.024.024,0,.049.024.073m-40.594-2.5-8.818-.024v-3.134h4.081a1.151,1.151,0,0,0,1.166-1.166v-.558a1.166,1.166,0,0,0-1.166-1.166h-4.081v-2.624l8.479.024a1.458,1.458,0,0,0,0-2.915l-9.936-.024a1.461,1.461,0,0,0-1.458,1.458l-.024,11.588a1.462,1.462,0,0,0,1.458,1.458l10.276.024a1.462,1.462,0,0,0,1.457-1.458,1.432,1.432,0,0,0-1.433-1.482m-42.878-6.195c-1.968,0-2.672-.461-2.939-.728a1.114,1.114,0,0,1-.268-.875c.024-.413.073-1.482,3.28-1.482a7.943,7.943,0,0,1,3.547.85,1.435,1.435,0,1,0,1.36-2.526,11.544,11.544,0,0,0-4.931-1.214c-5.2,0-6.1,2.648-6.171,4.2a4,4,0,0,0,1.045,2.988c1.02,1.093,2.672,1.6,5,1.628,2.964,0,4.13.874,4.2,1.6a1.487,1.487,0,0,1-.316,1.239,4.168,4.168,0,0,1-3.013.9,9.263,9.263,0,0,1-4.712-1.044,1.442,1.442,0,1,0-1.434,2.5,12.37,12.37,0,0,0,6.146,1.409c1.312,0,3.717-.243,5.175-1.87a4.333,4.333,0,0,0,1.02-3.474c-.218-2.575-2.793-4.106-7-4.106m62.119-5.441a1.436,1.436,0,0,0-1.434,1.433v8.891l-7.628-9.572a2.007,2.007,0,0,0-2.307-.656,2.042,2.042,0,0,0-1.385,1.968v11.175a1.434,1.434,0,0,0,2.867,0v-8.916l7.628,9.572a2.008,2.008,0,0,0,2.308.656,2.044,2.044,0,0,0,1.385-1.968v-11.175a1.431,1.431,0,0,0-1.433-1.409m-108.86-.195a1.436,1.436,0,0,0-1.433,1.433v8.891l-7.628-9.571a2.064,2.064,0,0,0-3.693,1.287v11.175a1.434,1.434,0,0,0,2.867,0v-8.916l7.628,9.571a2.007,2.007,0,0,0,2.308.656,2.043,2.043,0,0,0,1.385-1.968l-.024-11.176a1.375,1.375,0,0,0-1.409-1.385m70.185,4.786c0-1.53-1.288-1.676-2.308-1.676h-5.782v3.425h5.782c1.093.024,2.308-.121,2.308-1.749m2.891.024c0,3.255-2.235,4.664-5.223,4.664h-5.782v3.79a1.458,1.458,0,0,1-1.506,1.458,1.5,1.5,0,0,1-1.409-1.506l.024-11.54a1.462,1.462,0,0,1,1.458-1.458l7.24.024c2.818-.049,5.223,1.19,5.2,4.567m54.491,2.7c0-3.425-2.138-4.3-4.4-4.3h-4.956l-.024,7.943v.729h4.956a4.034,4.034,0,0,0,4.422-4.373m2.915-.17c0,4.786-3.012,7.482-7.337,7.458h-6.389a1.462,1.462,0,0,1-1.458-1.457l.024-11.612a1.462,1.462,0,0,1,1.458-1.458l6.389.024c3.329.024,7.313,1.651,7.313,7.045m-94.818-7.191-10.665-.024a1.458,1.458,0,0,0,0,2.915h3.887l-.024,10.155a1.457,1.457,0,1,0,2.915,0l.024-10.155h3.887a1.462,1.462,0,0,0,1.458-1.458,1.5,1.5,0,0,0-1.482-1.433m-15.961,13.021a1.462,1.462,0,0,1-1.458,1.457l-10.276-.024a1.462,1.462,0,0,1-1.457-1.458l.024-11.588a1.462,1.462,0,0,1,1.458-1.458l9.936.024a1.458,1.458,0,1,1,0,2.915l-8.479-.024v2.624h3.984a1.166,1.166,0,0,1,1.166,1.166v.559a1.166,1.166,0,0,1-1.166,1.166h-3.96v3.134l8.819.024a1.491,1.491,0,0,1,1.409,1.482" transform="translate(-1250.42 -1012.096)"/><path class="b" d="M1241.489,1017.049c-1.045-.8-2.065-1.6-3.134-2.381a74.737,74.737,0,0,0-7.167-4.908,6.7,6.7,0,0,0-10.106,5.733v5.806c3.353-5,9.353,0,14.139,3.693,1.045.8,2.065,1.6,3.134,2.38a74.693,74.693,0,0,0,7.167,4.907,6.7,6.7,0,0,0,10.106-5.733v-5.806c-3.376,5-9.353,0-14.139-3.693" transform="translate(-1221.033 -1008.334)"/><path class="c" d="M1235.528,1036.684c-1.6-1.239-3.158-2.5-4.859-3.6-2.381-1.555-6.122-3.984-8.551-1.142a5.366,5.366,0,0,0-1.118,3.474,7.446,7.446,0,0,0,1.482,4.495,7.084,7.084,0,0,0,9.11,1.7c1.117-.68,3.328-2.283,5.466-3.765a2.118,2.118,0,0,0-.243-.194c-.437-.316-.85-.656-1.287-.972" transform="translate(-1221 -1017.207)"/><path class="c" d="M1253.778,1013.9c1.6,1.239,3.158,2.478,4.859,3.6,2.381,1.555,6.122,3.984,8.551,1.141a5.365,5.365,0,0,0,1.118-3.474,7.444,7.444,0,0,0-1.482-4.494,7.083,7.083,0,0,0-9.11-1.7c-1.118.68-3.329,2.284-5.466,3.766a2.059,2.059,0,0,0,.243.194c.437.316.85.632,1.287.972" transform="translate(-1233.711 -1008)"/></svg>