<svg xmlns="http://www.w3.org/2000/svg" width="179.499" height="33.897" viewBox="0 0 179.499 33.897"><defs><style>.a{fill:#00394c;}.b{fill:#ea3a2e;}.c{fill:#02495e;}</style></defs><g transform="translate(0)"><path class="a" d="M557.154,1014.122a4.124,4.124,0,0,1-4.1,4.137H548.17v-5.478h-2.657v14.137h2.657v-5.979h4.882a4.124,4.124,0,0,1,4.1,4.137v1.842h2.657v-1.842a6.825,6.825,0,0,0-2.751-5.478,6.821,6.821,0,0,0,2.751-5.477v-1.341h-2.657Z" transform="translate(-509.02 -1004.908)"/><path class="a" d="M753.841,1017.115a1.14,1.14,0,0,1-1.134,1.144h-7.462v-2.8h7.462a1.139,1.139,0,0,1,1.134,1.144Zm-1.134-4.334H742.589v14.137h2.657v-5.979h7.462a1.14,1.14,0,0,1,1.134,1.144v4.835H756.5v-4.835a3.83,3.83,0,0,1,0-4.968v-.509A3.812,3.812,0,0,0,752.707,1012.781Z" transform="translate(-601.126 -1004.908)"/><path class="a" d="M589.688,1018.259h-8.281v-2.718a.079.079,0,0,1,.078-.079h8.124a.079.079,0,0,1,.078.079Zm-.078-5.478h-8.124a2.751,2.751,0,0,0-2.735,2.76v11.377h2.657v-5.979h8.281v5.979h2.657v-11.377A2.751,2.751,0,0,0,589.609,1012.781Z" transform="translate(-524.554 -1004.908)"/><path class="a" d="M622.186,1012.781h-8.124a2.751,2.751,0,0,0-2.736,2.76v2.639a2.751,2.751,0,0,0,2.736,2.76h8.124a.079.079,0,0,1,.078.079v3.141a.079.079,0,0,1-.078.079h-8.124a.079.079,0,0,1-.079-.079v-1.341h-2.657v1.341a2.751,2.751,0,0,0,2.736,2.76h8.124a2.751,2.751,0,0,0,2.736-2.76v-3.141a2.75,2.75,0,0,0-2.736-2.759h-8.124a.08.08,0,0,1-.079-.08v-2.639a.08.08,0,0,1,.079-.079h8.124a.079.079,0,0,1,.078.079v1.341h2.657v-1.341A2.751,2.751,0,0,0,622.186,1012.781Z" transform="translate(-539.779 -1004.908)"/><path class="a" d="M654.867,1018.259h-8.682v-5.478h-2.656v14.137h2.656v-5.979h8.682v5.979h2.657v-14.137h-2.657Z" transform="translate(-554.829 -1004.908)"/><path class="a" d="M688.692,1018.259H680v-5.478h-2.657v14.137H680v-5.979h8.691v5.979h2.657v-14.137h-2.657Z" transform="translate(-570.633 -1004.908)"/><path class="a" d="M710.674,1026.918h13.2v-2.681H713.331v-3.3h9.259v-2.68h-9.259v-2.8h10.547v-2.681h-13.2Z" transform="translate(-586.21 -1004.908)"/><path class="a" d="M786.4,1022.822a1.14,1.14,0,0,1-1.133,1.144h-6.014a1.14,1.14,0,0,1-1.133-1.144v-6.488c0-.707.583-1.455,1.133-1.455h6.014c.55,0,1.133.748,1.133,1.455Zm-1.133-10.623h-6.014a4.078,4.078,0,0,0-3.79,4.135v6.488a3.811,3.811,0,0,0,3.79,3.824h6.014a3.811,3.811,0,0,0,3.79-3.824v-6.488A4.078,4.078,0,0,0,785.266,1012.2Z" transform="translate(-616.49 -1004.636)"/><path class="b" d="M494.158,1005.534l-5.752,5.822a.937.937,0,0,1-.666.279.922.922,0,0,1-.36-.072.949.949,0,0,1-.582-.878v-5.822a.941.941,0,1,1,1.882,0v3.524l4.144-4.193a.935.935,0,0,1,1.331,0,.956.956,0,0,1,0,1.343m4.493,20.192a.955.955,0,0,1,0,1.343.935.935,0,0,1-1.331,0c-1.379-1.394-6.117-6.178-8.638-8.723v3.527a.941.941,0,1,1-1.882,0v-5.82a.949.949,0,0,1,.581-.878.934.934,0,0,1,1.026.206s8.338,8.418,10.246,10.347m-13.47-3.855a.941.941,0,1,1-1.882,0V1004.86a.941.941,0,1,1,1.882,0Zm20.246-23a113.029,113.029,0,0,0-28.058,0s-.928,18.317.161,23.116c1.013,4.463,6.209,9.907,13.868,9.907a14.841,14.841,0,0,0,11.03-4.786c-.018-.015-.037-.028-.054-.044l-12.9-13.025a.957.957,0,0,1,0-1.342l8.414-8.512a.936.936,0,0,1,1.331,0,.955.955,0,0,1,0,1.343l-7.75,7.839,12.136,12.256a10.752,10.752,0,0,0,1.658-3.635c1.09-4.8.162-23.116.162-23.116" transform="translate(-477 -998)"/><path class="c" d="M802.832,1003.122h.412c.479,0,.868-.164.868-.562,0-.351-.251-.586-.8-.586a2.03,2.03,0,0,0-.48.047Zm-.023,2.155h-.868v-3.841a9.9,9.9,0,0,1,1.44-.117,1.953,1.953,0,0,1,1.279.3.973.973,0,0,1,.389.82.984.984,0,0,1-.777.913v.046c.365.117.549.422.663.937a3.468,3.468,0,0,0,.274.937h-.915a3.1,3.1,0,0,1-.3-.937c-.068-.4-.3-.585-.777-.585h-.412Zm.571-5.059a3.073,3.073,0,0,0,.046,6.136,2.91,2.91,0,0,0,2.857-3.044,2.955,2.955,0,0,0-2.88-3.092Zm.046-.773a3.853,3.853,0,0,1-.023,7.705,3.853,3.853,0,1,1,0-7.705Z" transform="translate(-627.744 -998.675)"/></g></svg>