<svg xmlns="http://www.w3.org/2000/svg" width="209.86" height="42.96" viewBox="0 0 209.86 42.96"><defs><style>.a,.d{fill-rule:evenodd;}.b{fill:#8f8f8f;}.c{fill:none;stroke:#000;stroke-miterlimit:10;opacity:0;}.d{fill:#c51230;}</style></defs><path class="a" d="M1297.873,895.344V914.86c.973-.009,1.947.019,2.918-.014.019-6.361,0-12.724.009-19.085a3.731,3.731,0,0,0-.018-.415C1299.814,895.346,1298.844,895.349,1297.873,895.344Z" transform="translate(-1234.118 -883.486)"/><path class="a" d="M1327.19,902.715a8.44,8.44,0,0,0-.776-3.016,8.545,8.545,0,0,0-16.251,2.7c0,.252-.052.5-.058.754q0,5.716,0,11.434c-.025.11.109.117.183.115.647,0,1.294,0,1.942,0a5.224,5.224,0,0,0,.831-.031c-.02-2.077,0-4.154-.009-6.233.006-1.958-.015-3.917.012-5.877a5.6,5.6,0,0,1,1.786-3.636,5.506,5.506,0,0,1,2.552-1.339,5.543,5.543,0,0,1,4.005.591,5.581,5.581,0,0,1,2.835,4.653c0,2.607,0,5.212,0,7.819-.007,1.342.015,2.684-.012,4.025a11.837,11.837,0,0,0,1.263.028c.567-.012,1.138.027,1.7-.023C1327.182,910.689,1327.2,906.7,1327.19,902.715Z" transform="translate(-1237.474 -883.324)"/><path class="b" d="M1452.168,896.3a.877.877,0,0,0,.608-.089.343.343,0,0,0-.081-.558,1.726,1.726,0,0,0-.522-.051C1452.171,895.83,1452.172,896.064,1452.168,896.3Zm.711,1.376a1.584,1.584,0,0,0-.094-.77,1.134,1.134,0,0,0-.6-.1c-.01.289-.013.579,0,.868q-.359,0-.715,0c.014-.847-.006-1.693.012-2.54.367,0,.736,0,1.106,0a1.157,1.157,0,0,1,.814.289c.194.192.142.493.12.739a.918.918,0,0,1-.424.35,1.061,1.061,0,0,1,.421.506c.024.219,0,.44.02.661C1453.321,897.673,1453.1,897.671,1452.878,897.672Zm-.757-3.1a1.893,1.893,0,0,0-1.1.69,1.864,1.864,0,0,0-.347.736,1.941,1.941,0,0,0,.16,1.293,2.013,2.013,0,0,0,1.162.942,1.879,1.879,0,1,0,.48-3.7A1.727,1.727,0,0,0,1452.121,894.568Zm-.911,3.748a2.311,2.311,0,0,1-.953-1.349,4.814,4.814,0,0,1-.017-1,2.238,2.238,0,0,1,1.048-1.521,2.307,2.307,0,0,1,1.862-.234,2.331,2.331,0,0,1,1.6,1.779v.859a2.566,2.566,0,0,1-.583,1.116,2.308,2.308,0,0,1-1.7.714A2.264,2.264,0,0,1,1451.21,898.316ZM1396.5,914.344c-.034-1.291-.006-2.581-.015-3.872V903.03a6.17,6.17,0,0,0-.075-1.408,5.673,5.673,0,0,0-6.5-4.469,6,6,0,0,0-1.906.728,5.622,5.622,0,0,0-2.027,2.121,5.689,5.689,0,0,0-.689,2.812q0,4.5,0,9.006c-.009.84.018,1.68-.013,2.519-.965,0-1.929,0-2.895,0-.046-.533-.01-1.068-.02-1.6v-9.33c-.012-.416.034-.829.033-1.245a8.6,8.6,0,0,1,2.525-5.321,8.351,8.351,0,0,1,5-2.4c.414-.009.826-.1,1.242-.062a9.467,9.467,0,0,1,1.767.243,8.566,8.566,0,0,1,4.837,3.2c.062.089.115.18.17.275l.093,0a8.427,8.427,0,0,1,4.706-3.39,9.9,9.9,0,0,1,1.764-.295,7.369,7.369,0,0,1,1.548.034,8.548,8.548,0,0,1,7.463,7.226c.08.376.056.761.11,1.139v11.514c-.557.016-1.115.014-1.672.012-.423,0-.845,0-1.268,0-.038-.568,0-1.141-.015-1.711V903.3a7.29,7.29,0,0,0-.207-2.088,5.608,5.608,0,0,0-10.866.169,8,8,0,0,0-.133,2.082q0,5.442,0,10.882-.741,0-1.482,0T1396.5,914.344Zm35.942.005c-.409,0-.817,0-1.225,0-.039-.7-.007-1.4-.017-2.1,0-3.308,0-6.617,0-9.926a5.81,5.81,0,0,0-.972-2.769,5.614,5.614,0,0,0-10.147,2.025,9.31,9.31,0,0,0-.1,1.881c0,3.624-.011,7.25.007,10.875h-2.93c-.05-.532-.014-1.067-.025-1.6v-7.658c.011-.9-.026-1.8.032-2.7a8.579,8.579,0,0,1,2.009-4.976,8.434,8.434,0,0,1,6-2.983,3.344,3.344,0,0,1,.817-.028c.375.054.759.03,1.131.119a8.5,8.5,0,0,1,5.112,2.92c.2.211.345.466.546.676a8.621,8.621,0,0,1,4.9-3.444,6.063,6.063,0,0,1,1.518-.239,4.319,4.319,0,0,1,1.128-.017,8.553,8.553,0,0,1,4.217,1.4,8.324,8.324,0,0,1,2.207,2.108,8.766,8.766,0,0,1,1.278,2.547,7.681,7.681,0,0,1,.3,1.492,18.014,18.014,0,0,1,.059,2.159v9.438a6.786,6.786,0,0,1-.019.789c-.355,0-.711,0-1.067,0-.624,0-1.248,0-1.872-.008-.008-3.784,0-7.568,0-11.353a5.608,5.608,0,0,0-9.642-4.173,5.621,5.621,0,0,0-1.562,4.066q0,5.736,0,11.474c-.339.007-.678.009-1.017.009Zm-84.27.653a3.356,3.356,0,0,0-.73-.125,10.372,10.372,0,0,1-1.525-.355,9.842,9.842,0,0,1-4.862-3.392,10.181,10.181,0,0,1-2.126-6.207,10.293,10.293,0,0,1,3.324-7.768,9.932,9.932,0,0,1,4.756-2.407,11.51,11.51,0,0,1,2.757-.144,11.111,11.111,0,0,1,2.657.52,10.057,10.057,0,0,1,3.746,2.346,4.228,4.228,0,0,1,.576.6c-.214.25-.449.477-.674.717-.416.444-.823.9-1.261,1.319a12.292,12.292,0,0,0-2.15-1.824,6.529,6.529,0,0,0-3.724-1.1,6.413,6.413,0,0,0-3.535.967,7.524,7.524,0,0,0-1.608,1.353,8.2,8.2,0,0,0-1.079,1.674,8.323,8.323,0,0,0,.237,7.57,7.024,7.024,0,0,0,3.973,3.266,5.882,5.882,0,0,0,2.067.33,7.07,7.07,0,0,0,3.8-1.032,10.322,10.322,0,0,0,2.124-1.76.145.145,0,0,1,.244-.022c.553.577,1.161,1.095,1.73,1.653a12.742,12.742,0,0,1-.892.964,11.477,11.477,0,0,1-2.479,1.783,9.778,9.778,0,0,1-3.292.988,1.494,1.494,0,0,0-.542.086Zm19.99-17.758a6.85,6.85,0,0,0-2.923,1.165,4.9,4.9,0,0,0-.773.629,6.841,6.841,0,0,0-1.6,2.293,7.474,7.474,0,0,0-.54,1.679,7.649,7.649,0,0,0-.163,2.07,7.3,7.3,0,0,0,.28,1.874c.084.388.273.742.395,1.119a11.49,11.49,0,0,0,.857,1.453,5.92,5.92,0,0,0,.771.845,6.791,6.791,0,0,0,2.7,1.651,7.925,7.925,0,0,0,1.451.312,9.087,9.087,0,0,0,1.951-.079,6.239,6.239,0,0,0,1.5-.428,6.348,6.348,0,0,0,2.551-1.828,6.782,6.782,0,0,0,1.5-2.716,7.367,7.367,0,0,0,.384-2.309,8.159,8.159,0,0,0-.76-3.621,8.482,8.482,0,0,0-.927-1.5,7.3,7.3,0,0,0-2.166-1.823,6.936,6.936,0,0,0-3.441-.844h-.158A5.116,5.116,0,0,0,1368.165,897.244Zm.394,17.758a3.759,3.759,0,0,0-.8-.12,10.389,10.389,0,0,1-3.292-1.067,9.8,9.8,0,0,1-2.031-1.42,10.06,10.06,0,0,1-2.956-4.924,11.076,11.076,0,0,1-.223-4.277,10.336,10.336,0,0,1,2.713-5.52,9.941,9.941,0,0,1,4.858-2.8,10.55,10.55,0,0,1,3.277-.272,8.538,8.538,0,0,1,1.43.208,7.657,7.657,0,0,1,1.6.468,9.944,9.944,0,0,1,5.735,5.864,9.683,9.683,0,0,1,.625,3.452,8.2,8.2,0,0,1-.091,1.623,10.435,10.435,0,0,1-1.7,4.385,11.089,11.089,0,0,1-1.587,1.81,10.185,10.185,0,0,1-5.714,2.508,1.45,1.45,0,0,0-.429.082Z" transform="translate(-1245.386 -883.15)"/><path class="c" d="M1452.168,896.3a.877.877,0,0,0,.608-.089.343.343,0,0,0-.081-.558,1.726,1.726,0,0,0-.522-.051C1452.171,895.83,1452.172,896.064,1452.168,896.3Zm.711,1.376a1.584,1.584,0,0,0-.094-.77,1.134,1.134,0,0,0-.6-.1c-.01.289-.013.579,0,.868q-.359,0-.715,0c.014-.847-.006-1.693.012-2.54.367,0,.736,0,1.106,0a1.157,1.157,0,0,1,.814.289c.194.192.142.493.12.739a.918.918,0,0,1-.424.35,1.061,1.061,0,0,1,.421.506c.024.219,0,.44.02.661C1453.321,897.673,1453.1,897.671,1452.878,897.672Zm-.757-3.1a1.893,1.893,0,0,0-1.1.69,1.864,1.864,0,0,0-.347.736,1.941,1.941,0,0,0,.16,1.293,2.013,2.013,0,0,0,1.162.942,1.879,1.879,0,1,0,.48-3.7A1.727,1.727,0,0,0,1452.121,894.568Zm-.911,3.748a2.311,2.311,0,0,1-.953-1.349,4.814,4.814,0,0,1-.017-1,2.238,2.238,0,0,1,1.048-1.521,2.307,2.307,0,0,1,1.862-.234,2.331,2.331,0,0,1,1.6,1.779v.859a2.566,2.566,0,0,1-.583,1.116,2.308,2.308,0,0,1-1.7.714A2.264,2.264,0,0,1,1451.21,898.316ZM1396.5,914.344c-.034-1.291-.006-2.581-.015-3.872V903.03a6.17,6.17,0,0,0-.075-1.408,5.673,5.673,0,0,0-6.5-4.469,6,6,0,0,0-1.906.728,5.622,5.622,0,0,0-2.027,2.121,5.689,5.689,0,0,0-.689,2.812q0,4.5,0,9.006c-.009.84.018,1.68-.013,2.519-.965,0-1.929,0-2.895,0-.046-.533-.01-1.068-.02-1.6v-9.33c-.012-.416.034-.829.033-1.245a8.6,8.6,0,0,1,2.525-5.321,8.351,8.351,0,0,1,5-2.4c.414-.009.826-.1,1.242-.062a9.467,9.467,0,0,1,1.767.243,8.566,8.566,0,0,1,4.837,3.2c.062.089.115.18.17.275l.093,0a8.427,8.427,0,0,1,4.706-3.39,9.9,9.9,0,0,1,1.764-.295,7.369,7.369,0,0,1,1.548.034,8.548,8.548,0,0,1,7.463,7.226c.08.376.056.761.11,1.139v11.514c-.557.016-1.115.014-1.672.012-.423,0-.845,0-1.268,0-.038-.568,0-1.141-.015-1.711V903.3a7.29,7.29,0,0,0-.207-2.088,5.608,5.608,0,0,0-10.866.169,8,8,0,0,0-.133,2.082q0,5.442,0,10.882-.741,0-1.482,0T1396.5,914.344Zm35.942.005c-.409,0-.817,0-1.225,0-.039-.7-.007-1.4-.017-2.1,0-3.308,0-6.617,0-9.926a5.81,5.81,0,0,0-.972-2.769,5.614,5.614,0,0,0-10.147,2.025,9.31,9.31,0,0,0-.1,1.881c0,3.624-.011,7.25.007,10.875h-2.93c-.05-.532-.014-1.067-.025-1.6v-7.658c.011-.9-.026-1.8.032-2.7a8.579,8.579,0,0,1,2.009-4.976,8.434,8.434,0,0,1,6-2.983,3.344,3.344,0,0,1,.817-.028c.375.054.759.03,1.131.119a8.5,8.5,0,0,1,5.112,2.92c.2.211.345.466.546.676a8.621,8.621,0,0,1,4.9-3.444,6.063,6.063,0,0,1,1.518-.239,4.319,4.319,0,0,1,1.128-.017,8.553,8.553,0,0,1,4.217,1.4,8.324,8.324,0,0,1,2.207,2.108,8.766,8.766,0,0,1,1.278,2.547,7.681,7.681,0,0,1,.3,1.492,18.014,18.014,0,0,1,.059,2.159v9.438a6.786,6.786,0,0,1-.019.789c-.355,0-.711,0-1.067,0-.624,0-1.248,0-1.872-.008-.008-3.784,0-7.568,0-11.353a5.608,5.608,0,0,0-9.642-4.173,5.621,5.621,0,0,0-1.562,4.066q0,5.736,0,11.474c-.339.007-.678.009-1.017.009Zm-84.27.653a3.356,3.356,0,0,0-.73-.125,10.372,10.372,0,0,1-1.525-.355,9.842,9.842,0,0,1-4.862-3.392,10.181,10.181,0,0,1-2.126-6.207,10.293,10.293,0,0,1,3.324-7.768,9.932,9.932,0,0,1,4.756-2.407,11.51,11.51,0,0,1,2.757-.144,11.111,11.111,0,0,1,2.657.52,10.057,10.057,0,0,1,3.746,2.346,4.228,4.228,0,0,1,.576.6c-.214.25-.449.477-.674.717-.416.444-.823.9-1.261,1.319a12.292,12.292,0,0,0-2.15-1.824,6.529,6.529,0,0,0-3.724-1.1,6.413,6.413,0,0,0-3.535.967,7.524,7.524,0,0,0-1.608,1.353,8.2,8.2,0,0,0-1.079,1.674,8.323,8.323,0,0,0,.237,7.57,7.024,7.024,0,0,0,3.973,3.266,5.882,5.882,0,0,0,2.067.33,7.07,7.07,0,0,0,3.8-1.032,10.322,10.322,0,0,0,2.124-1.76.145.145,0,0,1,.244-.022c.553.577,1.161,1.095,1.73,1.653a12.742,12.742,0,0,1-.892.964,11.477,11.477,0,0,1-2.479,1.783,9.778,9.778,0,0,1-3.292.988,1.494,1.494,0,0,0-.542.086Zm19.99-17.758a6.85,6.85,0,0,0-2.923,1.165,4.9,4.9,0,0,0-.773.629,6.841,6.841,0,0,0-1.6,2.293,7.474,7.474,0,0,0-.54,1.679,7.649,7.649,0,0,0-.163,2.07,7.3,7.3,0,0,0,.28,1.874c.084.388.273.742.395,1.119a11.49,11.49,0,0,0,.857,1.453,5.92,5.92,0,0,0,.771.845,6.791,6.791,0,0,0,2.7,1.651,7.925,7.925,0,0,0,1.451.312,9.087,9.087,0,0,0,1.951-.079,6.239,6.239,0,0,0,1.5-.428,6.348,6.348,0,0,0,2.551-1.828,6.782,6.782,0,0,0,1.5-2.716,7.367,7.367,0,0,0,.384-2.309,8.159,8.159,0,0,0-.76-3.621,8.482,8.482,0,0,0-.927-1.5,7.3,7.3,0,0,0-2.166-1.823,6.936,6.936,0,0,0-3.441-.844h-.158A5.116,5.116,0,0,0,1368.165,897.244Zm.394,17.758a3.759,3.759,0,0,0-.8-.12,10.389,10.389,0,0,1-3.292-1.067,9.8,9.8,0,0,1-2.031-1.42,10.06,10.06,0,0,1-2.956-4.924,11.076,11.076,0,0,1-.223-4.277,10.336,10.336,0,0,1,2.713-5.52,9.941,9.941,0,0,1,4.858-2.8,10.55,10.55,0,0,1,3.277-.272,8.538,8.538,0,0,1,1.43.208,7.657,7.657,0,0,1,1.6.468,9.944,9.944,0,0,1,5.735,5.864,9.683,9.683,0,0,1,.625,3.452,8.2,8.2,0,0,1-.091,1.623,10.435,10.435,0,0,1-1.7,4.385,11.089,11.089,0,0,1-1.587,1.81,10.185,10.185,0,0,1-5.714,2.508,1.45,1.45,0,0,0-.429.082Z" transform="translate(-1245.386 -883.15)"/><path class="a" d="M1216.838,879h2.071a1.632,1.632,0,0,0,.881.121c.4,0,.8.076,1.2.075a7.51,7.51,0,0,0,1.22.118l-.114.063a4.8,4.8,0,0,1,.735.1,51.171,51.171,0,0,1,9.972,2.992,73.745,73.745,0,0,1,7.732,3.667,70.251,70.251,0,0,1,13.118,9.136,5.525,5.525,0,0,0,.756.651c.177.168.343.347.53.5.278.231.48.534.737.786.194.2.42.367.609.572.43.5.919.954,1.321,1.484-.1.02-.2.073-.28-.012a11.645,11.645,0,0,0-1.236-.79c-.357-.182-.647-.469-1-.662a5.419,5.419,0,0,1-.762-.5,9.64,9.64,0,0,0-.9-.5c-1.159-.709-2.332-1.4-3.523-2.045-.549-.308-1.091-.635-1.656-.912-.644-.318-1.257-.7-1.907-1.007a93.462,93.462,0,0,0-16-6.473c-.544-.139-1.077-.327-1.63-.424.593,1.413,1.33,2.761,2.042,4.119,1.377,2.6,2.887,5.132,4.5,7.593,1.428,2.206,2.968,4.338,4.6,6.4.425.53.861,1.05,1.279,1.583.334.472.752.87,1.118,1.315.442.562.969,1.049,1.458,1.57.5.479.946,1.019,1.47,1.476a33.871,33.871,0,0,0,4.758,3.932,14.664,14.664,0,0,0,3.623,1.814,5.839,5.839,0,0,0,2.1.3,3.459,3.459,0,0,0,2.785-1.5,7.5,7.5,0,0,0,1.146-3.96,10.461,10.461,0,0,0,.044-1.186c-.057-.463-.032-.929-.082-1.392-.062-.858-.2-1.709-.34-2.556a38.488,38.488,0,0,0-.892-3.92,1.558,1.558,0,0,1-.1-.823c.26.176.274.518.388.786a42.741,42.741,0,0,1,1.99,9.365,19.83,19.83,0,0,1,.045,3.411,13.723,13.723,0,0,1-.314,2.37,8.174,8.174,0,0,1-1.509,3.428,4.886,4.886,0,0,1-3.993,1.9,9.1,9.1,0,0,1-3.974-.946,19.3,19.3,0,0,1-3.5-2.128,28.7,28.7,0,0,1-2.691-2.249,47.918,47.918,0,0,1-5.488-6.158c-.395-.467-.718-.984-1.065-1.485-.247-.4-.552-.759-.806-1.154-.883-1.263-1.686-2.58-2.464-3.908a70.469,70.469,0,0,1-3.8-7.589,54.347,54.347,0,0,1-3.253-10.184c-.06-.171-.017-.459-.224-.527-.893-.232-1.8-.393-2.708-.574-.531-.056-1.051-.188-1.583-.246a26.132,26.132,0,0,0-4.818-.191,8.107,8.107,0,0,0-3.326.927,3.241,3.241,0,0,0-1.574,2.038,4.733,4.733,0,0,0,.186,2.468,14.032,14.032,0,0,0,2.274,3.982c.129.188.34.4.255.645-.094.205-.382.174-.537.059a5.924,5.924,0,0,1-.787-.819,27.835,27.835,0,0,1-3.357-4.559,13.181,13.181,0,0,1-1.493-3.761,7.484,7.484,0,0,1-.1-1.727,4.087,4.087,0,0,1,.431-1.7,5.046,5.046,0,0,1,2.581-2.346A11.953,11.953,0,0,1,1216.838,879Z" transform="translate(-1210 -879)"/><path class="d" d="M1242.315,918.743c.254.4.559.755.806,1.154.347.5.67,1.019,1.065,1.485-.883.312-1.735.7-2.6,1.048-.638.294-1.308.511-1.947.8-1.542.631-3.113,1.187-4.649,1.828-1.194.446-2.375.929-3.574,1.363-.706.225-1.379.533-2.079.773a1.874,1.874,0,0,1-1.114.232c.009-.12-.023-.266.078-.355a3.432,3.432,0,0,1,.675-.437c4.233-2.422,8.4-4.953,12.621-7.4A2.457,2.457,0,0,0,1242.315,918.743Z" transform="translate(-1215 -889.908)"/><path class="d" d="M1261.615,886a36.716,36.716,0,0,1,5.491-.434,21.564,21.564,0,0,1,2.45.079,16.22,16.22,0,0,1,3.026.512,10.8,10.8,0,0,1,2.052.757,7.164,7.164,0,0,1,1.646,1.2,4.4,4.4,0,0,1,1.21,3.056,8.006,8.006,0,0,1-1.1,3.655,16.317,16.317,0,0,1-1.12,1.729,27.476,27.476,0,0,1-2.645,2.985c-.448.409-.9.813-1.348,1.22a61.681,61.681,0,0,1-14.144,8.869c-.549.223-1.063.53-1.633.7-.488-.521-1.016-1.007-1.458-1.57-.366-.445-.784-.843-1.117-1.316a5.383,5.383,0,0,1,.848-.6c.526-.366,1.1-.654,1.617-1.035a93.351,93.351,0,0,0,9.428-6.914,2.245,2.245,0,0,1,.4-.28,9.726,9.726,0,0,1,.9.5,5.382,5.382,0,0,0,.761.5c.351.194.641.48,1,.662a11.633,11.633,0,0,1,1.235.79c.079.086.183.033.281.012-.4-.529-.892-.979-1.322-1.484-.189-.205-.415-.372-.609-.573-.257-.252-.459-.555-.737-.786-.187-.157-.353-.336-.53-.5a3.465,3.465,0,0,1,.422-.453,19.608,19.608,0,0,0,1.58-1.621,12.955,12.955,0,0,0,1.14-1.363,8.016,8.016,0,0,0,1.73-3.551,2.95,2.95,0,0,0-.178-1.529,3.136,3.136,0,0,0-1.088-1.363,8.034,8.034,0,0,0-3.75-1.262c-.384-.07-.776-.049-1.164-.086a26.288,26.288,0,0,0-3.109.044,48.633,48.633,0,0,0-6.967,1.129,5.823,5.823,0,0,1-1.106.212c0-.043.012-.13.016-.176A66.068,66.068,0,0,1,1261.615,886Z" transform="translate(-1221.781 -880.801)"/></svg>