<svg xmlns="http://www.w3.org/2000/svg" width="185.738" height="36.083" viewBox="0 0 185.738 36.083"><defs><style>.a{fill:#0083c5;}.b{fill:#18608c;}.c{fill:#d0d2d3;}.d{fill:#a6a8ab;}</style></defs><g transform="translate(0)"><path class="a" d="M170.973,896.981H156.115l-5.306-7.111,7.429-9.87Z" transform="translate(-130.644 -880)"/><path class="a" d="M170.973,910.135l-12.735,16.98-7.429-9.87,5.306-7.111Z" transform="translate(-130.644 -891.032)"/><path class="b" d="M153.948,880l-7.429,9.87L139.09,880Z" transform="translate(-126.354 -880)"/><path class="c" d="M139.164,889.87l-5.306,7.111H119L131.735,880Z" transform="translate(-119 -880)"/><path class="b" d="M153.948,931.222H139.09l7.429-9.87Z" transform="translate(-126.354 -895.139)"/><path class="d" d="M139.164,917.246l-7.429,9.87L119,910.135h14.858Z" transform="translate(-119 -891.032)"/><path d="M206.41,914.784V896.318h-2.865v-2.759l2.865-.212v-3.4a8.287,8.287,0,0,1,1.486-5.2,5.761,5.761,0,0,1,4.776-1.911,11.709,11.709,0,0,1,1.91.212,10.444,10.444,0,0,1,1.7.531l-.849,2.759a6.3,6.3,0,0,0-2.441-.531c-2.017,0-2.972,1.379-2.972,4.139v3.4h4.564v2.971h-4.564v18.467Z" transform="translate(-149.95 -881.036)"/><path d="M226.958,915.588V894.15h3.608v21.438Zm1.91-25.9a2.885,2.885,0,0,1-1.8-.636,2.338,2.338,0,0,1-.106-3.29l.106-.107a2.876,2.876,0,0,1,3.609,0,2.338,2.338,0,0,1,.106,3.29l-.106.107A2.378,2.378,0,0,1,228.868,889.692Z" transform="translate(-158.293 -881.839)"/><path d="M244.394,920.614V899.176h2.972l.318,3.926h.106a9.681,9.681,0,0,1,2.653-3.184,5.717,5.717,0,0,1,3.4-1.168,6.054,6.054,0,0,1,2.335.425l-.743,3.183-.955-.318a3.619,3.619,0,0,0-1.061-.106A4.762,4.762,0,0,0,250.55,903,8.387,8.387,0,0,0,248,906.817v13.8Z" transform="translate(-164.904 -886.865)"/><path d="M272.611,920.98a12.208,12.208,0,0,1-4.351-.849,15.368,15.368,0,0,1-3.608-2.122l1.8-2.441a10.05,10.05,0,0,0,2.865,1.8,7.539,7.539,0,0,0,3.4.743,4.375,4.375,0,0,0,3.184-.955,3.411,3.411,0,0,0,1.061-2.335,2.427,2.427,0,0,0-.425-1.485,3.786,3.786,0,0,0-1.167-1.062,11.6,11.6,0,0,0-1.592-.849,13.067,13.067,0,0,1-1.8-.743c-.743-.318-1.485-.531-2.335-.955a8.076,8.076,0,0,1-2.016-1.274,5.716,5.716,0,0,1-1.485-1.7,3.635,3.635,0,0,1-.531-2.335,6.288,6.288,0,0,1,.531-2.441,5.185,5.185,0,0,1,1.485-1.91,8.241,8.241,0,0,1,2.335-1.274,9.95,9.95,0,0,1,6.792.212,11.913,11.913,0,0,1,2.972,1.7l-1.7,2.335a16.934,16.934,0,0,0-2.335-1.379,7.394,7.394,0,0,0-2.653-.531,3.88,3.88,0,0,0-2.972.955,2.831,2.831,0,0,0-.955,2.122,1.853,1.853,0,0,0,.425,1.274,3.006,3.006,0,0,0,1.061.955,9.738,9.738,0,0,0,1.487.743c.531.212,1.166.424,1.8.636.742.318,1.485.636,2.335.955a13.594,13.594,0,0,1,2.122,1.167,4.852,4.852,0,0,1,1.486,1.8,5.331,5.331,0,0,1,.636,2.547,6.287,6.287,0,0,1-.531,2.441,5.536,5.536,0,0,1-1.486,2.016,8.026,8.026,0,0,1-2.441,1.379A5.8,5.8,0,0,1,272.611,920.98Z" transform="translate(-172.32 -886.7)"/><path d="M301.447,917.9a6.571,6.571,0,0,1-2.865-.531,5.194,5.194,0,0,1-1.91-1.486,5.427,5.427,0,0,1-1.061-2.229,13.168,13.168,0,0,1-.319-2.865V898.9h-3.184V896.14l3.4-.212.426-6.049h3.078v6.049h5.731V898.9h-5.731v11.887a5.3,5.3,0,0,0,.743,3.078,2.969,2.969,0,0,0,2.547,1.061,5.3,5.3,0,0,0,1.273-.212,3.792,3.792,0,0,0,1.168-.424l.743,2.759a12.873,12.873,0,0,1-1.911.531A7.957,7.957,0,0,1,301.447,917.9Z" transform="translate(-182.371 -883.616)"/><path d="M319.627,908.2h11.461a7.6,7.6,0,0,0-1.379-4.988,4.681,4.681,0,0,0-3.926-1.7,5.535,5.535,0,0,0-2.229.425,6.021,6.021,0,0,0-1.911,1.274,7.321,7.321,0,0,0-1.379,2.122A13.9,13.9,0,0,0,319.627,908.2Zm6.686,12.948a10.461,10.461,0,0,1-4.033-.743,10.009,10.009,0,0,1-3.289-2.229,10.925,10.925,0,0,1-2.229-3.5,14.41,14.41,0,0,1,0-9.445,12.867,12.867,0,0,1,2.122-3.5,9.177,9.177,0,0,1,3.078-2.229,9.135,9.135,0,0,1,7.217,0,6.334,6.334,0,0,1,2.653,2.016,11.475,11.475,0,0,1,1.7,3.184,11.136,11.136,0,0,1,.531,4.139V910a2.928,2.928,0,0,1-.106.955H319.522a7.9,7.9,0,0,0,2.122,5.412,6.271,6.271,0,0,0,4.988,2.016,8.946,8.946,0,0,0,2.865-.424,17.278,17.278,0,0,0,2.441-1.168l1.274,2.335a14.827,14.827,0,0,1-3.184,1.592A17.93,17.93,0,0,1,326.313,921.144Z" transform="translate(-191.106 -886.865)"/><path d="M360.835,921.083a9.372,9.372,0,0,1-7.111-2.972,10.007,10.007,0,0,1-2.122-3.5,11.88,11.88,0,0,1-.743-4.776,12.278,12.278,0,0,1,.849-4.776,10.956,10.956,0,0,1,2.229-3.5,9.828,9.828,0,0,1,7.217-2.971,8.461,8.461,0,0,1,3.608.743,10.677,10.677,0,0,1,2.654,1.8l-1.8,2.335a21.439,21.439,0,0,0-1.911-1.379,5.777,5.777,0,0,0-2.335-.531,5.984,5.984,0,0,0-4.776,2.335,7.908,7.908,0,0,0-1.379,2.653,11.966,11.966,0,0,0-.531,3.4,9.465,9.465,0,0,0,.531,3.4,7.418,7.418,0,0,0,1.379,2.547,5.579,5.579,0,0,0,2.123,1.7,6.082,6.082,0,0,0,2.653.637,6.189,6.189,0,0,0,2.759-.637,11.607,11.607,0,0,0,2.229-1.486l1.592,2.441a12.453,12.453,0,0,1-3.184,2.017A18.248,18.248,0,0,1,360.835,921.083Z" transform="translate(-203.872 -886.804)"/><path d="M384.856,915.1V883.683h3.608v8.6l-.106,4.458a18.665,18.665,0,0,1,3.184-2.547,7.284,7.284,0,0,1,3.927-1.062,5.75,5.75,0,0,1,4.989,2.123,10.859,10.859,0,0,1,1.592,6.261V915.1h-3.609V902.043a7.728,7.728,0,0,0-.955-4.351,3.535,3.535,0,0,0-3.078-1.379,5.706,5.706,0,0,0-2.972.849,21.622,21.622,0,0,0-2.865,2.441V915.1Z" transform="translate(-216.325 -881.349)"/></g></svg>