<svg xmlns="http://www.w3.org/2000/svg" xmlns:xlink="http://www.w3.org/1999/xlink" width="135" height="134" viewBox="0 0 135 134"><defs><style>.a{fill:#f1291e;}.b{fill:#fff;}.c{filter:url(#a);}</style><filter id="a" x="0" y="0" width="135" height="134" filterUnits="userSpaceOnUse"><feOffset input="SourceAlpha"/><feGaussianBlur stdDeviation="7.5" result="b"/><feFlood flood-opacity="0.259"/><feComposite operator="in" in2="b"/><feComposite in="SourceGraphic"/></filter></defs><g transform="translate(-961.5 -1136.5)"><g class="c" transform="matrix(1, 0, 0, 1, 961.5, 1136.5)"><ellipse class="a" cx="45" cy="44.5" rx="45" ry="44.5" transform="translate(22.5 22.5)"/></g><path class="b" d="M33.6,6H6.4A3.4,3.4,0,0,0,3,9.4v3.4H37V9.4A3.4,3.4,0,0,0,33.6,6ZM3,29.8a3.4,3.4,0,0,0,3.4,3.4H33.6A3.4,3.4,0,0,0,37,29.8V19.6H3Zm5.1-5.1H18.3v3.4H8.1Z" transform="translate(1009.267 1184.734)"/></g></svg>