<svg width="48" height="48" viewBox="0 0 48 48" fill="none" xmlns="http://www.w3.org/2000/svg">
<circle cx="24" cy="24" r="24" fill="#171717"/>
<path d="M22 16H18.8C17.1198 16 16.2798 16 15.638 16.327C15.0735 16.6146 14.6146 17.0735 14.327 17.638C14 18.2798 14 19.1198 14 20.8V29.2C14 30.8802 14 31.7202 14.327 32.362C14.6146 32.9265 15.0735 33.3854 15.638 33.673C16.2798 34 17.1198 34 18.8 34H27.2C28.8802 34 29.7202 34 30.362 33.673C30.9265 33.3854 31.3854 32.9265 31.673 32.362C32 31.7202 32 30.8802 32 29.2V26M23 21H27V25M26.5 16.5V15M30.4393 17.5607L31.5 16.5M31.5103 21.5H33.0103M14 26.3471C14.6519 26.4478 15.3199 26.5 16 26.5C20.3864 26.5 24.2653 24.3276 26.6197 21" stroke="white" stroke-width="2" stroke-linecap="round" stroke-linejoin="round"/>
</svg>
