<svg width="33" height="34" viewBox="0 0 33 34" fill="none" xmlns="http://www.w3.org/2000/svg">
<g clip-path="url(#clip0_711_744)">
<path d="M14.2579 22.5916C15.8107 22.5916 17.2658 22.1228 18.4767 21.322L22.754 25.6091C23.0372 25.8826 23.3986 26.0193 23.7892 26.0193C24.5997 26.0193 25.1954 25.3845 25.1954 24.5837C25.1954 24.2126 25.0685 23.8513 24.7951 23.5779L20.547 19.3103C21.4259 18.0603 21.9435 16.5466 21.9435 14.906C21.9435 10.6775 18.4865 7.22046 14.2579 7.22046C10.0392 7.22046 6.5724 10.6775 6.5724 14.906C6.5724 19.1345 10.0294 22.5916 14.2579 22.5916ZM14.2579 20.5408C11.1622 20.5408 8.62318 18.0017 8.62318 14.906C8.62318 11.8103 11.1622 9.27124 14.2579 9.27124C17.3536 9.27124 19.8927 11.8103 19.8927 14.906C19.8927 18.0017 17.3536 20.5408 14.2579 20.5408Z" fill="#3C3C43" fill-opacity="0.6"/>
</g>
<defs>
<clipPath id="clip0_711_744">
<rect width="32.6667" height="32.6667" fill="white" transform="translate(0.333252 0.666748)"/>
</clipPath>
</defs>
</svg>
